<svg width="224" height="196" viewBox="0 0 224 196" fill="none" xmlns="http://www.w3.org/2000/svg">
<g filter="url(#filter0_d)">
<path d="M145.547 127.023C145.547 134.699 144.229 141.76 141.592 148.205C138.955 154.65 135.293 160.217 130.605 164.904C125.918 169.592 120.352 173.254 113.906 175.891C107.52 178.469 100.547 179.758 92.9883 179.758H62.0508C54.4922 179.758 47.4902 178.469 41.0449 175.891C34.5996 173.254 29.0332 169.592 24.3457 164.904C19.6582 160.217 15.9668 154.65 13.2715 148.205C10.6348 141.76 9.31641 134.699 9.31641 127.023V102.941C9.31641 95.3242 10.6348 88.293 13.2715 81.8477C15.9668 75.3438 19.6582 69.7773 24.3457 65.1484C29.0332 60.4609 34.5996 56.7988 41.0449 54.1621C47.4902 51.5254 54.4922 50.207 62.0508 50.207H92.9883C100.547 50.207 107.52 51.5254 113.906 54.1621C120.352 56.7988 125.918 60.4609 130.605 65.1484C135.293 69.7773 138.955 75.3438 141.592 81.8477C144.229 88.293 145.547 95.3242 145.547 102.941V127.023ZM122.695 102.941C122.695 98.4297 121.963 94.3574 120.498 90.7246C119.092 87.0332 117.07 83.8984 114.434 81.3203C111.855 78.6836 108.721 76.6621 105.029 75.2559C101.396 73.791 97.3828 73.0586 92.9883 73.0586H62.0508C57.5977 73.0586 53.5254 73.791 49.834 75.2559C46.2012 76.6621 43.0664 78.6836 40.4297 81.3203C37.793 83.8984 35.7422 87.0332 34.2773 90.7246C32.8711 94.3574 32.168 98.4297 32.168 102.941V127.023C32.168 131.535 32.8711 135.637 34.2773 139.328C35.7422 142.961 37.793 146.096 40.4297 148.732C43.0664 151.311 46.2012 153.332 49.834 154.797C53.5254 156.203 57.5977 156.906 62.0508 156.906H92.8125C97.2656 156.906 101.309 156.203 104.941 154.797C108.633 153.332 111.797 151.311 114.434 148.732C117.07 146.096 119.092 142.961 120.498 139.328C121.963 135.637 122.695 131.535 122.695 127.023V102.941ZM207.334 178H197.139C193.857 178 190.342 177.443 186.592 176.33C182.9 175.217 179.443 173.4 176.221 170.881C172.998 168.303 170.332 164.992 168.223 160.949C166.113 156.848 165.059 151.838 165.059 145.92V42.8242H187.91V145.92C187.91 148.732 188.789 150.988 190.547 152.688C192.305 154.328 194.502 155.148 197.139 155.148H207.334V178Z" fill="white"/>
</g>
<defs>
<filter id="filter0_d" x="9.31641" y="42.8242" width="214.018" height="152.934" filterUnits="userSpaceOnUse" color-interpolation-filters="sRGB">
<feFlood flood-opacity="0" result="BackgroundImageFix"/>
<feColorMatrix in="SourceAlpha" type="matrix" values="0 0 0 0 0 0 0 0 0 0 0 0 0 0 0 0 0 0 127 0"/>
<feOffset dx="8" dy="8"/>
<feGaussianBlur stdDeviation="4"/>
<feColorMatrix type="matrix" values="0 0 0 0 0 0 0 0 0 0 0 0 0 0 0 0 0 0 0.35 0"/>
<feBlend mode="normal" in2="BackgroundImageFix" result="effect1_dropShadow"/>
<feBlend mode="normal" in="SourceGraphic" in2="effect1_dropShadow" result="shape"/>
</filter>
</defs>
</svg>
