<svg xmlns="http://www.w3.org/2000/svg" xmlns:xlink="http://www.w3.org/1999/xlink" viewBox="0 0 1080 1080"><defs><style>.cls-1{isolation:isolate;}.cls-2{fill:#fff;}.cls-3{fill:url(#radial-gradient);}.cls-4{fill:url(#radial-gradient-2);}.cls-5{fill:url(#radial-gradient-3);}.cls-6{fill:url(#radial-gradient-4);}.cls-7{fill:url(#radial-gradient-5);}.cls-8{fill:url(#radial-gradient-6);}.cls-9{fill:url(#radial-gradient-11);}.cls-10{fill:url(#radial-gradient-12);}.cls-11{fill:url(#radial-gradient-13);}.cls-12{fill:url(#radial-gradient-14);}.cls-13{fill:url(#radial-gradient-15);}.cls-14{fill:url(#radial-gradient-16);}.cls-15,.cls-16{fill:url(#radial-gradient-17);}.cls-16,.cls-18,.cls-19,.cls-20,.cls-21,.cls-22,.cls-23,.cls-24,.cls-25,.cls-26,.cls-27{opacity:0.35;mix-blend-mode:color-dodge;}.cls-17{fill:url(#radial-gradient-19);}.cls-18{fill:url(#radial-gradient-20);}.cls-19{fill:url(#radial-gradient-21);}.cls-20{fill:url(#radial-gradient-22);}.cls-21{fill:url(#radial-gradient-23);}.cls-22{fill:url(#radial-gradient-24);}.cls-23{fill:url(#radial-gradient-25);}.cls-24{fill:url(#radial-gradient-26);}.cls-25{fill:url(#radial-gradient-27);}.cls-26{fill:url(#radial-gradient-28);}.cls-27{fill:url(#radial-gradient-29);}.cls-28{fill:url(#radial-gradient-30);}.cls-29{font-size:80.46px;fill:#ef4136;font-family:AvantGardeITCbyBT-Medium, AvantGarde Md BT;font-weight:500;}.cls-30{font-size:38.85px;fill:#231f20;font-family:AvantGardeITCbyBT-Book, AvantGarde Bk BT;font-weight:400;letter-spacing:0.8em;}</style><radialGradient id="radial-gradient" cx="450.53" cy="470.84" r="43.3" gradientUnits="userSpaceOnUse"><stop offset="0" stop-color="#fbb040"/><stop offset="1" stop-color="#f15a29"/></radialGradient><radialGradient id="radial-gradient-2" cx="386.72" cy="621.37" r="0.85" xlink:href="#radial-gradient"/><radialGradient id="radial-gradient-3" cx="389.67" cy="620.02" r="0.87" xlink:href="#radial-gradient"/><radialGradient id="radial-gradient-4" cx="450.43" cy="478.97" r="0.42" xlink:href="#radial-gradient"/><radialGradient id="radial-gradient-5" cx="451.27" cy="479.01" r="0.11" xlink:href="#radial-gradient"/><radialGradient id="radial-gradient-6" cx="452.64" cy="479.06" r="0.55" xlink:href="#radial-gradient"/><radialGradient id="radial-gradient-11" cx="392.19" cy="538.27" r="0.86" xlink:href="#radial-gradient"/><radialGradient id="radial-gradient-12" cx="396.39" cy="527.41" r="3.88" xlink:href="#radial-gradient"/><radialGradient id="radial-gradient-13" cx="400.43" cy="519.1" r="0.64" xlink:href="#radial-gradient"/><radialGradient id="radial-gradient-14" cx="403.05" cy="604.61" r="1.02" xlink:href="#radial-gradient"/><radialGradient id="radial-gradient-15" cx="402.59" cy="515.54" r="0.53" xlink:href="#radial-gradient"/><radialGradient id="radial-gradient-16" cx="405.82" cy="603.81" r="0.51" xlink:href="#radial-gradient"/><radialGradient id="radial-gradient-17" cx="415.22" cy="597.6" r="1.13" xlink:href="#radial-gradient"/><radialGradient id="radial-gradient-19" cx="400.04" cy="465.8" r="0.64" xlink:href="#radial-gradient"/><radialGradient id="radial-gradient-20" cx="290.73" cy="560.1" r="0.35" xlink:href="#radial-gradient"/><radialGradient id="radial-gradient-21" cx="290.91" cy="558.46" r="0.41" xlink:href="#radial-gradient"/><radialGradient id="radial-gradient-22" cx="304.2" cy="524.88" r="0.73" xlink:href="#radial-gradient"/><radialGradient id="radial-gradient-23" cx="306.35" cy="521.82" r="1.12" xlink:href="#radial-gradient"/><radialGradient id="radial-gradient-24" cx="324.34" cy="502.74" r="0.98" xlink:href="#radial-gradient"/><radialGradient id="radial-gradient-25" cx="326.59" cy="500.88" r="0.92" xlink:href="#radial-gradient"/><radialGradient id="radial-gradient-26" cx="331.71" cy="496.99" r="1.58" xlink:href="#radial-gradient"/><radialGradient id="radial-gradient-27" cx="353.52" cy="483.77" r="1.09" xlink:href="#radial-gradient"/><radialGradient id="radial-gradient-28" cx="358.36" cy="481.41" r="1.23" xlink:href="#radial-gradient"/><radialGradient id="radial-gradient-29" cx="375.47" cy="474.29" r="0.74" xlink:href="#radial-gradient"/><radialGradient id="radial-gradient-30" cx="346.09" cy="547.96" r="86.04" xlink:href="#radial-gradient"/></defs><g class="cls-1"><g id="Layer_1" data-name="Layer 1"><rect class="cls-2" width="1080" height="1080"/><path class="cls-3" d="M497.41,471.31c0,5.77-8.61,9.75-17.78,9l-10.48-.81L460,505.81a6.57,6.57,0,0,1-6.09,4.4l-3.68,0L449.84,479A103.43,103.43,0,0,0,414,495.37c-.18-1.28-.42-2.55-.67-3.8a59,59,0,0,0-1.64-5.93,150.49,150.49,0,0,1,28-10.11h0s0,0,.05,0a.75.75,0,0,0,.55-.9.78.78,0,0,0-.9-.6h0a0,0,0,0,0,0,0,190.27,190.27,0,0,0-29.12,7.74c-.12-.31-.26-.61-.4-.91a194.51,194.51,0,0,1,29-9.16s.05,0,.07,0a.68.68,0,0,0,.54-.76.71.71,0,0,0-.77-.63.11.11,0,0,0-.07,0,223.74,223.74,0,0,0-30.56,6.89c-.27-.53-.57-1.06-.87-1.57a54.23,54.23,0,0,0-3.52-5.39c16.48-4,30.62-4.93,42.29-5.65l3.75.07-.39-33.18,3.68,0a6.57,6.57,0,0,1,6.2,4.24l10.24,27.41,10.2-.81c.72-.07,1.44-.1,2.13-.1a24.77,24.77,0,0,1,8.06,1.3l.53.21a2.09,2.09,0,0,1,.44.16l.21.09.39.16a4.5,4.5,0,0,1,.49.24l.21.09.28.14,0,0c.1.05.16.1.26.14a1,1,0,0,1,.16.1l.3.16s.07,0,.09.07l.21.11.26.19a8.34,8.34,0,0,1,.88.65,7.34,7.34,0,0,1,.6.53s0,0,0,.05a.75.75,0,0,1,.16.13.83.83,0,0,1,.16.17,1.8,1.8,0,0,1,.26.3,4,4,0,0,1,.58.74c.07.11.14.23.21.32s.21.37.3.58.07.19.11.28a2.61,2.61,0,0,1,.14.37,1.25,1.25,0,0,1,.07.23l.07.3q.08.31.12.63c0,.11,0,.23,0,.32S497.41,471.2,497.41,471.31Z"/><path class="cls-4" d="M387.83,620.91c-.73.33-1.48.64-2.23.92C386.35,621.55,387.09,621.24,387.83,620.91Z"/><path class="cls-5" d="M390.77,619.47c-.72.4-1.46.76-2.2,1.1C389.31,620.23,390.05,619.87,390.77,619.47Z"/><path class="cls-6" d="M451,479l-1.17-.05A7.42,7.42,0,0,1,451,479Z"/><path class="cls-7" d="M451.12,479h0Z"/><path class="cls-8" d="M453.42,479.09l-1.55-.06Z"/><path class="cls-7" d="M451.12,479h0Z"/><path class="cls-8" d="M453.42,479.09l-1.55-.06Z"/><path class="cls-7" d="M451.12,479h0Z"/><path class="cls-8" d="M453.42,479.09l-1.55-.06Z"/><path class="cls-9" d="M391.84,539.44c.22-.8.46-1.58.7-2.34C392.3,537.86,392.06,538.64,391.84,539.44Z"/><path class="cls-10" d="M394.16,532.42a90.42,90.42,0,0,1,4.45-10A91.27,91.27,0,0,0,394.16,532.42Z"/><path class="cls-11" d="M400.88,518.32l-.9,1.55C400.28,519.34,400.58,518.82,400.88,518.32Z"/><path class="cls-12" d="M404.45,604.27a26.78,26.78,0,0,1-2.81.69C402.59,604.77,403.53,604.55,404.45,604.27Z"/><path class="cls-13" d="M403,514.91l-.81,1.26C402.46,515.73,402.74,515.31,403,514.91Z"/><path class="cls-14" d="M405.15,604.05l1.35-.48C406.05,603.74,405.6,603.91,405.15,604.05Z"/><path class="cls-15" d="M416.25,596.58a18.12,18.12,0,0,1-2.05,2.26c.1-.82.17-1.65.22-2.47C415.57,596.54,416.25,596.58,416.25,596.58Z"/><path class="cls-16" d="M416.25,596.58a18.12,18.12,0,0,1-2.05,2.26c.1-.82.17-1.65.22-2.47C415.57,596.54,416.25,596.58,416.25,596.58Z"/><path class="cls-17" d="M400.65,466.47c-.4-.45-.8-.9-1.22-1.34Z"/><path class="cls-18" d="M290.68,560.59c0-.31.06-.63.09-1C290.74,560,290.71,560.28,290.68,560.59Z"/><path class="cls-19" d="M290.83,559q.07-.54.15-1.14Q290.9,558.49,290.83,559Z"/><path class="cls-20" d="M303.62,525.74c.37-.57.75-1.14,1.16-1.72C304.38,524.59,304,525.17,303.62,525.74Z"/><path class="cls-21" d="M307.29,520.54c-.65.86-1.27,1.72-1.88,2.57C306,522.26,306.63,521.4,307.29,520.54Z"/><path class="cls-22" d="M325.4,501.85c-.72.59-1.42,1.18-2.12,1.78C324,503,324.68,502.43,325.4,501.85Z"/><path class="cls-23" d="M325.58,501.7c.66-.55,1.33-1.09,2-1.63C326.92,500.61,326.24,501.15,325.58,501.7Z"/><path class="cls-24" d="M329.9,498.31c1.17-.89,2.37-1.76,3.61-2.63Q331.65,497,329.9,498.31Z"/><path class="cls-25" d="M354.9,483.07l-2.76,1.39C353.05,484,354,483.53,354.9,483.07Z"/><path class="cls-26" d="M359.93,480.68l-3.15,1.47C357.81,481.66,358.86,481.16,359.93,480.68Z"/><path class="cls-27" d="M376.45,473.93c-.66.24-1.31.47-1.95.72.63-.24,1.26-.48,1.91-.71Z"/><path class="cls-28" d="M414.56,503.4v89.13c0,1.29-.05,2.57-.14,3.84-6.46-1-27.66-6.44-26.18-35.33,0-.44,0-.88.09-1.32s.05-.78.07-1.15c0-.07,0-.14,0-.21,0-.3.05-.63.07-.93s.07-.76.12-1.16.07-.57.09-.88.05-.5.09-.76c.12-1,.24-2,.4-3,.07-.39.11-.78.18-1.18.17-1,.33-1.94.51-2.91.09-.42.19-.84.26-1.25a.32.32,0,0,0,0-.12c.09-.46.21-.92.3-1.36s.21-.91.33-1.35c.13-.65.3-1.27.46-1.9s.32-1.22.51-1.82a2.38,2.38,0,0,1,.07-.31c.23-.81.46-1.57.71-2.33.14-.42.26-.81.4-1.23.25-.79.53-1.57.81-2.32a8.87,8.87,0,0,1,.42-1.15,84.83,84.83,0,0,1,4.44-10l.46-.88c.16-.28.3-.56.47-.84v0l.44-.79c.3-.55.6-1.06.9-1.57.44-.74.88-1.46,1.32-2.13.25-.44.53-.86.81-1.27,1.53-2.32,2.87-4.1,3.84-5.33a2,2,0,0,0,.23-.28c.81-1,1.35-1.55,1.48-1.71-1.25,1-35.76,28.29-36.46,66,0,1.11,0,2.18,0,3.22,0,.35,0,.67,0,1s0,.51.05.76a4.46,4.46,0,0,0,0,.63,4.39,4.39,0,0,0,0,.53c0,.42.07.81.12,1.21a5.13,5.13,0,0,0,.09.67c0,.23.07.48.09.71.1.7.23,1.37.35,2,.05.25.09.51.16.74.12.55.26,1.11.4,1.62a5.54,5.54,0,0,0,.18.67c.16.58.32,1.14.53,1.69s.33.93.51,1.39c.28.69.58,1.37.88,2,.12.21.21.42.33.61a6,6,0,0,0,.37.71c.09.17.2.35.32.54a11.14,11.14,0,0,0,.63,1c.09.12.16.26.25.37s.25.35.37.54l.28.37a5.2,5.2,0,0,0,.35.44c.2.28.44.53.64.78l.26.28a5.88,5.88,0,0,0,.53.58l.28.28c.28.28.58.55.86.81h0c.28.25.55.51.86.74s.9.69,1.36,1c.14.11.3.2.46.32s.63.39.95.56.3.18.49.27a2.59,2.59,0,0,0,.46.26l.51.23a5.4,5.4,0,0,0,.49.23,2.49,2.49,0,0,0,.51.21,21.32,21.32,0,0,0,5.71,1.55,24.52,24.52,0,0,0,4.68.23l1.23-.07.41,0,1.14-.14c.42-.07.86-.12,1.27-.21a27.94,27.94,0,0,0,2.8-.7h0l.69-.2,1.34-.49.65-.28c.44-.18.88-.37,1.3-.58l1.25-.62a21.67,21.67,0,0,0,4.49-3.27,56,56,0,0,1-55.65,49.73h-58a22.93,22.93,0,0,1-22.93-22.93V470.31a22.93,22.93,0,0,1,22.93-22.93h58a55.89,55.89,0,0,1,40.9,17.75c-23.45,4.33-61.78,14.36-83.36,35.75-.32.3-.62.62-.93.92s-.6.63-.9.95l-.76.84-1,1.11c-28.73,33.38-22,59.21-22,59.21a6.51,6.51,0,0,1,0-.88v-.3c0-.27,0-.62,0-1a4.87,4.87,0,0,1,.05-.51,5,5,0,0,1,.05-.65c0-.3,0-.62.09-1a5.28,5.28,0,0,0,0-.58c.05-.35.1-.74.17-1.14s.09-.67.14-1,.09-.56.13-.84c.12-.65.24-1.34.4-2.06a5.35,5.35,0,0,1,.11-.55c.12-.56.23-1.11.37-1.69.12-.4.21-.81.3-1.21.21-.81.44-1.64.7-2.52l.42-1.32c.13-.44.27-.9.44-1.37.07-.23.16-.46.23-.69.16-.46.34-.93.51-1.41l.27-.77c.19-.46.37-1,.56-1.41.12-.28.21-.51.32-.79s.21-.48.3-.71c.54-1.28,1.14-2.57,1.79-3.89.11-.26.25-.53.39-.79s.23-.49.37-.74.14-.28.21-.44.3-.53.44-.81.16-.32.25-.49l.42-.76c.3-.56.63-1.09.95-1.67s.65-1.11,1-1.66.69-1.14,1.06-1.69c.19-.3.37-.58.56-.86.37-.58.76-1.16,1.15-1.71.21-.3.42-.63.63-.93l1.87-2.57c.24-.28.44-.58.68-.88s.46-.58.69-.88.46-.58.72-.88.71-.88,1.09-1.32.74-.88,1.13-1.32.51-.6.79-.9.51-.6.78-.9l1-1q.35-.36.69-.75c.28-.3.56-.57.86-.87s.58-.61.88-.91.58-.6.9-.9.6-.58.9-.88.63-.6.95-.9.63-.61.95-.88.58-.54.86-.79c.69-.63,1.41-1.27,2.15-1.9s1.41-1.2,2.13-1.78a.81.81,0,0,0,.16-.16l2-1.62,1.13-.88c.37-.3.77-.58,1.16-.88q1.74-1.32,3.61-2.64l1.25-.86c.88-.6,1.79-1.2,2.69-1.8.35-.24.69-.44,1-.68.12-.09.25-.16.39-.25.43-.29.88-.55,1.3-.82l2.74-1.68,1.29-.76c.46-.28,1-.54,1.41-.81a4.44,4.44,0,0,0,.39-.24l1.14-.62c1-.6,2.1-1.18,3.19-1.76.47-.23.93-.46,1.39-.72l.42-.21,2.75-1.39,1.88-.92c1-.49,2.08-1,3.15-1.48l2.15-1c1.09-.48,2.2-.94,3.31-1.43s2.27-.95,3.43-1.41c0,0,0,0,0,0l1.81-.71A1.84,1.84,0,0,1,371,476c.53-.21,1-.42,1.58-.62l1.71-.65.21-.07c.65-.23,1.27-.49,1.92-.72,7.43-2.68,15.49-5.19,24.24-7.45q1.59,1.8,3,3.75c-18.71,4.46-40.42,12.8-64.94,29-63.48,41.83-46.55,97.23-18.52,116a6,6,0,0,0,.56.37c-.67-.67-29.24-29.84-9-71.5,14.56-30,54.84-54.38,96.3-66.82.65,1.21,1.23,2.44,1.76,3.66.14.3.28.6.4.91.53,1.27,1,2.56,1.46,3.88A146.62,146.62,0,0,0,347,545.12C315,600.24,346.73,629.91,378,624c0,0,0,0,0,0,.26,0,.49-.12.74-.16l.67-.14.86-.21,1.14-.28,1.13-.35c.51-.14,1-.3,1.5-.48a7.75,7.75,0,0,0,.77-.26l.74-.28c.74-.27,1.48-.6,2.25-.92l.71-.35c.74-.32,1.48-.69,2.23-1.09.23-.14.46-.25.71-.39l.72-.42c.76-.44,1.53-.9,2.29-1.41a6,6,0,0,0,.56-.37c.3-.18.58-.39.88-.6s.48-.33.72-.51a47.41,47.41,0,0,0,4.51-3.75s-39.15,0-36.25-38.41c1.9-25.46,20.37-58,49.05-78.24A57.27,57.27,0,0,1,414.56,503.4Z"/><text class="cls-29" transform="translate(442.6 579.56)">DIASPORA<tspan class="cls-30"><tspan x="0" y="42.5">NURSES</tspan></tspan></text></g></g></svg>