<svg width="701" height="379" viewBox="0 0 701 379" fill="none" xmlns="http://www.w3.org/2000/svg">
<path d="M51.5942 361.922C51.8693 365.224 54.7694 367.678 58.0716 367.403L111.885 362.92C115.187 362.645 117.641 359.745 117.366 356.442C117.091 353.14 114.191 350.686 110.889 350.961L63.0546 354.947L59.0692 307.112C58.7941 303.81 55.894 301.356 52.5918 301.631C49.2895 301.906 46.8355 304.806 47.1107 308.109L51.5942 361.922ZM671.262 93.7406C641.838 59.3177 571.483 25.1872 466.503 49.8232C361.593 74.4428 222.143 157.651 52.9932 357.548L62.1537 365.3C230.429 166.436 367.813 85.3092 469.245 61.5058C570.607 37.7189 636.103 71.0767 662.14 101.538L671.262 93.7406Z" fill="#3360C5"/>
</svg>
