<svg width="87" height="87" viewBox="0 0 87 87" fill="none" xmlns="http://www.w3.org/2000/svg">
<path d="M43.4991 0.000854492C27.8318 0.000854492 15.0854 12.7473 15.0854 28.4148C15.0854 32.7797 16.1968 37.0424 18.3889 41.085C20.1695 44.3688 22.637 47.3981 25.5676 49.9088V62.7008H61.4306V49.9088C64.3612 47.3981 66.8288 44.3688 68.6095 41.085C70.8015 37.0426 71.9129 32.7797 71.9129 28.4148C71.9129 12.7473 59.1666 0.000854492 43.4991 0.000854492ZM44.9039 48.4494L43.5712 35.7925H35.6778L37.9375 18.7396H49.2811L44.2294 31.237H51.3584L44.9039 48.4494Z" fill="#5CE0E6"/>
<path d="M25.5677 67.7983V77.385H33.259V86.9991H53.7393V77.385H61.4307V67.7983H25.5677Z" fill="#5CE0E6"/>
<path d="M9.03117 23.8862H0V28.9838H9.03117V23.8862Z" fill="#5CE0E6"/>
<path d="M8.07981 12.5752L5.25211 16.817L10.6704 20.429L13.4981 16.1872L8.07981 12.5752Z" fill="#5CE0E6"/>
<path d="M10.673 32.3299L5.25473 35.9419L8.08244 40.1837L13.5008 36.5717L10.673 32.3299Z" fill="#5CE0E6"/>
<path d="M87 23.8862H77.9688V28.9838H87V23.8862Z" fill="#5CE0E6"/>
<path d="M78.9182 12.5766L73.501 16.1882L76.3285 20.4291L81.7456 16.8175L78.9182 12.5766Z" fill="#5CE0E6"/>
<path d="M76.3284 32.3341L73.5009 36.575L78.918 40.1866L81.7455 35.9457L76.3284 32.3341Z" fill="#5CE0E6"/>
</svg>
