<svg width="77" height="77" viewBox="0 0 77 77" fill="none" xmlns="http://www.w3.org/2000/svg">
<path d="M34.6223 23.5781C35.9183 23.5781 36.9688 22.5277 36.9688 21.2317C36.9688 20.3432 36.4663 19.5307 35.6715 19.1333L34.4375 18.5156V13.4822C34.2388 13.4772 34.0388 13.4531 33.8401 13.4531H33.1719H30.6406H29.375V21.2317C29.375 22.5277 30.4255 23.5781 31.7215 23.5781H34.6223Z" fill="#3360C5"/>
<path d="M45.8281 0.796875H50.8906V13.4531H45.8281V0.796875Z" fill="#3360C5"/>
<path d="M29.375 10.9219H30.6406V3.32812H29.375C27.2817 3.32812 25.5781 5.03166 25.5781 7.125C25.5781 9.21834 27.2817 10.9219 29.375 10.9219Z" fill="#3360C5"/>
<path d="M43.2969 12.7685V1.48163C40.3011 2.6903 37.07 3.32818 33.8401 3.32818H33.1719V10.9219H33.8401C37.07 10.9219 40.3011 11.5598 43.2969 12.7685Z" fill="#3360C5"/>
<path d="M57.2188 4.59375L53.4219 3.64453V10.6055L57.2188 9.65625V4.59375Z" fill="#3360C5"/>
<path d="M28.1094 36.2344C28.1094 28.5584 21.8635 22.3125 14.1875 22.3125C6.51148 22.3125 0.265625 28.5584 0.265625 36.2344C0.265625 43.9104 6.51148 50.1562 14.1875 50.1562C21.8635 50.1562 28.1094 43.9104 28.1094 36.2344ZM9.125 38.7656H11.6562C11.6562 39.4643 12.2233 40.0312 12.9219 40.0312H16.7188V38.7656C16.7188 38.0683 16.1517 37.5 15.4531 37.5H12.9219C10.8285 37.5 9.125 35.7965 9.125 33.7031V29.9062H12.9219V27.375H15.4531V29.9062C17.5465 29.9062 19.25 31.6098 19.25 33.7031H16.7188C16.7188 33.0058 16.1517 32.4375 15.4531 32.4375H11.6562V33.7031C11.6562 34.4005 12.2233 34.9688 12.9219 34.9688H15.4531C17.5465 34.9688 19.25 36.6723 19.25 38.7656V42.5625H15.4531V45.0938H12.9219V42.5625C10.8285 42.5625 9.125 40.859 9.125 38.7656Z" fill="#3360C5"/>
<path d="M58.4844 56.4844H35.7031C33.6098 56.4844 31.9062 58.1879 31.9062 60.2812V72.9375C31.9062 75.0308 33.6098 76.7344 35.7031 76.7344H58.4844C60.5777 76.7344 62.2812 75.0308 62.2812 72.9375V60.2812C62.2812 58.1879 60.5777 56.4844 58.4844 56.4844ZM57.2188 71.6719H36.9688V61.5469H39.5V69.1406H42.0312V64.0781H44.5625V69.1406H47.0938V61.5469H49.625V69.1406H52.1562V66.6094H54.6875V69.1406H57.2188V71.6719Z" fill="#3360C5"/>
<path d="M65.3023 38.4505L76.2031 47.4668V25.7335L65.3023 38.4505Z" fill="#3360C5"/>
<path d="M43.2969 47.4668L54.1977 38.4505L43.2969 25.7335V47.4668Z" fill="#3360C5"/>
<path d="M59.75 38.7656C60.989 38.7656 62.161 38.2265 62.9685 37.2861L74.7173 23.5781H44.7827L56.5315 37.2861C57.339 38.2265 58.5109 38.7656 59.75 38.7656Z" fill="#3360C5"/>
<path d="M59.75 41.2969C58.4236 41.2969 57.1492 40.9021 56.0632 40.1946L45.5484 48.8907H73.9529L63.438 40.1946C62.3509 40.9021 61.0764 41.2969 59.75 41.2969Z" fill="#3360C5"/>
<path d="M12.9219 57.75H15.4531V60.2812H12.9219V57.75Z" fill="#3360C5"/>
<path d="M12.9219 52.6875H15.4531V55.2188H12.9219V52.6875Z" fill="#3360C5"/>
<path d="M15.4531 62.8125H12.9219V65.3438C12.9219 66.7397 14.0571 67.875 15.4531 67.875H29.375V65.3438H15.4531V62.8125Z" fill="#3360C5"/>
<path d="M12.9219 17.25H15.4531V19.7812H12.9219V17.25Z" fill="#3360C5"/>
<path d="M12.9219 12.1875H15.4531V14.7188H12.9219V12.1875Z" fill="#3360C5"/>
<path d="M15.4531 7.125H20.5156V4.59375H15.4531C14.0571 4.59375 12.9219 5.72902 12.9219 7.125V9.65625H15.4531V7.125Z" fill="#3360C5"/>
<path d="M30.6406 34.9688H38.2344V37.5H30.6406V34.9688Z" fill="#3360C5"/>
</svg>
