<svg width="88" height="88" viewBox="0 0 88 88" fill="none" xmlns="http://www.w3.org/2000/svg">
<path d="M83.0796 0C81.7657 0 80.5307 0.51131 79.6006 1.44138L74.973 6.06897L81.9311 13.027L86.5587 8.39945C87.4887 7.46938 88.0001 6.23435 88.0001 4.92041C88.0001 2.20759 85.7925 0 83.0796 0Z" fill="#5CE0E6"/>
<path d="M45.5733 41.0429C45.5369 41.1552 45.5172 41.272 45.5172 41.3889C45.5172 42.1096 46.2698 42.6512 46.9571 42.4267L53.3295 40.3025L47.6975 34.6705L45.5733 41.0429Z" fill="#5CE0E6"/>
<path d="M49.171 31.8662L68.2638 12.7734L70.6699 15.1794L51.5771 34.2723L49.171 31.8662Z" fill="#5CE0E6"/>
<path d="M53.7228 36.418L72.8156 17.3252L75.2216 19.7312L56.1288 38.824L53.7228 36.418Z" fill="#5CE0E6"/>
<path d="M70.4116 10.6265L72.818 8.22006L79.7755 15.1775L77.3691 17.5839L70.4116 10.6265Z" fill="#5CE0E6"/>
<path d="M53.1035 43.5767V62.2069H42.4828V70.0723C44.2443 70.7004 45.5172 72.3694 45.5172 74.3448C45.5172 76.8544 43.475 78.8966 40.9655 78.8966C38.9901 78.8966 37.3211 77.6236 36.693 75.8621H16.6897V80.4138H4.55172V68.2759H9.10345V56.1379H4.55172V44H9.10345V31.8621H4.55172V19.7241H16.6897V24.2759H25.7931V19.7241H37.931V31.8621H25.7931V27.3104H16.6897V31.8621H12.1379V44H16.6897V56.1379H12.1379V68.2759H16.6897V72.8276H36.693C37.1512 71.5425 38.1632 70.5305 39.4483 70.0723V62.2069H28.8276V40.9655H42.5161C42.5465 40.6666 42.5981 40.3708 42.6937 40.0825L45.7069 31.0428L57.6552 19.096V12.1379H0V88H57.6552V41.5937L56.9572 42.2916L53.1035 43.5767Z" fill="#5CE0E6"/>
</svg>
