<svg width="500" height="131" viewBox="0 0 500 131" fill="none" xmlns="http://www.w3.org/2000/svg">
<path d="M85.8949 18.6659C78.8463 18.6659 73.1118 24.3947 73.1118 31.4363C73.1118 38.4779 78.8463 44.2068 85.8949 44.2068C92.9436 44.2068 98.6779 38.4779 98.6779 31.4363C98.6779 24.3947 92.9436 18.6659 85.8949 18.6659ZM60.5168 50.0259C56.5333 44.6075 54.4275 38.1795 54.4275 31.4363C54.4275 14.1023 68.5438 5.25598e-05 85.8949 5.25598e-05C103.246 5.25598e-05 117.362 14.1023 117.362 31.4363C117.362 38.1795 115.256 44.6078 111.273 50.026L97.8469 68.7847L97.8422 68.7896L85.895 85.4846L60.5168 50.0259Z" fill="#3C3E3F"/>
<path d="M75.5363 67.4645L85.8614 81.895L67.6691 56.4772C73.7563 54.5777 85.8614 50.3732 85.8614 50.3732V64.1135C85.8614 64.1135 75.8518 67.6343 75.5363 67.4645Z" fill="#5CE0E6"/>
<path d="M104.126 56.484L96.2542 67.4827L96.2494 67.4875C95.9339 67.6573 85.9226 64.1365 85.9226 64.1365V50.3962C85.9226 50.3962 98.8303 54.8965 104.126 56.484Z" fill="#5CE0E6"/>
<path d="M67.6969 56.4282L64.7843 51.7616L85.6912 46.757L85.8893 50.3243L86.1307 46.8059L107.373 50.5622C107.967 50.7752 104.095 56.3845 104.093 56.412C104.076 56.6114 96.2161 67.4155 96.2161 67.4155L85.8893 64.0647L85.5813 73.3319L80.6005 74.137L75.5641 67.4155L67.6969 56.4282Z" fill="#5CE0E6"/>
<path d="M85.8946 46.3604C77.6731 46.3604 71.0081 39.702 71.0081 31.4885C71.0081 23.275 77.6731 16.6166 85.8946 16.6166C94.1162 16.6166 100.781 23.275 100.781 31.4885C100.781 39.702 94.1162 46.3604 85.8946 46.3604ZM85.8946 2.15377C69.6779 2.15377 56.5308 15.2879 56.5308 31.4885C56.5308 37.9836 58.644 43.9857 62.2201 48.845L67.7023 56.5056C73.7895 54.6063 85.8946 50.4017 85.8946 50.4017C85.8946 50.4017 98.8023 54.9019 104.098 56.4894L109.569 48.845C113.145 43.9857 115.258 37.9836 115.258 31.4885C115.258 15.2879 102.111 2.15377 85.8946 2.15377" fill="#5CE0E6"/>
<path d="M85.9018 64.1108V81.8923L75.5767 67.4618C75.8923 67.6315 85.9018 64.1108 85.9018 64.1108Z" fill="#5E6163"/>
<path d="M0 12.6223V77.487H3.63475V45.0546H15.7957C20.7645 45.0546 24.9502 43.5305 28.353 40.4822C31.7235 37.5821 33.4087 33.6477 33.4087 28.6789C33.4087 23.7682 31.717 19.8627 28.3336 16.9627C24.9438 14.0691 20.7645 12.6223 15.7957 12.6223H0ZM15.7087 41.3232H3.63475V16.344H15.7087C19.7623 16.344 23.0297 17.3655 25.5109 19.4084C28.295 21.6576 29.687 24.7477 29.687 28.6789C29.687 32.6166 28.3562 35.739 25.6946 38.0461C23.0265 40.2309 19.6979 41.3232 15.7087 41.3232ZM137.589 62.8417L133.867 64.1274C136.703 73.5043 143.089 78.1927 153.027 78.1927C156.255 78.1927 159.036 77.7802 161.369 76.9553C168.349 74.3517 171.838 68.9222 171.838 60.6666C171.838 55.5239 170.079 51.2221 166.56 47.7614C165.291 46.4853 163.628 45.2286 161.572 43.9913C159.516 42.7475 157.067 41.4908 154.225 40.2212C149.669 38.146 146.637 36.5188 145.129 35.3394C142.467 33.0323 141.136 30.3255 141.136 27.2192C141.136 23.7585 142.409 20.9777 144.955 18.8767C147.32 16.866 150.278 15.8607 153.829 15.8607C157.232 15.8607 159.996 16.5406 162.123 17.9004C163.812 18.8735 165.262 20.3525 166.473 22.3375L170.021 20.7811C166.915 15.1034 161.563 12.2646 153.964 12.2646C153.932 12.2646 153.887 12.2646 153.829 12.2646C149.215 12.2646 145.338 13.6534 142.2 16.431C139.01 19.1248 137.415 22.6758 137.415 27.0839C137.415 31.666 138.981 35.3201 142.113 38.0461C143.975 39.7282 147.497 41.7228 152.679 44.0299C155.398 45.2415 157.638 46.3371 159.397 47.3167C161.157 48.2898 162.452 49.1631 163.283 49.9364C166.506 52.772 168.117 56.3488 168.117 60.6666C168.117 65.223 166.757 68.6837 164.037 71.0489C161.401 73.3303 157.792 74.4709 153.21 74.4709C153.152 74.4709 153.091 74.4709 153.027 74.4709C144.868 74.4709 139.722 70.5945 137.589 62.8417ZM205.605 12.6223V77.487H209.249V12.6223H205.605ZM243.277 12.6223V16.344H257.651V77.487H261.383V16.344H275.709V12.6223H243.277ZM309.437 12.6223V77.487H313.072V12.6223H309.437ZM347.544 45.0546C347.544 54.8762 350.666 62.9061 356.911 69.1445C363.059 75.2991 371.015 78.3764 380.778 78.3764C380.836 78.3764 380.881 78.3764 380.914 78.3764C390.735 78.3764 398.765 75.2701 405.004 69.0575C411.248 62.8771 414.371 54.8762 414.371 45.0546C414.371 35.2331 411.248 27.2031 405.004 20.9648C398.701 14.778 390.671 11.6846 380.914 11.6846C371.092 11.6846 363.062 14.807 356.824 21.0518C350.637 27.2321 347.544 35.2331 347.544 45.0546ZM351.275 45.0546C351.275 36.3867 354.062 29.2654 359.637 23.6908C365.211 18.1163 372.304 15.329 380.914 15.329C389.64 15.329 396.783 18.1227 402.345 23.7102C407.875 29.2138 410.639 36.3287 410.639 45.0546C410.639 53.8386 407.875 60.9824 402.345 66.4861C396.783 71.9253 389.64 74.6611 380.914 74.6933C372.246 74.6933 365.131 71.8963 359.569 66.3024C354.066 60.8052 351.301 53.7226 351.275 45.0546ZM447.866 12.1292V77.487H451.501V22.4245L500 78.5987V12.6223H496.269V68.9222L447.866 12.1292Z" fill="#3C3E3F"/>
<path d="M129.533 113.061V114.25H131.167V125.038H132.356V114.25H135.14V113.061H132.356V107.802H131.167V113.061H129.533ZM138.05 103.568V125.038H139.239V117.237C139.239 116.271 139.593 115.497 140.302 114.917C140.998 114.337 141.826 114.047 142.786 114.047C145.152 114.047 146.334 115.314 146.334 117.846V125.067H147.523V117.73C147.523 114.502 145.944 112.887 142.786 112.887C141.13 112.887 139.948 113.477 139.239 114.656V103.568H138.05ZM150.095 119.064C150.095 120.837 150.684 122.312 151.864 123.492C153.03 124.671 154.509 125.261 156.301 125.261C157.055 125.261 157.728 125.167 158.321 124.98C159.887 124.484 161.05 123.518 161.811 122.08L160.728 121.587C160.071 122.651 159.33 123.356 158.505 123.704C157.867 123.969 157.161 124.101 156.388 124.101C156.356 124.101 156.327 124.101 156.301 124.101C154.715 124.101 153.468 123.621 152.56 122.66C151.69 121.713 151.255 120.427 151.255 118.803H162.478C162.478 117.05 161.885 115.623 160.699 114.521C159.539 113.412 158.073 112.858 156.301 112.858C154.509 112.858 153.02 113.448 151.835 114.627C150.675 115.794 150.095 117.273 150.095 119.064ZM161.144 117.672H151.429C152.202 115.236 153.826 114.018 156.301 114.018C157.48 114.018 158.524 114.344 159.433 114.995C160.387 115.678 160.957 116.57 161.144 117.672ZM172.609 113.061V125.038H173.798V116.773C173.798 115.942 174.069 115.285 174.61 114.801C175.145 114.299 175.815 114.047 176.621 114.047C177.394 114.047 178.058 114.308 178.612 114.83C179.153 115.314 179.424 115.961 179.424 116.773V125.038H180.613V116.773C180.613 114.956 181.544 114.047 183.407 114.047C183.413 114.047 183.42 114.047 183.426 114.047C184.335 114.047 185.034 114.318 185.524 114.859C186.007 115.394 186.249 116.032 186.249 116.773V125.038H187.438V116.773C187.438 115.555 187.07 114.601 186.336 113.912C185.601 113.229 184.631 112.887 183.426 112.887C181.86 112.887 180.729 113.516 180.033 114.772C179.298 113.516 178.161 112.887 176.621 112.887C175.325 112.887 174.384 113.342 173.798 114.25V113.061H172.609ZM190.357 119.064C190.357 120.798 190.957 122.264 192.155 123.463C193.335 124.649 194.791 125.241 196.525 125.241C198.464 125.241 200.063 124.491 201.319 122.989V125.038H202.508V113.061H201.319V115.159C200.043 113.644 198.445 112.887 196.525 112.887C194.791 112.887 193.325 113.487 192.126 114.685C190.947 115.865 190.357 117.324 190.357 119.064ZM191.517 119.064C191.517 117.679 192.007 116.49 192.987 115.497C193.953 114.531 195.133 114.047 196.525 114.047C197.897 114.047 199.077 114.54 200.063 115.526C201.049 116.512 201.542 117.692 201.542 119.064C201.542 120.45 201.052 121.639 200.072 122.631C199.106 123.592 197.923 124.072 196.525 124.072C195.158 124.072 193.982 123.582 192.996 122.602C192.01 121.623 191.517 120.444 191.517 119.064ZM206.027 113.061V125.038H207.216V117.15C207.216 116.841 207.281 116.503 207.41 116.135C207.538 115.762 207.709 115.426 207.922 115.13C208.135 114.833 208.386 114.585 208.676 114.386C208.959 114.179 209.269 114.076 209.604 114.076C209.991 114.076 210.358 114.144 210.706 114.279C211.054 114.421 211.383 114.605 211.692 114.83L212.33 113.835C211.853 113.487 211.418 113.248 211.025 113.119C210.632 112.984 210.139 112.916 209.546 112.916C209.063 112.916 208.618 113.1 208.212 113.467C207.806 113.835 207.474 114.241 207.216 114.685V113.061H206.027ZM215.037 103.568V125.038H216.226V119.47L216.893 118.803L223.167 125.038H224.723L217.685 117.991L223.109 112.588H221.427L216.226 117.759V103.568H215.037ZM225.342 119.064C225.342 120.837 225.935 122.312 227.12 123.492C228.28 124.671 229.756 125.261 231.548 125.261C232.302 125.261 232.975 125.167 233.568 124.98C235.141 124.484 236.304 123.518 237.058 122.08L235.985 121.587C235.321 122.651 234.58 123.356 233.761 123.704C233.117 123.969 232.408 124.101 231.635 124.101C231.603 124.101 231.574 124.101 231.548 124.101C229.962 124.101 228.715 123.621 227.807 122.66C226.943 121.713 226.511 120.427 226.511 118.803H237.725C237.725 117.05 237.135 115.623 235.956 114.521C234.789 113.412 233.32 112.858 231.548 112.858C229.756 112.858 228.271 113.448 227.091 114.627C225.925 115.794 225.342 117.273 225.342 119.064ZM236.391 117.672H226.676C227.449 115.236 229.073 114.018 231.548 114.018C232.727 114.018 233.771 114.344 234.68 114.995C235.634 115.678 236.204 116.57 236.391 117.672ZM238.092 113.061V114.25H239.716V125.038H240.905V114.25H243.699V113.061H240.905V107.802H239.716V113.061H238.092ZM246.222 109.958C246.241 110.248 246.335 110.48 246.502 110.654C246.741 110.822 246.966 110.912 247.179 110.925C247.811 110.925 248.126 110.603 248.126 109.958C247.978 109.314 247.662 108.991 247.179 108.991C246.541 109.107 246.222 109.43 246.222 109.958ZM246.57 113.061V125.038H247.749V113.061H246.57ZM250.292 113.061V125.038H251.491V117.759C251.491 116.619 251.79 115.716 252.39 115.053C252.957 114.402 253.794 114.076 254.903 114.076C254.916 114.076 254.929 114.076 254.942 114.076C257.223 114.076 258.364 115.343 258.364 117.875V125.038H259.543V117.759C259.543 116.232 259.15 115.043 258.364 114.192C257.571 113.342 256.43 112.916 254.942 112.916C253.182 112.916 252.032 113.451 251.491 114.521V113.061H250.292ZM262.472 119.064C262.472 120.798 263.071 122.264 264.27 123.463C265.45 124.649 266.909 125.241 268.649 125.241C270.583 125.241 272.178 124.491 273.434 122.989V124.758C273.434 126.247 273.019 127.404 272.187 128.229C271.375 129.053 270.225 129.466 268.736 129.466C267.628 129.466 266.677 129.282 265.885 128.915C264.886 128.457 264.277 127.755 264.057 126.808H262.868C263.513 129.379 265.469 130.665 268.736 130.665C270.489 130.665 271.91 130.123 272.999 129.041C274.082 127.958 274.623 126.54 274.623 124.787V113.061H273.434V115.159C272.158 113.644 270.563 112.887 268.649 112.887C266.909 112.887 265.44 113.487 264.241 114.685C263.062 115.865 262.472 117.324 262.472 119.064ZM263.632 119.064C263.632 117.679 264.125 116.49 265.111 115.497C266.071 114.531 267.251 114.047 268.649 114.047C270.015 114.047 271.192 114.54 272.178 115.526C273.164 116.512 273.657 117.692 273.657 119.064C273.657 120.45 273.167 121.639 272.187 122.631C271.227 123.592 270.048 124.072 268.649 124.072C267.283 124.072 266.104 123.582 265.111 122.602C264.125 121.623 263.632 120.444 263.632 119.064ZM284.648 119.064C284.648 120.798 285.247 122.264 286.446 123.463C287.625 124.649 289.085 125.241 290.825 125.241C292.758 125.241 294.353 124.491 295.61 122.989V125.038H296.799V113.061H295.61V115.159C294.334 113.644 292.739 112.887 290.825 112.887C289.085 112.887 287.616 113.487 286.417 114.685C285.238 115.865 284.648 117.324 284.648 119.064ZM285.808 119.064C285.808 117.679 286.301 116.49 287.287 115.497C288.247 114.531 289.427 114.047 290.825 114.047C292.191 114.047 293.367 114.54 294.353 115.526C295.339 116.512 295.832 117.692 295.832 119.064C295.832 120.45 295.343 121.639 294.363 122.631C293.403 123.592 292.224 124.072 290.825 124.072C289.452 124.072 288.273 123.582 287.287 122.602C286.301 121.623 285.808 120.444 285.808 119.064ZM299.429 119.064C299.429 120.798 300.031 122.264 301.236 123.463C302.416 124.649 303.872 125.241 305.606 125.241C307.539 125.241 309.134 124.491 310.391 122.989V124.758C310.391 126.247 309.975 127.404 309.144 128.229C308.332 129.053 307.181 129.466 305.693 129.466C304.591 129.466 303.643 129.282 302.851 128.915C301.845 128.457 301.236 127.755 301.024 126.808H299.825C300.469 129.379 302.425 130.665 305.693 130.665C307.446 130.665 308.867 130.123 309.956 129.041C311.038 127.958 311.58 126.54 311.58 124.787V113.061H310.391V115.159C309.121 113.644 307.526 112.887 305.606 112.887C303.872 112.887 302.406 113.487 301.207 114.685C300.021 115.865 299.429 117.324 299.429 119.064ZM300.598 119.064C300.598 117.679 301.088 116.49 302.068 115.497C303.028 114.531 304.207 114.047 305.606 114.047C306.978 114.047 308.158 114.54 309.144 115.526C310.13 116.512 310.623 117.692 310.623 119.064C310.623 120.45 310.13 121.639 309.144 122.631C308.184 123.592 307.004 124.072 305.606 124.072C304.239 124.072 303.063 123.582 302.077 122.602C301.091 121.623 300.598 120.444 300.598 119.064ZM314.19 119.064C314.19 120.837 314.78 122.312 315.959 123.492C317.119 124.671 318.595 125.261 320.386 125.261C321.147 125.261 321.824 125.167 322.416 124.98C323.982 124.484 325.142 123.518 325.896 122.08L324.823 121.587C324.16 122.651 323.419 123.356 322.6 123.704C321.956 123.969 321.247 124.101 320.473 124.101C320.448 124.101 320.419 124.101 320.386 124.101C318.801 124.101 317.557 123.621 316.655 122.66C315.785 121.713 315.35 120.427 315.35 118.803H326.564C326.564 117.05 325.974 115.623 324.794 114.521C323.634 113.412 322.165 112.858 320.386 112.858C318.595 112.858 317.109 113.448 315.93 114.627C314.77 115.794 314.19 117.273 314.19 119.064ZM325.229 117.672H315.524C316.297 115.236 317.918 114.018 320.386 114.018C321.572 114.018 322.616 114.344 323.518 114.995C324.472 115.678 325.043 116.57 325.229 117.672ZM329.309 113.061V125.038H330.498V117.759C330.498 116.619 330.801 115.716 331.407 115.053C331.974 114.402 332.808 114.076 333.91 114.076C333.93 114.076 333.946 114.076 333.959 114.076C336.24 114.076 337.381 115.343 337.381 117.875V125.038H338.56V117.759C338.56 116.232 338.167 115.043 337.381 114.192C336.588 113.342 335.447 112.916 333.959 112.916C332.199 112.916 331.046 113.451 330.498 114.521V113.061H329.309ZM341.827 119.064C341.827 120.837 342.417 122.312 343.597 123.492C344.776 124.671 346.258 125.261 348.043 125.261C348.063 125.261 348.082 125.261 348.101 125.261C349.435 125.261 350.634 124.91 351.697 124.207V122.718C350.653 123.64 349.435 124.101 348.043 124.101C346.574 124.101 345.366 123.63 344.418 122.689C343.464 121.742 342.988 120.534 342.988 119.064C342.988 117.569 343.464 116.351 344.418 115.41C345.346 114.482 346.555 114.018 348.043 114.018C348.707 114.018 349.403 114.141 350.131 114.386L350.934 114.83L351.697 115.323V113.912C350.795 113.209 349.577 112.858 348.043 112.858C346.271 112.858 344.792 113.448 343.606 114.627C342.42 115.807 341.827 117.286 341.827 119.064ZM353.863 113.061H352.596L357.643 123.936L354.549 130.665H355.873L364.052 113.061H362.747L358.339 122.515L353.863 113.061Z" fill="#3C3C3C"/>
</svg>
