<svg width="81" height="81" viewBox="0 0 81 81" fill="none" xmlns="http://www.w3.org/2000/svg">
<path d="M18.2028 50.8989L22.4045 55.1006L29.58 47.8551C22.6852 39.6368 21.2183 28.7799 24.4233 19.5871L33.9712 29.1349C33.8898 38.7345 41.7055 47.1243 51.9033 47.1243C57.8899 47.1241 63.1997 44.1749 66.4586 39.6538L55.6182 28.8133L48.101 36.331L20.1445 8.37447V14.7134H15.2417L15.2419 0.00512695H29.95V4.90772L23.6112 4.90789L48.101 29.3977L55.6182 21.8798L68.8358 35.0971C71.0034 28.8999 69.6844 21.6123 64.5837 16.5114C58.0487 9.97669 47.7838 9.55799 40.7727 15.1298L32.8461 7.20303C44.2644 -2.72277 61.5898 -2.27106 72.4779 8.61699C77.9734 14.1125 80.9998 21.4194 80.9998 29.1914C80.9998 45.2356 67.9472 58.2887 51.9031 58.2888C44.9078 58.2888 38.2902 55.8358 33.0304 51.3387L25.8711 58.5675L30.0897 62.7863L11.8874 80.9891L0 69.1017L18.2028 50.8989Z" fill="#3360C5"/>
<path d="M41.6931 66.2869H80.915V71.1897H41.6931V66.2869Z" fill="#3360C5"/>
<path d="M26.9847 76.0924H56.4013V80.995H26.9847V76.0924Z" fill="#3360C5"/>
</svg>
