<svg width="81" height="81" viewBox="0 0 81 81" fill="none" xmlns="http://www.w3.org/2000/svg">
<path d="M37.2942 36.7032H13.3308L25.3125 44.0767L37.2942 36.7032Z" fill="#3360C5"/>
<path d="M49.3594 37.9688C49.3594 37.6331 49.4927 37.3112 49.7301 37.0739C49.9674 36.8365 50.2893 36.7032 50.625 36.7032H68.3438V34.1719H48.0938V46.8282H49.3594V37.9688Z" fill="#3360C5"/>
<path d="M51.8906 46.8282V51.8907H70.875V39.2344H51.8906V46.8282ZM68.3438 49.3594H62.0156V46.8282H68.3438V49.3594ZM59.4844 41.7657H68.3438V44.2969H59.4844V41.7657ZM54.4219 41.7657H56.9531V44.2969H54.4219V41.7657ZM54.4219 46.8282H59.4844V49.3594H54.4219V46.8282Z" fill="#3360C5"/>
<path d="M37.9688 67.0782H43.0312V70.8751H37.9688V67.0782Z" fill="#3360C5"/>
<path d="M75.9375 63.2813V62.0157H5.0625V63.2813C5.0625 63.617 5.19584 63.9389 5.43319 64.1762C5.67054 64.4136 5.99246 64.5469 6.32812 64.5469H74.6719C75.0075 64.5469 75.3295 64.4136 75.5668 64.1762C75.8042 63.9389 75.9375 63.617 75.9375 63.2813Z" fill="#3360C5"/>
<path d="M29.1094 73.4063H51.8906V75.9376H29.1094V73.4063Z" fill="#3360C5"/>
<path d="M6.32812 21.5157C5.99246 21.5157 5.67054 21.649 5.43319 21.8864C5.19584 22.1237 5.0625 22.4456 5.0625 22.7813V59.4844H75.9375V22.7813C75.9375 22.4456 75.8042 22.1237 75.5668 21.8864C75.3295 21.649 75.0075 21.5157 74.6719 21.5157H72.1406V24.0469C72.1357 24.3811 72.0008 24.7001 71.7645 24.9364C71.5282 25.1727 71.2091 25.3077 70.875 25.3126C70.7507 25.3153 70.6268 25.2982 70.508 25.2619L54.232 20.2501H52.9917L51.878 28.021C51.8353 28.3229 51.685 28.5993 51.4548 28.7993C51.2246 28.9993 50.9299 29.1094 50.625 29.1094H46.8281C46.4925 29.1094 46.1705 28.9761 45.9332 28.7387C45.6958 28.5014 45.5625 28.1795 45.5625 27.8438V21.5157H36.7031V27.8438C36.7031 28.1795 36.5698 28.5014 36.3324 28.7387C36.0951 28.9761 35.7732 29.1094 35.4375 29.1094H10.125C9.78934 29.1094 9.46742 28.9761 9.23007 28.7387C8.99272 28.5014 8.85938 28.1795 8.85938 27.8438V21.5157H6.32812ZM45.5625 32.9063C45.5625 32.5706 45.6958 32.2487 45.9332 32.0114C46.1705 31.774 46.4925 31.6407 46.8281 31.6407H69.6094C69.945 31.6407 70.267 31.774 70.5043 32.0114C70.7417 32.2487 70.875 32.5706 70.875 32.9063V36.7032H72.1406C72.4763 36.7032 72.7982 36.8365 73.0356 37.0739C73.2729 37.3112 73.4062 37.6331 73.4062 37.9688V53.1563C73.4062 53.492 73.2729 53.8139 73.0356 54.0512C72.7982 54.2886 72.4763 54.4219 72.1406 54.4219H50.625C50.2893 54.4219 49.9674 54.2886 49.7301 54.0512C49.4927 53.8139 49.3594 53.492 49.3594 53.1563V49.3594H46.8281C46.4925 49.3594 46.1705 49.2261 45.9332 48.9887C45.6958 48.7514 45.5625 48.4295 45.5625 48.0938V32.9063ZM41.7656 34.1719C42.1013 34.1719 42.4232 34.3053 42.6606 34.5426C42.8979 34.78 43.0312 35.1019 43.0312 35.4376V55.6876C43.0312 56.0232 42.8979 56.3451 42.6606 56.5825C42.4232 56.8198 42.1013 56.9532 41.7656 56.9532H8.85938C8.52371 56.9532 8.20179 56.8198 7.96444 56.5825C7.72709 56.3451 7.59375 56.0232 7.59375 55.6876V35.4376C7.59375 35.1019 7.72709 34.78 7.96444 34.5426C8.20179 34.3053 8.52371 34.1719 8.85938 34.1719H41.7656Z" fill="#3360C5"/>
<path d="M40.5 37.7018L25.9757 46.6409C25.7762 46.7636 25.5467 46.8286 25.3125 46.8286C25.0783 46.8286 24.8488 46.7636 24.6493 46.6409L10.125 37.7018V54.422H40.5V37.7018Z" fill="#3360C5"/>
<path d="M21.5156 19.4679L25.0138 17.7188L21.5156 15.9697V19.4679Z" fill="#3360C5"/>
<path d="M49.5239 26.5782L50.4352 20.2501H48.0938V26.5782H49.5239Z" fill="#3360C5"/>
<path d="M11.3906 8.85944V26.5782H34.1719V8.85944H11.3906ZM28.4095 18.8579L20.8157 22.6547C20.6223 22.7514 20.4072 22.7969 20.1912 22.7869C19.9751 22.7768 19.7652 22.7116 19.5815 22.5973C19.3979 22.4831 19.2465 22.3237 19.142 22.1343C19.0375 21.945 18.9832 21.732 18.9844 21.5157V13.9219C18.9843 13.7062 19.0393 13.494 19.1443 13.3055C19.2493 13.117 19.4007 12.9585 19.5842 12.845C19.7677 12.7315 19.9772 12.6668 20.1927 12.657C20.4083 12.6473 20.6227 12.6928 20.8157 12.7892L28.4095 16.5861C28.6201 16.691 28.7973 16.8526 28.9211 17.0527C29.045 17.2528 29.1106 17.4835 29.1106 17.7188C29.1106 17.9541 29.045 18.1848 28.9211 18.3849C28.7973 18.585 28.6201 18.7466 28.4095 18.8515V18.8579Z" fill="#3360C5"/>
<path d="M46.8281 11.3907H44.2969V16.4532H46.8281V17.7188H53.1562V10.1251H46.8281V11.3907Z" fill="#3360C5"/>
<path d="M69.6094 11.3907V5.50555L55.6875 9.79602V18.0479L69.6094 22.3384V16.4532C70.2807 16.4532 70.9245 16.1865 71.3992 15.7118C71.8739 15.2371 72.1406 14.5933 72.1406 13.922C72.1406 13.2506 71.8739 12.6068 71.3992 12.1321C70.9245 11.6574 70.2807 11.3907 69.6094 11.3907Z" fill="#3360C5"/>
</svg>
