<svg width="81" height="81" viewBox="0 0 81 81" fill="none" xmlns="http://www.w3.org/2000/svg">
<g clip-path="url(#clip0)">
<path d="M27.931 65.638H53.0689C53.8381 65.638 54.4655 65.012 54.4655 64.2414V57.2587H26.5344V64.2414C26.5344 65.012 27.1618 65.638 27.931 65.638ZM34.9137 60.0518H46.0862V62.8449H34.9137V60.0518Z" fill="#5CE0E6"/>
<path d="M12.569 68.4575C13.0804 68.0695 13.6457 67.7715 14.2362 67.5369C6.93639 60.4525 2.7931 50.7605 2.7931 40.4998C2.7931 33.0745 4.95749 25.9336 9.02303 19.7725L7.59716 16.9221C2.63967 23.8237 0 31.9487 0 40.4998C0 50.3862 3.59912 59.8852 10.1305 67.2859C11.006 67.5192 11.8386 67.9017 12.569 68.4575Z" fill="#5CE0E6"/>
<path d="M14.8287 16.7585L11.1723 24.0706L10.4781 22.6815C7.27583 28.0625 5.58606 34.1704 5.58606 40.4999C5.58606 50.8008 10.0901 60.4846 17.9457 67.1407C20.0514 67.5035 21.8319 68.8121 22.8432 70.6137C28.1812 73.7491 34.274 75.4137 40.4999 75.4137C47.9675 75.4137 55.0239 73.087 61.0124 68.72C60.3448 67.2021 59.9984 65.5389 60.0598 63.8307C60.2691 57.9943 65.1939 53.1663 71.0358 53.0702C71.7102 53.0531 72.3703 53.1063 73.0188 53.2086C74.6022 49.1628 75.4137 44.8934 75.4137 40.4999C75.4137 34.0592 73.6373 27.8068 70.3048 22.3447H68.8203L68.2188 20.5363C67.3542 20.2962 66.5263 19.9525 65.7428 19.51L64.0373 20.3631L60.638 16.9624L61.4911 15.2569C61.0485 14.472 60.7049 13.6456 60.4635 12.7809L58.655 12.1794V10.6936C53.1943 7.35971 46.9391 5.58606 40.4999 5.58606C35.1735 5.58606 29.8846 6.82782 25.1378 9.15586V12.5688C25.1378 14.8784 23.2578 16.7585 20.9481 16.7585H14.8287ZM23.7412 19.5516C23.7412 17.2419 25.6213 15.3619 27.9309 15.3619H53.0688C55.3785 15.3619 57.2585 17.2419 57.2585 19.5516V64.2412C57.2585 66.5509 55.3785 68.4309 53.0688 68.4309H27.9309C25.6213 68.4309 23.7412 66.5509 23.7412 64.2412V19.5516Z" fill="#5CE0E6"/>
<path d="M54.4655 26.5344H26.5344V54.4655H54.4655V26.5344ZM34.9137 48.6951V32.3047L47.2079 40.4999L34.9137 48.6951Z" fill="#5CE0E6"/>
<path d="M1.39655 13.9655H9.24261L11.1724 17.8258L13.1022 13.9655H20.9483C21.7175 13.9655 22.3448 13.3395 22.3448 12.569V1.39655C22.3448 0.625993 21.7175 0 20.9483 0H1.39655C0.627357 0 0 0.625993 0 1.39655V12.569C0 13.3395 0.627357 13.9655 1.39655 13.9655ZM19.5517 11.1724H16.7586V8.37931H19.5517V11.1724ZM2.7931 2.7931H19.5517V5.58621H2.7931V2.7931ZM2.7931 8.37931H13.9655V11.1724H2.7931V8.37931Z" fill="#5CE0E6"/>
<path d="M58.6551 7.45191V7.37213L60.4621 6.76932C60.5794 6.34585 60.7233 5.93262 60.8897 5.52893C54.7157 1.92299 47.7036 0 40.4999 0C35.1735 0 30.0121 1.02627 25.1378 3.02768V6.05536C29.9419 3.91621 35.2069 2.7931 40.4999 2.7931C46.8867 2.7931 53.1104 4.40036 58.6551 7.45191Z" fill="#5CE0E6"/>
<path d="M54.4655 19.5518C54.4655 18.7813 53.8381 18.1553 53.0689 18.1553H27.931C27.1618 18.1553 26.5344 18.7813 26.5344 19.5518V23.7415H54.4655V19.5518Z" fill="#5CE0E6"/>
<path d="M37.7067 37.5228V43.4773L42.1711 40.5L37.7067 37.5228Z" fill="#5CE0E6"/>
<path d="M74.0174 9.77589C74.0174 11.3184 72.7667 12.569 71.2243 12.569C69.6818 12.569 68.4312 11.3184 68.4312 9.77589C68.4312 8.23341 69.6818 6.98279 71.2243 6.98279C72.7667 6.98279 74.0174 8.23341 74.0174 9.77589Z" fill="#5CE0E6"/>
<path d="M22.3448 75.4137H20.9483V74.0172C20.9483 71.7075 19.0682 69.8275 16.7586 69.8275C15.5523 69.8275 14.4374 70.343 13.6205 71.2773L12.569 72.4795L11.5175 71.2773C10.7005 70.343 9.58561 69.8275 8.37931 69.8275C6.06968 69.8275 4.18965 71.7075 4.18965 74.0172V75.4137H2.7931C1.25267 75.4137 0 76.6664 0 78.2068C0 79.7473 1.25267 80.9999 2.7931 80.9999H22.3448C23.8853 80.9999 25.1379 79.7473 25.1379 78.2068C25.1379 76.6664 23.8853 75.4137 22.3448 75.4137Z" fill="#5CE0E6"/>
<path d="M71.2242 55.8619C71.1765 55.8619 71.1294 55.8619 71.0817 55.8633C66.7011 55.9363 63.0085 59.5558 62.8503 63.931C62.7515 66.6948 64.0219 69.329 66.2524 70.9737C67.6169 71.9809 68.4311 73.6318 68.4311 75.3925V75.4137H69.8276V68.4309H72.6208V75.4137H74.0173V75.3966C74.0173 73.6216 74.8192 71.9796 76.1626 70.999C78.3174 69.4251 79.6035 66.8987 79.6035 64.2413C79.6035 61.9773 78.7136 59.8545 77.1009 58.2684C75.5202 56.7123 73.4377 55.8619 71.2242 55.8619ZM72.6208 65.6378H69.8276V62.8447H72.6208V65.6378Z" fill="#5CE0E6"/>
<path d="M74.2294 20.5364L73.628 22.3449H73.5509C76.6024 27.8895 78.207 34.1119 78.207 40.5C78.207 45.1602 77.3594 49.6949 75.7071 53.9991C76.569 54.3803 77.386 54.8679 78.1361 55.4639C80.0311 50.7157 81.0001 45.6969 81.0001 40.5C81.0001 33.295 79.0771 26.2829 75.4712 20.1089C75.0661 20.2753 74.6529 20.4192 74.2294 20.5364Z" fill="#5CE0E6"/>
<path d="M79.5981 8.92007L79.4385 8.12496C79.2251 7.05368 78.8078 6.04991 78.2002 5.13819L77.7501 4.46447L78.4122 3.13951L77.8606 2.58785L76.5384 3.25135L75.8633 2.80129C74.9515 2.19234 73.9464 1.77774 72.8765 1.56294L72.0814 1.40473L71.6136 0H70.8349L70.3671 1.40337L69.572 1.56157C68.502 1.77501 67.4983 2.19098 66.5852 2.79992L65.9101 3.24998L64.5879 2.58648L64.0362 3.13815L64.6983 4.4631L64.2483 5.13683C63.6393 6.04718 63.2234 7.05231 63.0099 8.1236L62.8504 8.9187L61.4484 9.38649V10.1666L62.8504 10.633L63.0099 11.4281C63.2234 12.498 63.6407 13.5018 64.2483 14.4149L64.6983 15.0886L64.0362 16.4122L64.5879 16.9652L65.9101 16.3017L66.5852 16.7518C67.4969 17.3607 68.502 17.7754 69.572 17.9902L70.3671 18.1484L70.8349 19.5517H71.6136L72.0814 18.1484L72.8765 17.9902C73.9464 17.7767 74.9502 17.3607 75.8633 16.7518L76.5384 16.3017L77.8606 16.9652L78.4122 16.4122L77.7501 15.0886L78.2002 14.4149C78.8091 13.5032 79.2251 12.498 79.4385 11.4281L79.5981 10.633L81.0001 10.1652V9.38649L79.5981 8.92007ZM71.2242 15.3621C68.1434 15.3621 65.638 12.8567 65.638 9.77586C65.638 6.69499 68.1434 4.18966 71.2242 4.18966C74.3051 4.18966 76.8104 6.69499 76.8104 9.77586C76.8104 12.8567 74.3051 15.3621 71.2242 15.3621Z" fill="#5CE0E6"/>
<path d="M71.2243 81C72.7647 81 74.0174 79.7473 74.0174 78.2069H68.4312C68.4312 79.7473 69.6838 81 71.2243 81Z" fill="#5CE0E6"/>
<path d="M62.4492 71.1252C56.0256 75.7445 48.4795 78.2069 40.4998 78.2069C35.9958 78.2069 31.5593 77.3886 27.3833 75.8413C27.7243 76.5635 27.9309 77.3579 27.9309 78.2069C27.9309 78.464 27.8893 78.7095 27.8552 78.9583C31.9248 80.2963 36.169 81 40.4998 81C49.126 81 57.5421 78.1932 64.4608 73.111C63.6977 72.53 63.0274 71.861 62.4492 71.1252Z" fill="#5CE0E6"/>
</g>
<defs>
<clipPath id="clip0">
<rect width="81" height="81" fill="white"/>
</clipPath>
</defs>
</svg>
