<svg width="1440" height="1024" viewBox="0 0 1440 1024" fill="none" xmlns="http://www.w3.org/2000/svg">
<rect width="1440" height="1024" fill="white"/>
<circle cx="2" cy="48" r="2" fill="#000FFF"/>
<circle cx="52" cy="48" r="2" fill="#000FFF"/>
<circle cx="102" cy="48" r="2" fill="#000FFF"/>
<circle cx="152" cy="48" r="2" fill="#000FFF"/>
<circle cx="202" cy="48" r="2" fill="#000FFF"/>
<circle cx="252" cy="48" r="2" fill="#000FFF"/>
<circle cx="302" cy="48" r="2" fill="#000FFF"/>
<circle cx="352" cy="48" r="2" fill="#000FFF"/>
<circle cx="402" cy="48" r="2" fill="#000FFF"/>
<circle cx="452" cy="48" r="2" fill="#000FFF"/>
<circle cx="502" cy="48" r="2" fill="#000FFF"/>
<circle cx="552" cy="48" r="2" fill="#000FFF"/>
<circle cx="602" cy="48" r="2" fill="#000FFF"/>
<circle cx="652" cy="48" r="2" fill="#000FFF"/>
<circle cx="702" cy="48" r="2" fill="#000FFF"/>
<circle cx="752" cy="48" r="2" fill="#000FFF"/>
<circle cx="802" cy="48" r="2" fill="#000FFF"/>
<circle cx="852" cy="48" r="2" fill="#000FFF"/>
<circle cx="902" cy="48" r="2" fill="#000FFF"/>
<circle cx="952" cy="48" r="2" fill="#000FFF"/>
<circle cx="1002" cy="48" r="2" fill="#000FFF"/>
<circle cx="1052" cy="48" r="2" fill="#000FFF"/>
<circle cx="1102" cy="48" r="2" fill="#000FFF"/>
<circle cx="1152" cy="48" r="2" fill="#000FFF"/>
<circle cx="1202" cy="48" r="2" fill="#000FFF"/>
<circle cx="1252" cy="48" r="2" fill="#000FFF"/>
<circle cx="1302" cy="48" r="2" fill="#000FFF"/>
<circle cx="1352" cy="48" r="2" fill="#000FFF"/>
<circle cx="1402" cy="48" r="2" fill="#000FFF"/>
<circle cx="2" cy="98" r="2" fill="#000FFF"/>
<circle cx="52" cy="98" r="2" fill="#000FFF"/>
<circle cx="102" cy="98" r="2" fill="#000FFF"/>
<circle cx="152" cy="98" r="2" fill="#000FFF"/>
<circle cx="202" cy="98" r="2" fill="#000FFF"/>
<circle cx="252" cy="98" r="2" fill="#000FFF"/>
<circle cx="302" cy="98" r="2" fill="#000FFF"/>
<circle cx="352" cy="98" r="2" fill="#000FFF"/>
<circle cx="402" cy="98" r="2" fill="#000FFF"/>
<circle cx="452" cy="98" r="2" fill="#000FFF"/>
<circle cx="502" cy="98" r="2" fill="#000FFF"/>
<circle cx="552" cy="98" r="2" fill="#000FFF"/>
<circle cx="602" cy="98" r="2" fill="#000FFF"/>
<circle cx="652" cy="98" r="2" fill="#000FFF"/>
<circle cx="702" cy="98" r="2" fill="#000FFF"/>
<circle cx="752" cy="98" r="2" fill="#000FFF"/>
<circle cx="802" cy="98" r="2" fill="#000FFF"/>
<circle cx="852" cy="98" r="2" fill="#000FFF"/>
<circle cx="902" cy="98" r="2" fill="#000FFF"/>
<circle cx="952" cy="98" r="2" fill="#000FFF"/>
<circle cx="1002" cy="98" r="2" fill="#000FFF"/>
<circle cx="1052" cy="98" r="2" fill="#000FFF"/>
<circle cx="1102" cy="98" r="2" fill="#000FFF"/>
<circle cx="1152" cy="98" r="2" fill="#000FFF"/>
<circle cx="1202" cy="98" r="2" fill="#000FFF"/>
<circle cx="1252" cy="98" r="2" fill="#000FFF"/>
<circle cx="1302" cy="98" r="2" fill="#000FFF"/>
<circle cx="1352" cy="98" r="2" fill="#000FFF"/>
<circle cx="1402" cy="98" r="2" fill="#000FFF"/>
<circle cx="2" cy="148" r="2" fill="#000FFF"/>
<circle cx="52" cy="148" r="2" fill="#000FFF"/>
<circle cx="102" cy="148" r="2" fill="#000FFF"/>
<circle cx="152" cy="148" r="2" fill="#000FFF"/>
<circle cx="202" cy="148" r="2" fill="#000FFF"/>
<circle cx="252" cy="148" r="2" fill="#000FFF"/>
<circle cx="302" cy="148" r="2" fill="#000FFF"/>
<circle cx="352" cy="148" r="2" fill="#000FFF"/>
<circle cx="402" cy="148" r="2" fill="#000FFF"/>
<circle cx="452" cy="148" r="2" fill="#000FFF"/>
<circle cx="502" cy="148" r="2" fill="#000FFF"/>
<circle cx="552" cy="148" r="2" fill="#000FFF"/>
<circle cx="602" cy="148" r="2" fill="#000FFF"/>
<circle cx="652" cy="148" r="2" fill="#000FFF"/>
<circle cx="702" cy="148" r="2" fill="#000FFF"/>
<circle cx="752" cy="148" r="2" fill="#000FFF"/>
<circle cx="802" cy="148" r="2" fill="#000FFF"/>
<circle cx="852" cy="148" r="2" fill="#000FFF"/>
<circle cx="902" cy="148" r="2" fill="#000FFF"/>
<circle cx="952" cy="148" r="2" fill="#000FFF"/>
<circle cx="1002" cy="148" r="2" fill="#000FFF"/>
<circle cx="1052" cy="148" r="2" fill="#000FFF"/>
<circle cx="1102" cy="148" r="2" fill="#000FFF"/>
<circle cx="1152" cy="148" r="2" fill="#000FFF"/>
<circle cx="1202" cy="148" r="2" fill="#000FFF"/>
<circle cx="1252" cy="148" r="2" fill="#000FFF"/>
<circle cx="1302" cy="148" r="2" fill="#000FFF"/>
<circle cx="1352" cy="148" r="2" fill="#000FFF"/>
<circle cx="1402" cy="148" r="2" fill="#000FFF"/>
<circle cx="2" cy="198" r="2" fill="#000FFF"/>
<circle cx="52" cy="198" r="2" fill="#000FFF"/>
<circle cx="102" cy="198" r="2" fill="#000FFF"/>
<circle cx="152" cy="198" r="2" fill="#000FFF"/>
<circle cx="202" cy="198" r="2" fill="#000FFF"/>
<circle cx="252" cy="198" r="2" fill="#000FFF"/>
<circle cx="302" cy="198" r="2" fill="#000FFF"/>
<circle cx="352" cy="198" r="2" fill="#000FFF"/>
<circle cx="402" cy="198" r="2" fill="#000FFF"/>
<circle cx="452" cy="198" r="2" fill="#000FFF"/>
<circle cx="502" cy="198" r="2" fill="#000FFF"/>
<circle cx="552" cy="198" r="2" fill="#000FFF"/>
<circle cx="602" cy="198" r="2" fill="#000FFF"/>
<circle cx="652" cy="198" r="2" fill="#000FFF"/>
<circle cx="702" cy="198" r="2" fill="#000FFF"/>
<circle cx="752" cy="198" r="2" fill="#000FFF"/>
<circle cx="802" cy="198" r="2" fill="#000FFF"/>
<circle cx="852" cy="198" r="2" fill="#000FFF"/>
<circle cx="902" cy="198" r="2" fill="#000FFF"/>
<circle cx="952" cy="198" r="2" fill="#000FFF"/>
<circle cx="1002" cy="198" r="2" fill="#000FFF"/>
<circle cx="1052" cy="198" r="2" fill="#000FFF"/>
<circle cx="1102" cy="198" r="2" fill="#000FFF"/>
<circle cx="1152" cy="198" r="2" fill="#000FFF"/>
<circle cx="1202" cy="198" r="2" fill="#000FFF"/>
<circle cx="1252" cy="198" r="2" fill="#000FFF"/>
<circle cx="1302" cy="198" r="2" fill="#000FFF"/>
<circle cx="1352" cy="198" r="2" fill="#000FFF"/>
<circle cx="1402" cy="198" r="2" fill="#000FFF"/>
<circle cx="2" cy="248" r="2" fill="#000FFF"/>
<circle cx="52" cy="248" r="2" fill="#000FFF"/>
<circle cx="102" cy="248" r="2" fill="#000FFF"/>
<circle cx="152" cy="248" r="2" fill="#000FFF"/>
<circle cx="202" cy="248" r="2" fill="#000FFF"/>
<circle cx="252" cy="248" r="2" fill="#000FFF"/>
<circle cx="302" cy="248" r="2" fill="#000FFF"/>
<circle cx="352" cy="248" r="2" fill="#000FFF"/>
<circle cx="402" cy="248" r="2" fill="#000FFF"/>
<circle cx="452" cy="248" r="2" fill="#000FFF"/>
<circle cx="502" cy="248" r="2" fill="#000FFF"/>
<circle cx="552" cy="248" r="2" fill="#000FFF"/>
<circle cx="602" cy="248" r="2" fill="#000FFF"/>
<circle cx="652" cy="248" r="2" fill="#000FFF"/>
<circle cx="702" cy="248" r="2" fill="#000FFF"/>
<circle cx="752" cy="248" r="2" fill="#000FFF"/>
<circle cx="802" cy="248" r="2" fill="#000FFF"/>
<circle cx="852" cy="248" r="2" fill="#000FFF"/>
<circle cx="902" cy="248" r="2" fill="#000FFF"/>
<circle cx="952" cy="248" r="2" fill="#000FFF"/>
<circle cx="1002" cy="248" r="2" fill="#000FFF"/>
<circle cx="1052" cy="248" r="2" fill="#000FFF"/>
<circle cx="1102" cy="248" r="2" fill="#000FFF"/>
<circle cx="1152" cy="248" r="2" fill="#000FFF"/>
<circle cx="1202" cy="248" r="2" fill="#000FFF"/>
<circle cx="1252" cy="248" r="2" fill="#000FFF"/>
<circle cx="1302" cy="248" r="2" fill="#000FFF"/>
<circle cx="1352" cy="248" r="2" fill="#000FFF"/>
<circle cx="1402" cy="248" r="2" fill="#000FFF"/>
<circle cx="2" cy="298" r="2" fill="#000FFF"/>
<circle cx="52" cy="298" r="2" fill="#000FFF"/>
<circle cx="102" cy="298" r="2" fill="#000FFF"/>
<circle cx="152" cy="298" r="2" fill="#000FFF"/>
<circle cx="202" cy="298" r="2" fill="#000FFF"/>
<circle cx="252" cy="298" r="2" fill="#000FFF"/>
<circle cx="302" cy="298" r="2" fill="#000FFF"/>
<circle cx="352" cy="298" r="2" fill="#000FFF"/>
<circle cx="402" cy="298" r="2" fill="#000FFF"/>
<circle cx="452" cy="298" r="2" fill="#000FFF"/>
<circle cx="502" cy="298" r="2" fill="#000FFF"/>
<circle cx="552" cy="298" r="2" fill="#000FFF"/>
<circle cx="602" cy="298" r="2" fill="#000FFF"/>
<circle cx="652" cy="298" r="2" fill="#000FFF"/>
<circle cx="702" cy="298" r="2" fill="#000FFF"/>
<circle cx="752" cy="298" r="2" fill="#000FFF"/>
<circle cx="802" cy="298" r="2" fill="#000FFF"/>
<circle cx="852" cy="298" r="2" fill="#000FFF"/>
<circle cx="902" cy="298" r="2" fill="#000FFF"/>
<circle cx="952" cy="298" r="2" fill="#000FFF"/>
<circle cx="1002" cy="298" r="2" fill="#000FFF"/>
<circle cx="1052" cy="298" r="2" fill="#000FFF"/>
<circle cx="1102" cy="298" r="2" fill="#000FFF"/>
<circle cx="1152" cy="298" r="2" fill="#000FFF"/>
<circle cx="1202" cy="298" r="2" fill="#000FFF"/>
<circle cx="1252" cy="298" r="2" fill="#000FFF"/>
<circle cx="1302" cy="298" r="2" fill="#000FFF"/>
<circle cx="1352" cy="298" r="2" fill="#000FFF"/>
<circle cx="1402" cy="298" r="2" fill="#000FFF"/>
<circle cx="2" cy="348" r="2" fill="#000FFF"/>
<circle cx="52" cy="348" r="2" fill="#000FFF"/>
<circle cx="102" cy="348" r="2" fill="#000FFF"/>
<circle cx="152" cy="348" r="2" fill="#000FFF"/>
<circle cx="202" cy="348" r="2" fill="#000FFF"/>
<circle cx="252" cy="348" r="2" fill="#000FFF"/>
<circle cx="302" cy="348" r="2" fill="#000FFF"/>
<circle cx="352" cy="348" r="2" fill="#000FFF"/>
<circle cx="402" cy="348" r="2" fill="#000FFF"/>
<circle cx="452" cy="348" r="2" fill="#000FFF"/>
<circle cx="502" cy="348" r="2" fill="#000FFF"/>
<circle cx="552" cy="348" r="2" fill="#000FFF"/>
<circle cx="602" cy="348" r="2" fill="#000FFF"/>
<circle cx="652" cy="348" r="2" fill="#000FFF"/>
<circle cx="702" cy="348" r="2" fill="#000FFF"/>
<circle cx="752" cy="348" r="2" fill="#000FFF"/>
<circle cx="802" cy="348" r="2" fill="#000FFF"/>
<circle cx="852" cy="348" r="2" fill="#000FFF"/>
<circle cx="902" cy="348" r="2" fill="#000FFF"/>
<circle cx="952" cy="348" r="2" fill="#000FFF"/>
<circle cx="1002" cy="348" r="2" fill="#000FFF"/>
<circle cx="1052" cy="348" r="2" fill="#000FFF"/>
<circle cx="1102" cy="348" r="2" fill="#000FFF"/>
<circle cx="1152" cy="348" r="2" fill="#000FFF"/>
<circle cx="1202" cy="348" r="2" fill="#000FFF"/>
<circle cx="1252" cy="348" r="2" fill="#000FFF"/>
<circle cx="1302" cy="348" r="2" fill="#000FFF"/>
<circle cx="1352" cy="348" r="2" fill="#000FFF"/>
<circle cx="1402" cy="348" r="2" fill="#000FFF"/>
<circle cx="2" cy="398" r="2" fill="#000FFF"/>
<circle cx="52" cy="398" r="2" fill="#000FFF"/>
<circle cx="102" cy="398" r="2" fill="#000FFF"/>
<circle cx="152" cy="398" r="2" fill="#000FFF"/>
<circle cx="202" cy="398" r="2" fill="#000FFF"/>
<circle cx="252" cy="398" r="2" fill="#000FFF"/>
<circle cx="302" cy="398" r="2" fill="#000FFF"/>
<circle cx="352" cy="398" r="2" fill="#000FFF"/>
<circle cx="402" cy="398" r="2" fill="#000FFF"/>
<circle cx="452" cy="398" r="2" fill="#000FFF"/>
<circle cx="502" cy="398" r="2" fill="#000FFF"/>
<circle cx="552" cy="398" r="2" fill="#000FFF"/>
<circle cx="602" cy="398" r="2" fill="#000FFF"/>
<circle cx="652" cy="398" r="2" fill="#000FFF"/>
<circle cx="702" cy="398" r="2" fill="#000FFF"/>
<circle cx="752" cy="398" r="2" fill="#000FFF"/>
<circle cx="802" cy="398" r="2" fill="#000FFF"/>
<circle cx="852" cy="398" r="2" fill="#000FFF"/>
<circle cx="902" cy="398" r="2" fill="#000FFF"/>
<circle cx="952" cy="398" r="2" fill="#000FFF"/>
<circle cx="1002" cy="398" r="2" fill="#000FFF"/>
<circle cx="1052" cy="398" r="2" fill="#000FFF"/>
<circle cx="1102" cy="398" r="2" fill="#000FFF"/>
<circle cx="1152" cy="398" r="2" fill="#000FFF"/>
<circle cx="1202" cy="398" r="2" fill="#000FFF"/>
<circle cx="1252" cy="398" r="2" fill="#000FFF"/>
<circle cx="1302" cy="398" r="2" fill="#000FFF"/>
<circle cx="1352" cy="398" r="2" fill="#000FFF"/>
<circle cx="1402" cy="398" r="2" fill="#000FFF"/>
<circle cx="2" cy="448" r="2" fill="#000FFF"/>
<circle cx="52" cy="448" r="2" fill="#000FFF"/>
<circle cx="102" cy="448" r="2" fill="#000FFF"/>
<circle cx="152" cy="448" r="2" fill="#000FFF"/>
<circle cx="202" cy="448" r="2" fill="#000FFF"/>
<circle cx="252" cy="448" r="2" fill="#000FFF"/>
<circle cx="302" cy="448" r="2" fill="#000FFF"/>
<circle cx="352" cy="448" r="2" fill="#000FFF"/>
<circle cx="402" cy="448" r="2" fill="#000FFF"/>
<circle cx="452" cy="448" r="2" fill="#000FFF"/>
<circle cx="502" cy="448" r="2" fill="#000FFF"/>
<circle cx="552" cy="448" r="2" fill="#000FFF"/>
<circle cx="602" cy="448" r="2" fill="#000FFF"/>
<circle cx="652" cy="448" r="2" fill="#000FFF"/>
<circle cx="702" cy="448" r="2" fill="#000FFF"/>
<circle cx="752" cy="448" r="2" fill="#000FFF"/>
<circle cx="802" cy="448" r="2" fill="#000FFF"/>
<circle cx="852" cy="448" r="2" fill="#000FFF"/>
<circle cx="902" cy="448" r="2" fill="#000FFF"/>
<circle cx="952" cy="448" r="2" fill="#000FFF"/>
<circle cx="1002" cy="448" r="2" fill="#000FFF"/>
<circle cx="1052" cy="448" r="2" fill="#000FFF"/>
<circle cx="1102" cy="448" r="2" fill="#000FFF"/>
<circle cx="1152" cy="448" r="2" fill="#000FFF"/>
<circle cx="1202" cy="448" r="2" fill="#000FFF"/>
<circle cx="1252" cy="448" r="2" fill="#000FFF"/>
<circle cx="1302" cy="448" r="2" fill="#000FFF"/>
<circle cx="1352" cy="448" r="2" fill="#000FFF"/>
<circle cx="1402" cy="448" r="2" fill="#000FFF"/>
<circle cx="2" cy="498" r="2" fill="#000FFF"/>
<circle cx="52" cy="498" r="2" fill="#000FFF"/>
<circle cx="102" cy="498" r="2" fill="#000FFF"/>
<circle cx="152" cy="498" r="2" fill="#000FFF"/>
<circle cx="202" cy="498" r="2" fill="#000FFF"/>
<circle cx="252" cy="498" r="2" fill="#000FFF"/>
<circle cx="302" cy="498" r="2" fill="#000FFF"/>
<circle cx="352" cy="498" r="2" fill="#000FFF"/>
<circle cx="402" cy="498" r="2" fill="#000FFF"/>
<circle cx="452" cy="498" r="2" fill="#000FFF"/>
<circle cx="502" cy="498" r="2" fill="#000FFF"/>
<circle cx="552" cy="498" r="2" fill="#000FFF"/>
<circle cx="602" cy="498" r="2" fill="#000FFF"/>
<circle cx="652" cy="498" r="2" fill="#000FFF"/>
<circle cx="702" cy="498" r="2" fill="#000FFF"/>
<circle cx="752" cy="498" r="2" fill="#000FFF"/>
<circle cx="802" cy="498" r="2" fill="#000FFF"/>
<circle cx="852" cy="498" r="2" fill="#000FFF"/>
<circle cx="902" cy="498" r="2" fill="#000FFF"/>
<circle cx="952" cy="498" r="2" fill="#000FFF"/>
<circle cx="1002" cy="498" r="2" fill="#000FFF"/>
<circle cx="1052" cy="498" r="2" fill="#000FFF"/>
<circle cx="1102" cy="498" r="2" fill="#000FFF"/>
<circle cx="1152" cy="498" r="2" fill="#000FFF"/>
<circle cx="1202" cy="498" r="2" fill="#000FFF"/>
<circle cx="1252" cy="498" r="2" fill="#000FFF"/>
<circle cx="1302" cy="498" r="2" fill="#000FFF"/>
<circle cx="1352" cy="498" r="2" fill="#000FFF"/>
<circle cx="1402" cy="498" r="2" fill="#000FFF"/>
<circle cx="2" cy="548" r="2" fill="#000FFF"/>
<circle cx="52" cy="548" r="2" fill="#000FFF"/>
<circle cx="102" cy="548" r="2" fill="#000FFF"/>
<circle cx="152" cy="548" r="2" fill="#000FFF"/>
<circle cx="202" cy="548" r="2" fill="#000FFF"/>
<circle cx="252" cy="548" r="2" fill="#000FFF"/>
<circle cx="302" cy="548" r="2" fill="#000FFF"/>
<circle cx="352" cy="548" r="2" fill="#000FFF"/>
<circle cx="402" cy="548" r="2" fill="#000FFF"/>
<circle cx="452" cy="548" r="2" fill="#000FFF"/>
<circle cx="502" cy="548" r="2" fill="#000FFF"/>
<circle cx="552" cy="548" r="2" fill="#000FFF"/>
<circle cx="602" cy="548" r="2" fill="#000FFF"/>
<circle cx="652" cy="548" r="2" fill="#000FFF"/>
<circle cx="702" cy="548" r="2" fill="#000FFF"/>
<circle cx="752" cy="548" r="2" fill="#000FFF"/>
<circle cx="802" cy="548" r="2" fill="#000FFF"/>
<circle cx="852" cy="548" r="2" fill="#000FFF"/>
<circle cx="902" cy="548" r="2" fill="#000FFF"/>
<circle cx="952" cy="548" r="2" fill="#000FFF"/>
<circle cx="1002" cy="548" r="2" fill="#000FFF"/>
<circle cx="1052" cy="548" r="2" fill="#000FFF"/>
<circle cx="1102" cy="548" r="2" fill="#000FFF"/>
<circle cx="1152" cy="548" r="2" fill="#000FFF"/>
<circle cx="1202" cy="548" r="2" fill="#000FFF"/>
<circle cx="1252" cy="548" r="2" fill="#000FFF"/>
<circle cx="1302" cy="548" r="2" fill="#000FFF"/>
<circle cx="1352" cy="548" r="2" fill="#000FFF"/>
<circle cx="1402" cy="548" r="2" fill="#000FFF"/>
<circle cx="2" cy="598" r="2" fill="#000FFF"/>
<circle cx="52" cy="598" r="2" fill="#000FFF"/>
<circle cx="102" cy="598" r="2" fill="#000FFF"/>
<circle cx="152" cy="598" r="2" fill="#000FFF"/>
<circle cx="202" cy="598" r="2" fill="#000FFF"/>
<circle cx="252" cy="598" r="2" fill="#000FFF"/>
<circle cx="302" cy="598" r="2" fill="#000FFF"/>
<circle cx="352" cy="598" r="2" fill="#000FFF"/>
<circle cx="402" cy="598" r="2" fill="#000FFF"/>
<circle cx="452" cy="598" r="2" fill="#000FFF"/>
<circle cx="502" cy="598" r="2" fill="#000FFF"/>
<circle cx="552" cy="598" r="2" fill="#000FFF"/>
<circle cx="602" cy="598" r="2" fill="#000FFF"/>
<circle cx="652" cy="598" r="2" fill="#000FFF"/>
<circle cx="702" cy="598" r="2" fill="#000FFF"/>
<circle cx="752" cy="598" r="2" fill="#000FFF"/>
<circle cx="802" cy="598" r="2" fill="#000FFF"/>
<circle cx="852" cy="598" r="2" fill="#000FFF"/>
<circle cx="902" cy="598" r="2" fill="#000FFF"/>
<circle cx="952" cy="598" r="2" fill="#000FFF"/>
<circle cx="1002" cy="598" r="2" fill="#000FFF"/>
<circle cx="1052" cy="598" r="2" fill="#000FFF"/>
<circle cx="1102" cy="598" r="2" fill="#000FFF"/>
<circle cx="1152" cy="598" r="2" fill="#000FFF"/>
<circle cx="1202" cy="598" r="2" fill="#000FFF"/>
<circle cx="1252" cy="598" r="2" fill="#000FFF"/>
<circle cx="1302" cy="598" r="2" fill="#000FFF"/>
<circle cx="1352" cy="598" r="2" fill="#000FFF"/>
<circle cx="1402" cy="598" r="2" fill="#000FFF"/>
<circle cx="2" cy="648" r="2" fill="#000FFF"/>
<circle cx="52" cy="648" r="2" fill="#000FFF"/>
<circle cx="102" cy="648" r="2" fill="#000FFF"/>
<circle cx="152" cy="648" r="2" fill="#000FFF"/>
<circle cx="202" cy="648" r="2" fill="#000FFF"/>
<circle cx="252" cy="648" r="2" fill="#000FFF"/>
<circle cx="302" cy="648" r="2" fill="#000FFF"/>
<circle cx="352" cy="648" r="2" fill="#000FFF"/>
<circle cx="402" cy="648" r="2" fill="#000FFF"/>
<circle cx="452" cy="648" r="2" fill="#000FFF"/>
<circle cx="502" cy="648" r="2" fill="#000FFF"/>
<circle cx="552" cy="648" r="2" fill="#000FFF"/>
<circle cx="602" cy="648" r="2" fill="#000FFF"/>
<circle cx="652" cy="648" r="2" fill="#000FFF"/>
<circle cx="702" cy="648" r="2" fill="#000FFF"/>
<circle cx="752" cy="648" r="2" fill="#000FFF"/>
<circle cx="802" cy="648" r="2" fill="#000FFF"/>
<circle cx="852" cy="648" r="2" fill="#000FFF"/>
<circle cx="902" cy="648" r="2" fill="#000FFF"/>
<circle cx="952" cy="648" r="2" fill="#000FFF"/>
<circle cx="1002" cy="648" r="2" fill="#000FFF"/>
<circle cx="1052" cy="648" r="2" fill="#000FFF"/>
<circle cx="1102" cy="648" r="2" fill="#000FFF"/>
<circle cx="1152" cy="648" r="2" fill="#000FFF"/>
<circle cx="1202" cy="648" r="2" fill="#000FFF"/>
<circle cx="1252" cy="648" r="2" fill="#000FFF"/>
<circle cx="1302" cy="648" r="2" fill="#000FFF"/>
<circle cx="1352" cy="648" r="2" fill="#000FFF"/>
<circle cx="1402" cy="648" r="2" fill="#000FFF"/>
<circle cx="2" cy="698" r="2" fill="#000FFF"/>
<circle cx="52" cy="698" r="2" fill="#000FFF"/>
<circle cx="102" cy="698" r="2" fill="#000FFF"/>
<circle cx="152" cy="698" r="2" fill="#000FFF"/>
<circle cx="202" cy="698" r="2" fill="#000FFF"/>
<circle cx="252" cy="698" r="2" fill="#000FFF"/>
<circle cx="302" cy="698" r="2" fill="#000FFF"/>
<circle cx="352" cy="698" r="2" fill="#000FFF"/>
<circle cx="402" cy="698" r="2" fill="#000FFF"/>
<circle cx="452" cy="698" r="2" fill="#000FFF"/>
<circle cx="502" cy="698" r="2" fill="#000FFF"/>
<circle cx="552" cy="698" r="2" fill="#000FFF"/>
<circle cx="602" cy="698" r="2" fill="#000FFF"/>
<circle cx="652" cy="698" r="2" fill="#000FFF"/>
<circle cx="702" cy="698" r="2" fill="#000FFF"/>
<circle cx="752" cy="698" r="2" fill="#000FFF"/>
<circle cx="802" cy="698" r="2" fill="#000FFF"/>
<circle cx="852" cy="698" r="2" fill="#000FFF"/>
<circle cx="902" cy="698" r="2" fill="#000FFF"/>
<circle cx="952" cy="698" r="2" fill="#000FFF"/>
<circle cx="1002" cy="698" r="2" fill="#000FFF"/>
<circle cx="1052" cy="698" r="2" fill="#000FFF"/>
<circle cx="1102" cy="698" r="2" fill="#000FFF"/>
<circle cx="1152" cy="698" r="2" fill="#000FFF"/>
<circle cx="1202" cy="698" r="2" fill="#000FFF"/>
<circle cx="1252" cy="698" r="2" fill="#000FFF"/>
<circle cx="1302" cy="698" r="2" fill="#000FFF"/>
<circle cx="1352" cy="698" r="2" fill="#000FFF"/>
<circle cx="1402" cy="698" r="2" fill="#000FFF"/>
<circle cx="2" cy="748" r="2" fill="#000FFF"/>
<circle cx="52" cy="748" r="2" fill="#000FFF"/>
<circle cx="102" cy="748" r="2" fill="#000FFF"/>
<circle cx="152" cy="748" r="2" fill="#000FFF"/>
<circle cx="202" cy="748" r="2" fill="#000FFF"/>
<circle cx="252" cy="748" r="2" fill="#000FFF"/>
<circle cx="302" cy="748" r="2" fill="#000FFF"/>
<circle cx="352" cy="748" r="2" fill="#000FFF"/>
<circle cx="402" cy="748" r="2" fill="#000FFF"/>
<circle cx="452" cy="748" r="2" fill="#000FFF"/>
<circle cx="502" cy="748" r="2" fill="#000FFF"/>
<circle cx="552" cy="748" r="2" fill="#000FFF"/>
<circle cx="602" cy="748" r="2" fill="#000FFF"/>
<circle cx="652" cy="748" r="2" fill="#000FFF"/>
<circle cx="702" cy="748" r="2" fill="#000FFF"/>
<circle cx="752" cy="748" r="2" fill="#000FFF"/>
<circle cx="802" cy="748" r="2" fill="#000FFF"/>
<circle cx="852" cy="748" r="2" fill="#000FFF"/>
<circle cx="902" cy="748" r="2" fill="#000FFF"/>
<circle cx="952" cy="748" r="2" fill="#000FFF"/>
<circle cx="1002" cy="748" r="2" fill="#000FFF"/>
<circle cx="1052" cy="748" r="2" fill="#000FFF"/>
<circle cx="1102" cy="748" r="2" fill="#000FFF"/>
<circle cx="1152" cy="748" r="2" fill="#000FFF"/>
<circle cx="1202" cy="748" r="2" fill="#000FFF"/>
<circle cx="1252" cy="748" r="2" fill="#000FFF"/>
<circle cx="1302" cy="748" r="2" fill="#000FFF"/>
<circle cx="1352" cy="748" r="2" fill="#000FFF"/>
<circle cx="1402" cy="748" r="2" fill="#000FFF"/>
<circle cx="2" cy="798" r="2" fill="#000FFF"/>
<circle cx="52" cy="798" r="2" fill="#000FFF"/>
<circle cx="102" cy="798" r="2" fill="#000FFF"/>
<circle cx="152" cy="798" r="2" fill="#000FFF"/>
<circle cx="202" cy="798" r="2" fill="#000FFF"/>
<circle cx="252" cy="798" r="2" fill="#000FFF"/>
<circle cx="302" cy="798" r="2" fill="#000FFF"/>
<circle cx="352" cy="798" r="2" fill="#000FFF"/>
<circle cx="402" cy="798" r="2" fill="#000FFF"/>
<circle cx="452" cy="798" r="2" fill="#000FFF"/>
<circle cx="502" cy="798" r="2" fill="#000FFF"/>
<circle cx="552" cy="798" r="2" fill="#000FFF"/>
<circle cx="602" cy="798" r="2" fill="#000FFF"/>
<circle cx="652" cy="798" r="2" fill="#000FFF"/>
<circle cx="702" cy="798" r="2" fill="#000FFF"/>
<circle cx="752" cy="798" r="2" fill="#000FFF"/>
<circle cx="802" cy="798" r="2" fill="#000FFF"/>
<circle cx="852" cy="798" r="2" fill="#000FFF"/>
<circle cx="902" cy="798" r="2" fill="#000FFF"/>
<circle cx="952" cy="798" r="2" fill="#000FFF"/>
<circle cx="1002" cy="798" r="2" fill="#000FFF"/>
<circle cx="1052" cy="798" r="2" fill="#000FFF"/>
<circle cx="1102" cy="798" r="2" fill="#000FFF"/>
<circle cx="1152" cy="798" r="2" fill="#000FFF"/>
<circle cx="1202" cy="798" r="2" fill="#000FFF"/>
<circle cx="1252" cy="798" r="2" fill="#000FFF"/>
<circle cx="1302" cy="798" r="2" fill="#000FFF"/>
<circle cx="1352" cy="798" r="2" fill="#000FFF"/>
<circle cx="1402" cy="798" r="2" fill="#000FFF"/>
<circle cx="2" cy="848" r="2" fill="#000FFF"/>
<circle cx="52" cy="848" r="2" fill="#000FFF"/>
<circle cx="102" cy="848" r="2" fill="#000FFF"/>
<circle cx="152" cy="848" r="2" fill="#000FFF"/>
<circle cx="202" cy="848" r="2" fill="#000FFF"/>
<circle cx="252" cy="848" r="2" fill="#000FFF"/>
<circle cx="302" cy="848" r="2" fill="#000FFF"/>
<circle cx="352" cy="848" r="2" fill="#000FFF"/>
<circle cx="402" cy="848" r="2" fill="#000FFF"/>
<circle cx="452" cy="848" r="2" fill="#000FFF"/>
<circle cx="502" cy="848" r="2" fill="#000FFF"/>
<circle cx="552" cy="848" r="2" fill="#000FFF"/>
<circle cx="602" cy="848" r="2" fill="#000FFF"/>
<circle cx="652" cy="848" r="2" fill="#000FFF"/>
<circle cx="702" cy="848" r="2" fill="#000FFF"/>
<circle cx="752" cy="848" r="2" fill="#000FFF"/>
<circle cx="802" cy="848" r="2" fill="#000FFF"/>
<circle cx="852" cy="848" r="2" fill="#000FFF"/>
<circle cx="902" cy="848" r="2" fill="#000FFF"/>
<circle cx="952" cy="848" r="2" fill="#000FFF"/>
<circle cx="1002" cy="848" r="2" fill="#000FFF"/>
<circle cx="1052" cy="848" r="2" fill="#000FFF"/>
<circle cx="1102" cy="848" r="2" fill="#000FFF"/>
<circle cx="1152" cy="848" r="2" fill="#000FFF"/>
<circle cx="1202" cy="848" r="2" fill="#000FFF"/>
<circle cx="1252" cy="848" r="2" fill="#000FFF"/>
<circle cx="1302" cy="848" r="2" fill="#000FFF"/>
<circle cx="1352" cy="848" r="2" fill="#000FFF"/>
<circle cx="1402" cy="848" r="2" fill="#000FFF"/>
<circle cx="2" cy="898" r="2" fill="#000FFF"/>
<circle cx="52" cy="898" r="2" fill="#000FFF"/>
<circle cx="102" cy="898" r="2" fill="#000FFF"/>
<circle cx="152" cy="898" r="2" fill="#000FFF"/>
<circle cx="202" cy="898" r="2" fill="#000FFF"/>
<circle cx="252" cy="898" r="2" fill="#000FFF"/>
<circle cx="302" cy="898" r="2" fill="#000FFF"/>
<circle cx="352" cy="898" r="2" fill="#000FFF"/>
<circle cx="402" cy="898" r="2" fill="#000FFF"/>
<circle cx="452" cy="898" r="2" fill="#000FFF"/>
<circle cx="502" cy="898" r="2" fill="#000FFF"/>
<circle cx="552" cy="898" r="2" fill="#000FFF"/>
<circle cx="602" cy="898" r="2" fill="#000FFF"/>
<circle cx="652" cy="898" r="2" fill="#000FFF"/>
<circle cx="702" cy="898" r="2" fill="#000FFF"/>
<circle cx="752" cy="898" r="2" fill="#000FFF"/>
<circle cx="802" cy="898" r="2" fill="#000FFF"/>
<circle cx="852" cy="898" r="2" fill="#000FFF"/>
<circle cx="902" cy="898" r="2" fill="#000FFF"/>
<circle cx="952" cy="898" r="2" fill="#000FFF"/>
<circle cx="1002" cy="898" r="2" fill="#000FFF"/>
<circle cx="1052" cy="898" r="2" fill="#000FFF"/>
<circle cx="1102" cy="898" r="2" fill="#000FFF"/>
<circle cx="1152" cy="898" r="2" fill="#000FFF"/>
<circle cx="1202" cy="898" r="2" fill="#000FFF"/>
<circle cx="1252" cy="898" r="2" fill="#000FFF"/>
<circle cx="1302" cy="898" r="2" fill="#000FFF"/>
<circle cx="1352" cy="898" r="2" fill="#000FFF"/>
<circle cx="1402" cy="898" r="2" fill="#000FFF"/>
<circle cx="2" cy="948" r="2" fill="#000FFF"/>
<circle cx="52" cy="948" r="2" fill="#000FFF"/>
<circle cx="102" cy="948" r="2" fill="#000FFF"/>
<circle cx="152" cy="948" r="2" fill="#000FFF"/>
<circle cx="202" cy="948" r="2" fill="#000FFF"/>
<circle cx="252" cy="948" r="2" fill="#000FFF"/>
<circle cx="302" cy="948" r="2" fill="#000FFF"/>
<circle cx="352" cy="948" r="2" fill="#000FFF"/>
<circle cx="402" cy="948" r="2" fill="#000FFF"/>
<circle cx="452" cy="948" r="2" fill="#000FFF"/>
<circle cx="502" cy="948" r="2" fill="#000FFF"/>
<circle cx="552" cy="948" r="2" fill="#000FFF"/>
<circle cx="602" cy="948" r="2" fill="#000FFF"/>
<circle cx="652" cy="948" r="2" fill="#000FFF"/>
<circle cx="702" cy="948" r="2" fill="#000FFF"/>
<circle cx="752" cy="948" r="2" fill="#000FFF"/>
<circle cx="802" cy="948" r="2" fill="#000FFF"/>
<circle cx="852" cy="948" r="2" fill="#000FFF"/>
<circle cx="902" cy="948" r="2" fill="#000FFF"/>
<circle cx="952" cy="948" r="2" fill="#000FFF"/>
<circle cx="1002" cy="948" r="2" fill="#000FFF"/>
<circle cx="1052" cy="948" r="2" fill="#000FFF"/>
<circle cx="1102" cy="948" r="2" fill="#000FFF"/>
<circle cx="1152" cy="948" r="2" fill="#000FFF"/>
<circle cx="1202" cy="948" r="2" fill="#000FFF"/>
<circle cx="1252" cy="948" r="2" fill="#000FFF"/>
<circle cx="1302" cy="948" r="2" fill="#000FFF"/>
<circle cx="1352" cy="948" r="2" fill="#000FFF"/>
<circle cx="1402" cy="948" r="2" fill="#000FFF"/>
<circle cx="2" cy="998" r="2" fill="#000FFF"/>
<circle cx="52" cy="998" r="2" fill="#000FFF"/>
<circle cx="102" cy="998" r="2" fill="#000FFF"/>
<circle cx="152" cy="998" r="2" fill="#000FFF"/>
<circle cx="202" cy="998" r="2" fill="#000FFF"/>
<circle cx="252" cy="998" r="2" fill="#000FFF"/>
<circle cx="302" cy="998" r="2" fill="#000FFF"/>
<circle cx="352" cy="998" r="2" fill="#000FFF"/>
<circle cx="402" cy="998" r="2" fill="#000FFF"/>
<circle cx="452" cy="998" r="2" fill="#000FFF"/>
<circle cx="502" cy="998" r="2" fill="#000FFF"/>
<circle cx="552" cy="998" r="2" fill="#000FFF"/>
<circle cx="602" cy="998" r="2" fill="#000FFF"/>
<circle cx="652" cy="998" r="2" fill="#000FFF"/>
<circle cx="702" cy="998" r="2" fill="#000FFF"/>
<circle cx="752" cy="998" r="2" fill="#000FFF"/>
<circle cx="802" cy="998" r="2" fill="#000FFF"/>
<circle cx="852" cy="998" r="2" fill="#000FFF"/>
<circle cx="902" cy="998" r="2" fill="#000FFF"/>
<circle cx="952" cy="998" r="2" fill="#000FFF"/>
<circle cx="1002" cy="998" r="2" fill="#000FFF"/>
<circle cx="1052" cy="998" r="2" fill="#000FFF"/>
<circle cx="1102" cy="998" r="2" fill="#000FFF"/>
<circle cx="1152" cy="998" r="2" fill="#000FFF"/>
<circle cx="1202" cy="998" r="2" fill="#000FFF"/>
<circle cx="1252" cy="998" r="2" fill="#000FFF"/>
<circle cx="1302" cy="998" r="2" fill="#000FFF"/>
<circle cx="1352" cy="998" r="2" fill="#000FFF"/>
<circle cx="1402" cy="998" r="2" fill="#000FFF"/>
</svg>
