<?xml version="1.0" encoding="UTF-8" standalone="no"?>
<svg
   xmlns:dc="http://purl.org/dc/elements/1.1/"
   xmlns:cc="http://creativecommons.org/ns#"
   xmlns:rdf="http://www.w3.org/1999/02/22-rdf-syntax-ns#"
   xmlns:svg="http://www.w3.org/2000/svg"
   xmlns="http://www.w3.org/2000/svg"
   viewBox="0 0 666.66669 496.81332"
   height="496.81332"
   width="666.66669"
   xml:space="preserve"
   id="svg2"
   version="1.1"><metadata
     id="metadata8"><rdf:RDF><cc:Work
         rdf:about=""><dc:format>image/svg+xml</dc:format><dc:type
           rdf:resource="http://purl.org/dc/dcmitype/StillImage" /></cc:Work></rdf:RDF></metadata><defs
     id="defs6" /><g
     transform="matrix(1.3333333,0,0,-1.3333333,0,496.81333)"
     id="g10"><g
       transform="scale(0.1)"
       id="g12"><path
         id="path14"
         style="fill:#eeeeee;fill-opacity:1;fill-rule:nonzero;stroke:none"
         d="m 0,449.129 h 5000 v 2.5 H 0 Z" /><path
         id="path16"
         style="fill:#eeeeee;fill-opacity:1;fill-rule:nonzero;stroke:none"
         d="m 4167.79,290.672 h 331.22 v -2.5 h -331.22 v 2.5" /><path
         id="path18"
         style="fill:#eeeeee;fill-opacity:1;fill-rule:nonzero;stroke:none"
         d="m 3225.27,261.039 h 86.9297 v 2.5 H 3225.27 Z" /><path
         id="path20"
         style="fill:#eeeeee;fill-opacity:1;fill-rule:nonzero;stroke:none"
         d="m 3965.86,381.039 h 191.922 v 2.5 H 3965.86 Z" /><path
         id="path22"
         style="fill:#eeeeee;fill-opacity:1;fill-rule:nonzero;stroke:none"
         d="m 524.59,364.23 h 431.934 v 2.5 H 524.59 Z" /><path
         id="path24"
         style="fill:#eeeeee;fill-opacity:1;fill-rule:nonzero;stroke:none"
         d="m 1045.56,366.73 h 63.33 v -2.5 h -63.33 v 2.5" /><path
         id="path26"
         style="fill:#eeeeee;fill-opacity:1;fill-rule:nonzero;stroke:none"
         d="m 1314.71,322.012 h 936.758 v 2.5 H 1314.71 Z" /><path
         id="path28"
         style="fill:#eeeeee;fill-opacity:1;fill-rule:nonzero;stroke:none"
         d="m 439.152,3723.59 c -30.101,0 -54.582,-24.48 -54.582,-54.57 V 954.699 c 0,-30.097 24.481,-54.578 54.582,-54.578 H 2370.14 c 30.08,0 54.57,24.481 54.57,54.578 V 3669.02 c 0,30.09 -24.49,54.57 -54.57,54.57 H 439.152 M 2370.14,897.621 H 439.152 c -31.476,0 -57.082,25.598 -57.082,57.078 V 3669.02 c 0,31.46 25.606,57.07 57.082,57.07 H 2370.14 c 31.46,0 57.07,-25.61 57.07,-57.07 V 954.699 c 0,-31.48 -25.61,-57.078 -57.07,-57.078" /><path
         id="path30"
         style="fill:#eeeeee;fill-opacity:1;fill-rule:nonzero;stroke:none"
         d="m 2602.12,3723.59 c -30.09,0 -54.57,-24.48 -54.57,-54.57 V 954.699 c 0,-30.097 24.48,-54.578 54.57,-54.578 h 1930.99 c 30.09,0 54.58,24.481 54.58,54.578 V 3669.02 c 0,30.09 -24.49,54.57 -54.58,54.57 H 2602.12 M 4533.11,897.621 H 2602.12 c -31.47,0 -57.07,25.598 -57.07,57.078 V 3669.02 c 0,31.46 25.6,57.07 57.07,57.07 h 1930.99 c 31.47,0 57.08,-25.61 57.08,-57.07 V 954.699 c 0,-31.48 -25.61,-57.078 -57.08,-57.078" /><path
         id="path32"
         style="fill:#e3e3e2;fill-opacity:1;fill-rule:nonzero;stroke:none"
         d="m 1078.55,3051.01 367.92,214.05 h 283.48 l 374.02,-203.91 V 1673.93 H 1078.55 v 1377.08" /><path
         id="path34"
         style="fill:#f4f4f4;fill-opacity:1;fill-rule:nonzero;stroke:none"
         d="m 1147.27,1742.65 h 898.54 v 1278.87 c -122.6,112.85 -281.56,174.82 -449.27,174.82 -167.71,0 -326.68,-61.97 -449.27,-174.81 V 1742.65 m 967.26,-68.72 H 1078.55 v 1377.08 l 10.55,10.14 c 136.81,131.48 317.04,203.91 507.44,203.91 v 0 c 190.4,-0.01 370.62,-72.42 507.43,-203.91 l 10.56,-10.14 V 1673.93" /><path
         id="path36"
         style="fill:#ffffff;fill-opacity:1;fill-rule:nonzero;stroke:none"
         d="m 1570.77,1734.39 h 51.54 v 460.37 h 436.51 v 51.54 h -436.51 v 470.88 h 436.51 v 51.53 h -436.51 v 436.52 h -51.54 v -436.52 h -436.52 v -51.53 h 436.52 V 2246.3 h -436.52 v -51.54 h 436.52 v -460.37" /><path
         id="path38"
         style="fill:#ffffff;fill-opacity:1;fill-rule:nonzero;stroke:none"
         d="m 1112.91,1708.29 h 967.26 v 1328.09 c -269.59,259.08 -697.66,259.1 -967.26,0 V 1708.29 m 1035.98,-68.72 h -1104.7 v 1425.47 l 10.06,10.06 c 299.02,299.01 785.55,299.01 1084.58,0 l 10.06,-10.06 V 1639.57" /><path
         id="path40"
         style="fill:#e3e3e2;fill-opacity:1;fill-rule:nonzero;stroke:none"
         d="m 3502.73,2530.25 v -296.84 h 420.04 v 296.84 h -420.04" /><path
         id="path42"
         style="fill:#eeeeee;fill-opacity:1;fill-rule:nonzero;stroke:none"
         d="m 3522.48,2510.9 v -258.13 h 380.54 v 258.13 h -380.54" /><path
         id="path44"
         style="fill:#e3e3e2;fill-opacity:1;fill-rule:nonzero;stroke:none"
         d="m 3357.07,2903.16 v -296.84 h 420.04 v 296.84 h -420.04" /><path
         id="path46"
         style="fill:#eeeeee;fill-opacity:1;fill-rule:nonzero;stroke:none"
         d="m 3376.82,2883.81 v -258.14 h 380.53 v 258.14 h -380.53" /><path
         id="path48"
         style="fill:#e3e3e2;fill-opacity:1;fill-rule:nonzero;stroke:none"
         d="m 3155.78,2152.05 h 267.27 v 378.2 h -267.27 v -378.2" /><path
         id="path50"
         style="fill:#eeeeee;fill-opacity:1;fill-rule:nonzero;stroke:none"
         d="m 3173.2,2169.84 h 232.43 v 342.63 H 3173.2 v -342.63" /><path
         id="path52"
         style="fill:#e3e3e2;fill-opacity:1;fill-rule:nonzero;stroke:none"
         d="m 3003.73,2606.32 h 296.84 v 420.04 h -296.84 v -420.04" /><path
         id="path54"
         style="fill:#eeeeee;fill-opacity:1;fill-rule:nonzero;stroke:none"
         d="m 3023.08,2626.07 h 258.13 v 380.54 h -258.13 v -380.54" /><path
         id="path56"
         style="fill:#e3e3e2;fill-opacity:1;fill-rule:nonzero;stroke:none"
         d="m 3065.03,2297.83 v 232.42 h -328.88 v -232.42 h 328.88" /><path
         id="path58"
         style="fill:#eeeeee;fill-opacity:1;fill-rule:nonzero;stroke:none"
         d="m 3049.57,2312.99 v 202.11 h -297.95 v -202.11 h 297.95" /><path
         id="path60"
         style="fill:#ffffff;fill-opacity:1;fill-rule:nonzero;stroke:none"
         d="M 4438.89,113.23 C 4438.89,50.6914 3570.83,0 2500,0 1429.18,0 561.113,50.6914 561.113,113.23 c 0,62.54 868.067,113.239 1938.887,113.239 1070.83,0 1938.89,-50.699 1938.89,-113.239" /><path
         id="path62"
         style="fill:#e9802a;fill-opacity:1;fill-rule:nonzero;stroke:none"
         d="m 803.699,1540.26 h 36.469 L 941.691,944.422 H 905.223 L 803.699,1540.26" /><path
         id="path64"
         style="fill:#e9802a;fill-opacity:1;fill-rule:nonzero;stroke:none"
         d="m 939.066,1540.26 h 36.465 L 1077.06,944.422 H 1040.6 L 939.066,1540.26" /><path
         id="path66"
         style="fill:#e9802a;fill-opacity:1;fill-rule:nonzero;stroke:none"
         d="m 1074.44,1540.26 h 36.46 l 101.53,-595.838 h -36.46 l -101.53,595.838" /><path
         id="path68"
         style="fill:#758288;fill-opacity:1;fill-rule:nonzero;stroke:none"
         d="m 897.398,990.352 -79.535,466.778 c 12.278,0.61 24.262,3.38 35.153,7.72 l 80.246,-470.971 h -18.93 c -6.019,0 -11.75,-1.258 -16.934,-3.527" /><path
         id="path70"
         style="fill:#758288;fill-opacity:1;fill-rule:nonzero;stroke:none"
         d="m 1068.63,993.879 h -36.46 l -21.57,126.561 h 36.47 l 21.56,-126.561 m -61.2,145.191 -60.996,357.97 c 7.261,0.71 14.648,1.06 22.132,1.06 4.704,0 9.45,-0.14 14.219,-0.42 l 50.945,-298.95 c -8.89,-19.7 -17.67,-39.65 -26.3,-59.66" /><path
         id="path72"
         style="fill:#758288;fill-opacity:1;fill-rule:nonzero;stroke:none"
         d="m 1106.99,1349.23 -20.72,121.59 c 12.49,-5.35 25.66,-9.45 38.47,-11.75 l 10.17,-59.69 c -9.29,-15.91 -18.6,-32.67 -27.92,-50.15" /><path
         id="path74"
         style="fill:#e9802a;fill-opacity:1;fill-rule:nonzero;stroke:none"
         d="m 1115.34,929.02 3.04,-131.739 13.88,-675.929 h 45.77 l 13.79,675.929 3.05,131.739 h -79.53" /><path
         id="path76"
         style="fill:#758288;fill-opacity:1;fill-rule:nonzero;stroke:none"
         d="m 1178.03,121.352 h -45.77 l -13.8,672.289 h 73.29 l -6.98,-342.012 -0.05,-2.5 -6.69,-327.777" /><path
         id="path78"
         style="fill:#cecdcc;fill-opacity:1;fill-rule:nonzero;stroke:none"
         d="m 1191.82,793.641 h -0.07 l 0.07,3.64 2.26,97.699 h 0.02 l -2.28,-101.339 m -73.36,0 h -0.08 l -2.28,101.339 h 0.02 l 2.26,-97.699 0.08,-3.64" /><path
         id="path80"
         style="fill:#59656a;fill-opacity:1;fill-rule:nonzero;stroke:none"
         d="m 1191.75,793.641 h -73.29 l -0.08,3.64 -2.26,97.699 h 77.96 l -2.26,-97.699 -0.07,-3.64" /><path
         id="path82"
         style="fill:#e9802a;fill-opacity:1;fill-rule:nonzero;stroke:none"
         d="m 866.777,123.461 42.286,796.238 h 69.121 l -59.2,-796.238 h -52.207" /><path
         id="path84"
         style="fill:#ffffff;fill-opacity:1;fill-rule:nonzero;stroke:none"
         d="m 923.125,179.129 5.418,72.902 -5.352,-72.89 -0.066,-0.012" /><path
         id="path86"
         style="fill:#fbfcfc;fill-opacity:1;fill-rule:nonzero;stroke:none"
         d="m 919.105,123.461 h -52.25 52.129 l 4.141,55.668 0.066,0.012 -4.086,-55.68" /><path
         id="path88"
         style="fill:#ffffff;fill-opacity:1;fill-rule:nonzero;stroke:none"
         d="m 872.93,239.32 6.55,124.91 h 0.083 L 872.93,239.32 m 6.765,127.41 h -0.086 l 4.321,82.399 h 0.14 l -4.375,-82.399 m 4.508,84.899 h -0.14 l 21.167,403.769 2.309,39.582 h 0.055 l -2.371,-42.121 h 0.289 l -21.309,-401.23" /><path
         id="path90"
         style="fill:#f6f7f7;fill-opacity:1;fill-rule:nonzero;stroke:none"
         d="m 884.07,449.129 h -0.14 l 0.133,2.5 h 0.14 l -0.133,-2.5" /><path
         id="path92"
         style="fill:#f6f7f7;fill-opacity:1;fill-rule:nonzero;stroke:none"
         d="m 879.563,364.23 h -0.083 l 0.129,2.5 h 0.086 l -0.132,-2.5" /><path
         id="path94"
         style="fill:#758288;fill-opacity:1;fill-rule:nonzero;stroke:none"
         d="m 918.984,123.461 h -52.129 l 6.075,115.859 6.633,124.91 0.132,2.5 4.375,82.399 0.133,2.5 21.309,401.23 h 67.129 l -44.098,-600.828 -5.418,-72.902 -4.141,-55.668" /><path
         id="path96"
         style="fill:#182124;fill-opacity:1;fill-rule:nonzero;stroke:none"
         d="m 972.828,852.859 h -0.187 l 0.187,2.539 3.238,39.582 h 0.079 l -3.317,-42.121" /><path
         id="path98"
         style="fill:#cecdcb;fill-opacity:1;fill-rule:nonzero;stroke:none"
         d="m 905.512,852.859 h -0.289 l 2.371,42.121 h 0.156 l -2.238,-42.121" /><path
         id="path100"
         style="fill:#59656a;fill-opacity:1;fill-rule:nonzero;stroke:none"
         d="m 972.641,852.859 h -67.129 l 2.238,42.121 h 68.316 l -3.238,-39.582 -0.187,-2.539" /><path
         id="path102"
         style="fill:#1d2a30;fill-opacity:1;fill-rule:nonzero;stroke:none"
         d="m 1391.26,123.461 -59.19,796.238 h 69.12 l 42.28,-796.238 h -52.21" /><path
         id="path104"
         style="fill:#ffffff;fill-opacity:1;fill-rule:nonzero;stroke:none"
         d="m 1437.72,231.648 -2.86,53.981 c 0,0.019 0.02,0.043 0.03,0.051 l 2.83,-54.032 m -21.49,404.793 -11.49,216.418 h 0.28 l -2.37,42.121 h 0.06 l 2.31,-39.582 11.45,-218.429 c -0.08,-0.168 -0.16,-0.36 -0.24,-0.528" /><path
         id="path106"
         style="fill:#758288;fill-opacity:1;fill-rule:nonzero;stroke:none"
         d="m 1438,163.621 c -22.31,10.301 -41,30.629 -53.15,49.098 5.87,8.441 24.06,34.66 50.01,72.91 l 2.86,-53.981 2.99,-57.066 c -0.98,-4.211 -1.89,-7.953 -2.71,-10.961 m -74.87,341.41 -25.52,347.828 h 67.13 l 11.49,-216.418 c -18.02,-39.402 -36.01,-83.191 -53.1,-131.41" /><path
         id="path108"
         style="fill:#182124;fill-opacity:1;fill-rule:nonzero;stroke:none"
         d="m 1337.61,852.859 h -0.19 l -3.32,42.121 h 0.08 l 3.24,-39.582 0.19,-2.539" /><path
         id="path110"
         style="fill:#cecdcb;fill-opacity:1;fill-rule:nonzero;stroke:none"
         d="m 1405.02,852.859 h -0.28 l -2.24,42.121 h 0.15 l 2.37,-42.121" /><path
         id="path112"
         style="fill:#59656a;fill-opacity:1;fill-rule:nonzero;stroke:none"
         d="m 1404.74,852.859 h -67.13 l -0.19,2.539 -3.24,39.582 h 68.32 l 2.24,-42.121" /><path
         id="path114"
         style="fill:#1d2a30;fill-opacity:1;fill-rule:nonzero;stroke:none"
         d="m 914.332,993.879 h 481.588 c 23.36,0 42.3,-18.949 42.3,-42.309 V 894.98 H 872.027 v 56.59 c 0,23.36 18.942,42.309 42.305,42.309" /><path
         id="path116"
         style="fill:#1d2a30;fill-opacity:1;fill-rule:nonzero;stroke:none"
         d="m 861.918,944.422 h 586.412 c 9.4,0 17.02,-7.613 17.02,-17.012 v -15.422 c 0,-9.386 -7.62,-17.008 -17.02,-17.008 H 861.918 c -9.398,0 -17.016,7.622 -17.016,17.008 v 15.422 c 0,9.399 7.618,17.012 17.016,17.012" /><path
         id="path118"
         style="fill:#a5adad;fill-opacity:1;fill-rule:nonzero;stroke:none"
         d="M 1448.33,894.98 H 861.918 c -9.398,0 -17.016,7.622 -17.016,17.008 v 15.422 c 0,9.399 7.618,17.012 17.016,17.012 h 417.712 c 63.64,-15.473 130.83,-24.82 185.72,-30.442 v -1.992 c 0,-4.617 -1.85,-8.808 -4.83,-11.867 -0.93,-0.949 -1.96,-1.789 -3.09,-2.5 -2.63,-1.672 -5.75,-2.641 -9.1,-2.641" /><path
         id="path120"
         style="fill:#1d2a30;fill-opacity:1;fill-rule:nonzero;stroke:none"
         d="m 866.723,1471.46 c 58.691,35.52 140.197,35.52 218.087,0 39.36,-17.26 85.94,-22.16 106.55,2.7 h 0.01 c 35.1,36.58 -26.52,144.97 -144.78,179.29 -84.649,24.27 -168.434,24.27 -239.969,0 -99.726,-34.32 -102.793,-142.71 -47.93,-179.29 h 0.004 c 34.071,-24.86 77.946,-19.96 108.028,-2.7" /><path
         id="path122"
         style="fill:#f6f7f7;fill-opacity:1;fill-rule:nonzero;stroke:none"
         d="m 1536.26,1865.7 -3.71,1.86 c 9.24,21.4 14.22,47.87 16.86,72.07 1.45,-0.4 2.85,-0.8 4.17,-1.17 -2.69,-24.38 -7.79,-51.01 -17.32,-72.76" /><path
         id="path124"
         style="fill:#1d2a30;fill-opacity:1;fill-rule:nonzero;stroke:none"
         d="m 1353.01,1969.27 c 0,0 -32.96,69.98 -36.78,142.66 -3.82,72.69 57.96,146.54 120.04,132.03 0,0 73.85,33.18 120.05,-5.16 46.2,-38.35 91.69,-156.49 13.56,-305.12 0,0 -143.3,44.41 -216.87,35.59" /><path
         id="path126"
         style="fill:#1d2a30;fill-opacity:1;fill-rule:nonzero;stroke:none"
         d="m 1803.88,1482.85 c -0.02,-0.12 -53.99,-142.08 -54.02,-259.57 0.02,-49.91 9.71,-95.61 38.07,-124.13 h 3.02 v 3.01 c -27.08,27.12 -36.85,71.7 -36.83,121.12 0,58.12 13.42,122.7 26.87,172.68 6.72,25 13.44,46.35 18.49,61.45 5.04,15.1 8.38,23.9 8.39,23.92 0.41,1.1 -0.14,2.33 -1.24,2.75 -1.1,0.42 -2.33,-0.13 -2.75,-1.23 v 0" /><path
         id="path128"
         style="fill:#e9802a;fill-opacity:1;fill-rule:nonzero;stroke:none"
         d="m 1779.56,1621.54 33.14,30.45 47.95,32.82 78.13,-54.44 -35.6,-17.72 c 0,0 -25.75,-24.73 -63.81,-14.84 l -26.67,-10.94 -33.14,34.67" /><path
         id="path130"
         style="fill:#4870c0;fill-opacity:1;fill-rule:nonzero;stroke:none"
         d="m 1627.05,1807.03 c 34.81,-35.15 58.17,-254.93 58.17,-254.93 l 100.6,89.22 53.54,-60.51 c 0,0 -127.39,-184.76 -181.46,-170.25 -54.06,14.5 -94.96,158.58 -94.96,158.58 l 64.11,237.89" /><path
         id="path132"
         style="fill:#ffffff;fill-opacity:1;fill-rule:nonzero;stroke:none"
         d="m 1664.31,1409.7 c -2.25,0 -4.39,0.26 -6.43,0.81 -10.4,2.8 -20.4,10.5 -29.71,21 0.01,0.02 0.01,0.03 0.02,0.05 9.27,-10.53 19.25,-18.2 29.71,-21 2.05,-0.55 4.19,-0.82 6.44,-0.82 21.77,0 52.39,24.89 81.94,55.67 h 0.03 c -29.57,-30.81 -60.22,-55.71 -82,-55.71 m 18.55,162.73 c -1.97,16.09 -5.12,40.25 -9.29,67.14 h 0.04 c 4.18,-26.89 7.33,-51.05 9.3,-67.13 l -0.05,-0.01" /><path
         id="path134"
         style="fill:#f6f7f7;fill-opacity:1;fill-rule:nonzero;stroke:none"
         d="m 1653.44,1742.65 h -0.03 c -7.7,30.02 -16.57,54.46 -26.34,64.35 l 0.01,0.01 c 9.77,-9.86 18.65,-34.31 26.36,-64.36" /><path
         id="path136"
         style="fill:#ffffff;fill-opacity:1;fill-rule:nonzero;stroke:none"
         d="m 1661.33,1708.29 h -0.03 c -2.47,11.91 -5.1,23.49 -7.89,34.36 h 0.03 c 2.79,-10.86 5.43,-22.46 7.89,-34.36" /><path
         id="path138"
         style="fill:#fbfcfc;fill-opacity:1;fill-rule:nonzero;stroke:none"
         d="m 1673.61,1639.57 h -0.04 c -3.43,22.06 -7.55,45.96 -12.27,68.72 h 0.03 c 4.73,-22.76 8.85,-46.66 12.28,-68.72" /><path
         id="path140"
         style="fill:#ffffff;fill-opacity:1;fill-rule:nonzero;stroke:none"
         d="m 1758.84,1617.41 24.98,22.16 h 0.03 l -24.98,-22.15 c -0.01,-0.01 -0.02,-0.01 -0.03,-0.01" /><path
         id="path142"
         style="fill:#fbfcfc;fill-opacity:1;fill-rule:nonzero;stroke:none"
         d="m 1783.85,1639.57 h -0.03 l 1.96,1.74 0.01,-0.02 -1.94,-1.72" /><path
         id="path144"
         style="fill:#b4caec;fill-opacity:1;fill-rule:nonzero;stroke:none"
         d="m 1664.34,1409.74 c -2.25,0 -4.39,0.27 -6.44,0.82 -10.46,2.8 -20.44,10.47 -29.71,21 4.58,17.85 7.4,37.22 8.92,57.06 13.12,1.54 20.79,2.49 20.79,2.49 v 23.28 l 28.97,2.42 c 0.52,-0.32 1.03,-0.63 1.55,-0.93 -0.49,-1.15 -0.74,-1.77 -0.74,-1.77 -8.91,-19.6 9.2,-48.7 9.2,-48.7 v 0 0 h 49.4 c -29.55,-30.78 -60.17,-55.67 -81.94,-55.67 m -6.44,160.67 v 10.4 0 c 0,0 -7.97,-0.22 -21.27,-0.52 -4.56,63.18 -15.56,114.02 -15.56,114.02 l -0.03,-0.06 c 4.05,32.45 6.39,63.86 6.38,93.13 0,6.63 -0.12,13.14 -0.37,19.54 l 0.02,0.08 c 9.77,-9.89 18.64,-34.33 26.34,-64.35 2.79,-10.87 5.42,-22.45 7.89,-34.36 4.72,-22.76 8.84,-46.66 12.27,-68.72 4.17,-26.89 7.32,-51.05 9.29,-67.14 l -3.2,-0.34 -21.76,-1.68 m 53.76,5.12 20.69,18.36 c -4.26,-5.56 -8.33,-11.46 -12.16,-17.44 l -8.53,-0.92 m 47.21,41.89 24.98,22.15 1.94,1.72 13.59,-15.33 c -15.32,-1.24 -29.56,-3.88 -40.51,-8.54" /><path
         id="path146"
         style="fill:#e8e8e6;fill-opacity:1;fill-rule:nonzero;stroke:none"
         d="m 1628.17,1431.51 v 0 c -11.9,13.54 -22.67,31.82 -31.86,50.63 9.2,-18.79 19.96,-37.05 31.88,-50.58 -0.01,-0.02 -0.01,-0.03 -0.02,-0.05" /><path
         id="path148"
         style="fill:#a0b5e3;fill-opacity:1;fill-rule:nonzero;stroke:none"
         d="m 1628.19,1431.56 c -11.92,13.53 -22.68,31.79 -31.88,50.58 -0.29,0.58 -0.57,1.16 -0.85,1.75 16.67,1.83 30.97,3.48 41.65,4.73 -1.52,-19.84 -4.34,-39.21 -8.92,-57.06 m -27.04,148.01 c 8.27,38.47 15.22,77.26 19.89,114.68 l 0.03,0.06 c 0,0 11,-50.84 15.56,-114.02 -9.45,-0.22 -21.6,-0.47 -35.48,-0.72" /><path
         id="path150"
         style="fill:#4870c0;fill-opacity:1;fill-rule:nonzero;stroke:none"
         d="m 1350.26,1917.57 135.05,-26.3 c 0,0 64.43,-33.29 77.63,-157.44 13.21,-124.15 -17.97,-390.23 -54.47,-471.48 -36.5,-81.25 -366.46,-18.58 -366.46,-18.58 l 103.15,364.03 -14.51,240.56 119.61,69.21" /><path
         id="path152"
         style="fill:#8aa1d3;fill-opacity:1;fill-rule:nonzero;stroke:none"
         d="m 1508.47,1262.36 c 1.73,4.79 3.65,10.16 5.73,16.04 l -1.01,-4.41 v 0 c 0.01,-0.01 0.01,-0.01 0.01,-0.01 -1.56,-4.2 -3.14,-8.08 -4.73,-11.62 m -1.43,7.01 1.98,90.32 c 5.56,16.64 10.72,32.16 15.52,46.74 3.13,-4.1 6.08,-8.21 8.75,-12.33 -6.94,-39.25 -15.58,-80.86 -26.25,-124.73 m 28.26,136.31 c -2.47,3.42 -5.05,6.8 -7.67,10.15 6.37,19.42 12.11,37.19 17.38,53.8 -2.74,-20.55 -5.96,-41.87 -9.71,-63.95 m -27.07,451.11 c -1.32,0.47 -2.63,0.94 -3.95,1.4 -0.51,0.72 -0.87,1.09 -0.87,1.09 -19.65,9.86 -29.95,21.98 -34.25,35.14 l 16.15,-3.15 v 0 0 0 c 8.69,-9.22 16.29,-20.95 22.92,-34.48 m -142.5,35.83 c -2.55,0.48 -5.12,0.97 -7.71,1.46 -2.16,8.07 -4.73,15.92 -7.76,23.49 v 0 0 l 32.27,-6.28 c -4.64,-7.92 -10.19,-14.36 -16.8,-18.67" /><path
         id="path154"
         style="fill:#4870c0;fill-opacity:1;fill-rule:nonzero;stroke:none"
         d="m 1605.8,1699.23 c -6.24,-30.14 -7.94,-53.79 -29.16,-124.2 -16.82,-59.87 -35.19,-118.35 -67.62,-215.34 l -308.7,58.64 c 26.62,84.24 44.47,198.42 35.96,404.32 -1.96,47.73 36.55,83.91 82.74,77.7 12.35,-1.66 25.38,-3.7 38.65,-6.21 51.6,-9.73 93.81,-18.09 138.14,-33.05 14.69,-4.95 29.8,-10.55 44.18,-16.18 51.91,-20.3 76.97,-91.68 65.81,-145.68" /><path
         id="path156"
         style="fill:#e9802a;fill-opacity:1;fill-rule:nonzero;stroke:none"
         d="m 1404.57,2047.37 c 1.39,-47.32 -3.32,-132.29 -39.3,-155.04 0,0 43.61,-3.75 119.77,-80.41 34.76,30.93 18.37,47.36 18.37,47.36 -47.62,23.9 -40.29,61.02 -25.96,94.11 l -72.88,93.98" /><path
         id="path158"
         style="fill:#b3b2b1;fill-opacity:1;fill-rule:nonzero;stroke:none"
         d="m 1469.12,1929.5 c -0.01,0.01 -0.01,0.01 -0.02,0.01 0.14,0.57 0.29,1.15 0.44,1.72 -0.15,-0.57 -0.29,-1.15 -0.42,-1.73" /><path
         id="path160"
         style="fill:#b85144;fill-opacity:1;fill-rule:nonzero;stroke:none"
         d="m 1469.1,1929.51 c -13.43,5.32 -29.03,21.24 -36.06,37.47 12.07,-12.07 25.52,-20.74 39.39,-26.2 -1.1,-3.17 -2.08,-6.35 -2.89,-9.55 -0.15,-0.57 -0.3,-1.15 -0.44,-1.72" /><path
         id="path162"
         style="fill:#1947a4;fill-opacity:1;fill-rule:nonzero;stroke:none"
         d="m 1539.38,1858.85 c 0,0 63.85,-221.19 -40.92,-623.56 0,0 137.06,355.85 128.59,571.74 l -87.67,51.82" /><path
         id="path164"
         style="fill:#b4caec;fill-opacity:1;fill-rule:nonzero;stroke:none"
         d="m 1506.79,1257.72 0.25,11.65 c 10.67,43.87 19.31,85.48 26.25,124.73 5.17,-7.97 9.28,-16 11.49,-24.14 -0.73,-2.3 -1.45,-4.59 -2.17,-6.85 l -8.86,1.3 -19.55,-86.01 c -2.78,-7.87 -5.28,-14.81 -7.41,-20.68 m 42.04,125.18 c -3.49,7.89 -8.25,15.44 -13.53,22.78 4.31,25.35 7.91,49.68 10.89,73.02 10.89,1.09 21.39,2.19 31.31,3.25 -9.41,-35.17 -19.25,-68.69 -28.67,-99.05 m 10.08,196.06 39.45,210.89 -35.79,33.72 20.98,9.17 43.5,-25.71 c 0.25,-6.43 0.37,-12.98 0.37,-19.65 0.02,-63.03 -10.84,-135.99 -26.27,-207.81 -12.84,-0.23 -27.17,-0.45 -42.24,-0.61" /><path
         id="path166"
         style="fill:#1947a4;fill-opacity:1;fill-rule:nonzero;stroke:none"
         d="m 1485.31,1891.27 108.05,-54.24 -30.79,-13.46 35.79,-33.72 -44.47,-237.75 c 0,0 5.43,260.64 -68.58,339.17" /><path
         id="path168"
         style="fill:#c7d9f2;fill-opacity:1;fill-rule:nonzero;stroke:none"
         d="m 1553.87,1578.9 c -0.91,68.54 -9.08,249.26 -68.56,312.37 l 108.05,-54.24 -30.79,-13.46 35.79,-33.72 -39.45,-210.89 c -1.67,-0.02 -3.35,-0.04 -5.04,-0.06" /><path
         id="path170"
         style="fill:#e9802a;fill-opacity:1;fill-rule:nonzero;stroke:none"
         d="m 1387.21,2117.53 c 4.63,-74.94 5.01,-106.67 42.41,-147.01 56.27,-60.67 146.11,-43.49 163.67,30.14 15.81,66.27 5.59,177.7 -66.85,211.28 -71.38,33.1 -143.86,-19.46 -139.23,-94.41" /><path
         id="path172"
         style="fill:#1d2a30;fill-opacity:1;fill-rule:nonzero;stroke:none"
         d="m 1479.21,2093.67 c 0.11,-6.3 3.45,-11.58 7.46,-11.78 4,-0.2 7.15,4.75 7.04,11.05 -0.12,6.31 -3.46,11.58 -7.46,11.79 -4.01,0.2 -7.16,-4.75 -7.04,-11.06" /><path
         id="path174"
         style="fill:#1d2a30;fill-opacity:1;fill-rule:nonzero;stroke:none"
         d="m 1557.29,2092.13 c 0.11,-6.31 3.45,-11.58 7.46,-11.79 4,-0.2 7.15,4.75 7.04,11.06 -0.12,6.31 -3.46,11.58 -7.46,11.78 -4.01,0.2 -7.16,-4.74 -7.04,-11.05" /><path
         id="path176"
         style="fill:#1d2a30;fill-opacity:1;fill-rule:nonzero;stroke:none"
         d="m 1562.56,2102.92 14.64,3.62 c 0,0 -7.34,-11.45 -14.64,-3.62" /><path
         id="path178"
         style="fill:#d73b32;fill-opacity:1;fill-rule:nonzero;stroke:none"
         d="m 1533.75,2079.47 c 0,0 10.89,-27.67 22.57,-41.35 -7.94,-7.36 -21.75,-3.12 -21.75,-3.12 l -0.82,44.47" /><path
         id="path180"
         style="fill:#1d2a30;fill-opacity:1;fill-rule:nonzero;stroke:none"
         d="m 1499.78,2013.48 c 3.18,-0.74 6.61,-1.25 10.28,-1.43 0.99,-0.06 1.79,0.73 1.77,1.76 -0.02,1.02 -0.82,1.88 -1.84,1.94 -26.86,1.34 -39.79,21.33 -39.92,21.53 l -2.49,0.67 -0.49,-2.54 c 0.5,-0.78 10.9,-16.88 32.69,-21.93" /><path
         id="path182"
         style="fill:#1d2a30;fill-opacity:1;fill-rule:nonzero;stroke:none"
         d="m 1466.97,2133.78 c 0.95,-0.13 1.92,0.12 2.68,0.78 11.83,10.31 24.69,6.19 24.83,6.14 1.91,-0.62 3.88,0.41 4.38,2.36 0.5,1.95 -0.66,4.04 -2.59,4.68 -0.67,0.22 -16.8,5.42 -31.48,-7.39 -1.46,-1.28 -1.56,-3.61 -0.22,-5.21 l 2.4,-1.36" /><path
         id="path184"
         style="fill:#1d2a30;fill-opacity:1;fill-rule:nonzero;stroke:none"
         d="m 1588.48,2132.03 2.63,0.32 c 1.68,0.98 2.18,3.23 1.12,5.03 -10.67,18.02 -27.27,19.59 -27.98,19.64 -1.99,0.16 -3.62,-1.36 -3.64,-3.4 -0.03,-2.03 1.56,-3.82 3.54,-3.99 0.65,-0.05 13.52,-1.46 22,-15.79 0.55,-0.93 1.4,-1.55 2.33,-1.81" /><path
         id="path186"
         style="fill:#1d2a30;fill-opacity:1;fill-rule:nonzero;stroke:none"
         d="m 1484.48,2104.47 14.64,3.62 c 0,0 -7.34,-11.45 -14.64,-3.62" /><path
         id="path188"
         style="fill:#1d2a30;fill-opacity:1;fill-rule:nonzero;stroke:none"
         d="m 1455.23,2186.8 c 0,0 85.48,-57.73 132.71,-31.72 0,0 11.18,77.46 -104.63,83.54 -115.8,6.09 -228.72,-152.9 -72.32,-243.94 l -0.42,87.65 c 0,0 42.14,46.04 44.66,104.47" /><path
         id="path190"
         style="fill:#e9802a;fill-opacity:1;fill-rule:nonzero;stroke:none"
         d="m 1362.79,2057.3 c 8.37,-15.59 22.43,-25.65 35.49,-29.34 19.63,-5.55 28.61,13.75 22.44,33.77 -5.55,18.02 -22.45,42.62 -41.82,39.3 -19.09,-3.27 -25.69,-25.91 -16.11,-43.73" /><path
         id="path192"
         style="fill:#1d2a30;fill-opacity:1;fill-rule:nonzero;stroke:none"
         d="m 1485.75,2065.18 -2.12,0.18 -0.08,-2.01 c 0,-12.47 9.57,-23.05 22.22,-24.09 l 2,-0.08 c 12.48,0 23.06,9.58 24.1,22.23 v 0 l 0.08,1.99 c 0,12.48 -9.58,23.06 -22.23,24.11 l -1.99,0.08 c -12.48,0 -23.07,-9.58 -24.1,-22.24 v 0.01 l 2.12,-0.18 2.13,-0.17 c 0.84,10.42 9.58,18.32 19.85,18.32 l 1.64,-0.07 c 10.43,-0.85 18.32,-9.59 18.32,-19.86 l -0.07,-1.64 v 0 c -0.85,-10.42 -9.58,-18.32 -19.85,-18.32 l -1.65,0.07 c -10.42,0.85 -18.31,9.58 -18.31,19.84 l 0.07,1.66 v 0 l -2.13,0.17" /><path
         id="path194"
         style="fill:#1d2a30;fill-opacity:1;fill-rule:nonzero;stroke:none"
         d="m 1554.7,2065.18 -2.12,0.17 -0.08,-2 c 0,-12.48 9.58,-23.05 22.23,-24.1 l 1.99,-0.08 c 12.48,0 23.06,9.58 24.1,22.23 l 0.08,2.01 c 0,12.47 -9.58,23.05 -22.23,24.09 l -2,0.08 c -12.48,0 -23.06,-9.58 -24.09,-22.23 v 0 l 2.12,-0.17 2.13,-0.18 c 0.84,10.42 9.57,18.32 19.84,18.32 l 1.66,-0.07 c 10.42,-0.85 18.31,-9.58 18.31,-19.84 l -0.07,-1.66 c -0.84,-10.42 -9.58,-18.32 -19.85,-18.32 l -1.64,0.07 c -10.43,0.85 -18.32,9.58 -18.32,19.85 l 0.07,1.65 v 0 l -2.13,0.18" /><path
         id="path196"
         style="fill:#1d2a30;fill-opacity:1;fill-rule:nonzero;stroke:none"
         d="m 1556.12,2066.77 c -0.19,0.12 -5.76,5.2 -13.72,5.26 -4.39,0.02 -9.43,-1.73 -14,-6.57 l 0.07,-3.01 3.02,0.07 c 3.91,4.09 7.59,5.22 10.91,5.24 3,0.01 5.76,-1.03 7.76,-2.1 1,-0.54 1.81,-1.07 2.35,-1.47 l 0.61,-0.47 0.17,-0.14 3.01,0.18 -0.18,3.01" /><path
         id="path198"
         style="fill:#1d2a30;fill-opacity:1;fill-rule:nonzero;stroke:none"
         d="m 1486.41,2067.21 -74.59,24.31 c -1.12,0.37 -2.32,-0.24 -2.69,-1.36 -0.36,-1.12 0.25,-2.32 1.37,-2.69 l 74.59,-24.31 c 1.12,-0.37 2.32,0.24 2.69,1.36 0.36,1.12 -0.25,2.32 -1.37,2.69" /><path
         id="path200"
         style="fill:#1d2a30;fill-opacity:1;fill-rule:nonzero;stroke:none"
         d="m 1628.54,118.219 c -66.07,0 -74.8,1.019 -111.92,2.269 -16.81,0.602 -26.85,-0.226 -36.36,-1.058 -8.48,-0.739 -16.53,-1.481 -28.57,-1.211 -21.35,0.453 -20.55,20.883 -13.97,44.39 3.3,11.801 8.37,36.762 12.91,55.821 l 96.79,7.031 c 13.62,-26 44.35,-63.082 81.59,-68.082 35.53,-4.758 25.87,-39.16 -0.47,-39.16" /><path
         id="path202"
         style="fill:#1947a4;fill-opacity:1;fill-rule:nonzero;stroke:none"
         d="m 1229.34,1418.33 c 0,0 -161.22,-225.22 -83.89,-363.53 77.32,-138.308 506.94,-148.991 506.94,-148.991 0,0 -111.49,-170.039 -193.89,-683.231 l 94.41,-12.777 c 0,0 386.34,695.347 355.04,820.259 -31.3,124.9 -401.64,205.97 -401.64,205.97 l 2.71,123.66 -279.68,58.64" /><path
         id="path204"
         style="fill:#1947a4;fill-opacity:1;fill-rule:nonzero;stroke:none"
         d="m 1752.28,1141.47 c -145.92,66.68 -307.7,93.2 -315.7,94.49 -0.21,0.04 -0.31,0.07 -0.31,0.07 v 138.91 l 72.75,-15.25 -2.75,-123.68 c 0,0 133.48,-29.21 246.95,-79.6 -0.54,-4.91 -0.86,-9.9 -0.94,-14.94" /><path
         id="path206"
         style="fill:#a0a0a0;fill-opacity:1;fill-rule:nonzero;stroke:none"
         d="m 1458.5,222.602 -0.02,0.007 c 5.56,34.672 11.27,67.813 17.06,99.403 h 0.03 c -5.8,-31.621 -11.5,-64.723 -17.07,-99.434 m 17.53,101.934 H 1476 c 1.93,10.508 3.87,20.859 5.82,31.027 0.01,0.02 0.03,0.051 0.05,0.07 -1.96,-10.199 -3.91,-20.558 -5.84,-31.097" /><path
         id="path208"
         style="fill:#939493;fill-opacity:1;fill-rule:nonzero;stroke:none"
         d="m 1475.57,322.012 h -0.03 c 0.16,0.859 0.3,1.648 0.46,2.5 h 0.03 c -0.15,-0.821 -0.31,-1.672 -0.46,-2.5" /><path
         id="path210"
         style="fill:#244ca5;fill-opacity:1;fill-rule:nonzero;stroke:none"
         d="m 1552.88,209.809 -94.38,12.793 c 5.57,34.687 11.27,67.789 17.07,99.41 0.15,0.828 0.31,1.679 0.46,2.5 1.93,10.539 3.88,20.898 5.84,31.097 80.58,121.051 193.2,296.09 270.39,440.032 V 633.012 c -33.57,-77.301 -64.08,-153.293 -87.51,-213.551 -14.55,-28.141 -28.43,-54.602 -41.13,-78.602 l -11.27,4.672 -6.31,-37.73 c -32.01,-59.93 -53.16,-97.992 -53.16,-97.992 m 199.38,911.171 c -116.02,70.2 -306.9,113.03 -315.68,114.98 8,-1.29 169.78,-27.81 315.7,-94.49 -0.02,-0.86 -0.02,-1.71 -0.02,-2.57 v -17.92" /><path
         id="path212"
         style="fill:#1d2a30;fill-opacity:1;fill-rule:nonzero;stroke:none"
         d="m 1458.43,118.219 c -66.06,0 -74.79,1.019 -111.92,2.269 -16.8,0.602 -26.85,-0.226 -36.36,-1.058 -8.48,-0.739 -16.53,-1.481 -28.57,-1.211 -21.34,0.453 -20.54,20.883 -13.96,44.39 3.29,11.801 8.37,36.762 12.9,55.821 l 96.79,7.031 c 13.63,-26 44.35,-63.082 81.59,-68.082 35.53,-4.758 25.87,-39.16 -0.47,-39.16" /><path
         id="path214"
         style="fill:#1947a4;fill-opacity:1;fill-rule:nonzero;stroke:none"
         d="m 1204.8,1432.46 c 0,0 -206.718,-239.35 -129.4,-377.66 77.33,-138.308 506.95,-148.991 506.95,-148.991 0,0 -209.58,-222.239 -293.96,-683.231 l 94.42,-12.777 c 0,0 486.4,695.347 455.1,820.259 -31.3,124.9 -401.64,205.97 -401.64,205.97 v 141.06 l -231.47,55.37" /><path
         id="path216"
         style="fill:#1947a4;fill-opacity:1;fill-rule:nonzero;stroke:none"
         d="m 1382.81,209.801 -94.42,12.777 c 84.38,460.992 293.96,683.231 293.96,683.231 v 0 0 c 0,0 -49.07,1.222 -117,8.171 -54.89,5.622 -122.08,14.969 -185.72,30.442 -90.7,22.058 -174.14,56.558 -204.23,110.378 -11.23,20.1 -16.47,42.32 -17.22,65.64 h 47.27 v 0 h 0.01 c 38.34,82.64 77.68,162.93 114.08,229.26 6.34,11.54 12.59,22.67 18.74,33.31 7,12.15 13.6,24.4 19.8,36.7 l 178.19,-42.62 v -141.06 0 c 0,0 197.22,-43.18 315.99,-115.05 V 1107 1107 795.641 C 1675.07,651.699 1562.45,476.66 1481.87,355.609 c -0.02,-0.019 -0.04,-0.05 -0.05,-0.07 -7.18,-10.789 -14.11,-21.148 -20.74,-31.027 -0.55,-0.832 -1.12,-1.672 -1.67,-2.5 -45.72,-68.063 -76.6,-112.211 -76.6,-112.211" /><path
         id="path218"
         style="fill:#1947a4;fill-opacity:1;fill-rule:nonzero;stroke:none"
         d="m 1105.46,1120.44 c 45.03,97.06 91.44,190.89 132.85,262.65 142.91,247.62 111.95,534.48 111.95,534.48 0,0 -113.15,-19.18 -125.76,-23.19 -12.63,-4.02 -42.98,-422.53 -42.98,-422.53 -59.97,-82.78 -124.64,-216.51 -182.071,-351.41 h 106.011" /><path
         id="path220"
         style="fill:#b4caec;fill-opacity:1;fill-rule:nonzero;stroke:none"
         d="m 1258.08,1419.71 v 0.01 c 11.02,21.84 20.78,43.86 29.44,65.84 -8.64,-21.96 -18.42,-43.99 -29.44,-65.85" /><path
         id="path222"
         style="fill:#adc1e8;fill-opacity:1;fill-rule:nonzero;stroke:none"
         d="m 1219.54,1349.7 c 6.35,11.57 12.62,22.72 18.77,33.39 7,12.12 13.58,24.35 19.77,36.63 v -0.01 c -6.2,-12.3 -12.8,-24.55 -19.8,-36.7 -6.15,-10.64 -12.4,-21.77 -18.74,-33.31" /><path
         id="path224"
         style="fill:#f6f7f7;fill-opacity:1;fill-rule:nonzero;stroke:none"
         d="m 1224.34,1894.35 c 0.05,0.02 0.09,0.04 0.13,0.06 12.61,4 125.71,23.2 125.71,23.2 0,0 0,-0.02 0,-0.05 -3.32,-0.57 -113,-19.19 -125.64,-23.17 -0.02,0.02 -0.03,0.02 -0.03,0.02 -0.06,-0.02 -0.11,-0.04 -0.17,-0.06" /><path
         id="path226"
         style="fill:#b4caec;fill-opacity:1;fill-rule:nonzero;stroke:none"
         d="M 1105.45,1120.44 H 999.469 c 57.441,134.9 122.111,268.6 182.101,351.37 0,0 5.3,73.7 12.5,159.6 1.11,13.2 2.21,26.7 3.41,40.2 1.03,12.07 2.09,24.2 3.18,36.23 v 0 c -1.09,-12.03 -2.15,-24.16 -3.18,-36.23 -1.2,-13.5 -2.3,-27 -3.41,-40.2 21.93,-47.03 52.35,-103.08 82.12,-128.1 3.99,-6.06 7.99,-11.48 11.95,-16.16 -0.21,-0.53 -0.41,-1.06 -0.62,-1.59 -8.66,-21.98 -18.42,-44 -29.44,-65.84 v 0 c -6.19,-12.28 -12.77,-24.51 -19.77,-36.63 -6.15,-10.67 -12.42,-21.82 -18.77,-33.39 -36.41,-66.31 -75.75,-146.6 -114.09,-229.26 m 192.98,674.73 c -2.2,6.25 -4.26,11.88 -6.13,16.75 -17.85,46.21 -66.28,81.41 -67.76,82.47 12.64,3.98 122.32,22.6 125.64,23.17 0,-0.01 0,-0.02 0,-0.03 l -85.11,-46.06 59.78,-43.98 -26.42,-32.32" /><path
         id="path228"
         style="fill:#1947a4;fill-opacity:1;fill-rule:nonzero;stroke:none"
         d="m 1350.26,1917.57 -85.19,-46.1 59.78,-43.98 -32.29,-39.5 17.4,-237.91 c 0,0 95.4,229.69 40.3,367.49" /><path
         id="path230"
         style="fill:#c7d9f2;fill-opacity:1;fill-rule:nonzero;stroke:none"
         d="m 1344.02,1654.57 c -14.7,45.64 -32.61,103.74 -45.59,140.6 l 26.42,32.32 -59.78,43.98 85.19,46.1 c 12.35,-30.88 17.14,-66.38 17.13,-102.88 0,-55.28 -11,-112.85 -23.37,-160.12" /><path
         id="path232"
         style="fill:#a0b5e3;fill-opacity:1;fill-rule:nonzero;stroke:none"
         d="m 1276.19,1503.31 c -29.77,25.02 -60.19,81.07 -82.12,128.1 1.11,13.2 2.21,26.7 3.41,40.2 1.03,12.07 2.09,24.2 3.18,36.23 15.57,-77.26 45.51,-158.96 75.53,-204.53" /><path
         id="path234"
         style="fill:#1d2a30;fill-opacity:1;fill-rule:nonzero;stroke:none"
         d="m 1687.67,1514.07 c 0,0 25.05,61.07 56.7,93.9 31.65,32.84 159.56,13.89 163.52,8.86 3.95,-5.03 11.87,-57.32 3.95,-80.63 -7.91,-23.3 -97.58,-70.77 -97.58,-70.77 H 1696.9 c 0,0 -18.1,29.12 -9.23,48.64" /><path
         id="path236"
         style="fill:#ccdcf3;fill-opacity:1;fill-rule:nonzero;stroke:none"
         d="m 1696.88,1465.41 v 0 c 0,0 -18.11,29.1 -9.2,48.7 0,0 0.25,0.62 0.74,1.77 0,0 0,0 0.01,0 -0.5,-1.17 -0.76,-1.81 -0.76,-1.81 -8.8,-19.37 8.95,-48.19 9.23,-48.63 -0.02,-0.02 -0.02,-0.03 -0.02,-0.03" /><path
         id="path238"
         style="fill:#ffffff;fill-opacity:1;fill-rule:nonzero;stroke:none"
         d="m 1914.87,1552.81 c -0.01,0.01 -0.03,0.01 -0.04,0.02 1.57,20.46 -1.81,46.68 -4.84,58.34 3.04,-11.64 6.41,-37.9 4.88,-58.36 v 0 m -182.51,41.09 c 3.86,5.05 7.88,9.82 12.01,14.11 3.65,3.79 8.59,6.89 14.47,9.4 l -0.07,-0.06 c -5.85,-2.51 -10.76,-5.6 -14.4,-9.38 -4.1,-4.26 -8.09,-8.98 -11.93,-14 l -0.08,-0.07" /><path
         id="path240"
         style="fill:#f29489;fill-opacity:1;fill-rule:nonzero;stroke:none"
         d="m 1902.76,1618.81 c -12.58,3.29 -46,8.03 -79.54,8.03 -8.02,0 -16.05,-0.28 -23.79,-0.9 l -0.02,0.02 c 7.75,0.63 15.78,0.9 23.8,0.9 33.55,0 66.97,-4.74 79.55,-8.05" /><path
         id="path242"
         style="fill:#799bd7;fill-opacity:1;fill-rule:nonzero;stroke:none"
         d="m 1732.35,1593.89 c 0,0 0,0.01 0.01,0.01 l 0.08,0.07 c -0.01,0 -0.01,-0.01 -0.02,-0.01 l -0.07,-0.07 m 67.05,32.05 -0.02,0.02 c 0.01,0 0.01,0 0.03,0 l 0.02,-0.02 c -0.01,0 -0.02,0 -0.03,0" /><path
         id="path244"
         style="fill:#ffffff;fill-opacity:1;fill-rule:nonzero;stroke:none"
         d="m 1758.77,1617.35 0.07,0.06 c 0.01,0 0.02,0 0.03,0.01 l -0.07,-0.06 c -0.01,-0.01 -0.02,-0.01 -0.03,-0.01" /><path
         id="path246"
         style="fill:#ccdcf3;fill-opacity:1;fill-rule:nonzero;stroke:none"
         d="m 1720.19,1576.45 c 3.83,5.98 7.9,11.88 12.16,17.44 l 0.07,0.07 c -4.27,-5.58 -8.36,-11.51 -12.2,-17.51 h -0.03 m 38.61,40.91 0.07,0.06 c 10.95,4.66 25.19,7.3 40.51,8.54 l 0.02,-0.02 c -15.36,-1.25 -29.63,-3.89 -40.6,-8.58" /><path
         id="path248"
         style="fill:#5d6c72;fill-opacity:1;fill-rule:nonzero;stroke:none"
         d="m 1696.9,1465.44 c -0.28,0.44 -18.03,29.26 -9.23,48.63 0,0 0.26,0.64 0.76,1.81 14.3,-8.31 29.48,-11.36 41.44,-12.27 -17.24,-19.75 -32.34,-37.44 -32.97,-38.17 m 217.93,87.39 c -17.82,5.09 -64.9,6.97 -98.34,6.97 -2.43,0 -4.78,-0.01 -7.05,-0.03 l -48.68,21.04 -40.54,-4.36 c 3.84,6 7.93,11.93 12.2,17.51 0.01,0 0.01,0.01 0.02,0.01 3.84,5.02 7.83,9.74 11.93,14 3.64,3.78 8.55,6.87 14.4,9.38 0.01,0 0.02,0 0.03,0.01 10.97,4.69 25.24,7.33 40.6,8.58 0.01,0 0.02,0 0.03,0 7.74,0.62 15.77,0.9 23.79,0.9 33.54,0 66.96,-4.74 79.54,-8.03 2.91,-0.77 4.7,-1.46 5.12,-2 0.63,-0.79 1.36,-2.77 2.11,-5.64 3.03,-11.66 6.41,-37.88 4.84,-58.34" /><path
         id="path250"
         style="fill:#e8e8e7;fill-opacity:1;fill-rule:nonzero;stroke:none"
         d="m 1814.27,1465.41 h -12.09 c 0.01,0.01 0.01,0.01 0.01,0.02 h 12.07 c 0,0 89.67,47.47 97.58,70.77 1.56,4.61 2.51,10.35 2.99,16.63 0.01,-0.01 0.03,-0.01 0.04,-0.02 -0.49,-6.29 -1.5,-12 -2.99,-16.6 -7.91,-23.3 -97.61,-70.8 -97.61,-70.8 m -16.59,0 h -51.37 c 0,0.01 0.01,0.02 0.02,0.02 h 51.36 c 0,-0.01 -0.01,-0.01 -0.01,-0.02" /><path
         id="path252"
         style="fill:#516065;fill-opacity:1;fill-rule:nonzero;stroke:none"
         d="m 1802.18,1465.41 h -4.5 c 0,0.01 0.01,0.01 0.01,0.02 h 4.5 c 0,-0.01 0,-0.01 -0.01,-0.02" /><path
         id="path254"
         style="fill:#e8e8e6;fill-opacity:1;fill-rule:nonzero;stroke:none"
         d="m 1746.31,1465.41 h -0.03 c 0.01,0.01 0.02,0.02 0.02,0.02 h 0.03 c -0.01,0 -0.02,-0.01 -0.02,-0.02" /><path
         id="path256"
         style="fill:#b5c5e9;fill-opacity:1;fill-rule:nonzero;stroke:none"
         d="m 1746.28,1465.41 h -49.4 c 0,0 0,0.01 0.02,0.03 0,-0.01 0,-0.01 0,-0.01 h 49.4 c 0,0 -0.01,-0.01 -0.02,-0.02" /><path
         id="path258"
         style="fill:#516065;fill-opacity:1;fill-rule:nonzero;stroke:none"
         d="M 1814.26,1465.43 H 1696.9 c 0,0 0,0 0,0.01 0.63,0.73 15.73,18.42 32.97,38.17 3.17,-0.24 6.11,-0.33 8.76,-0.33 8.3,0 13.63,0.9 13.63,0.9 l 35.86,-10.44 38.57,58.58 -17.25,7.45 c 2.27,0.02 4.62,0.03 7.05,0.03 33.44,0 80.52,-1.88 98.34,-6.97 -0.48,-6.28 -1.43,-12.02 -2.99,-16.63 -7.91,-23.3 -97.58,-70.77 -97.58,-70.77" /><path
         id="path260"
         style="fill:#e9802a;fill-opacity:1;fill-rule:nonzero;stroke:none"
         d="m 1543.75,1561.58 135.91,10.51 81.1,8.72 65.93,-28.49 -38.57,-58.58 -35.86,10.44 c 0,0 -35.01,-5.94 -65.39,12.63 l -119.58,-9.99 -23.54,54.76" /><path
         id="path262"
         style="fill:#1d2a30;fill-opacity:1;fill-rule:nonzero;stroke:none"
         d="m 1408.51,1866.93 c -41.6,69.09 -27.78,190.91 -26.99,197.52 0.14,1.13 1.16,1.93 2.28,1.79 1.14,-0.12 1.93,-1.15 1.8,-2.28 -0.19,-1.57 -13.72,-120.79 24.31,-190.43 l -1.4,-6.6" /><path
         id="path264"
         style="fill:#a5adad;fill-opacity:1;fill-rule:nonzero;stroke:none"
         d="m 1408.51,1866.93 c -24.58,40.82 -29.81,100.05 -29.81,143.04 -0.01,20.75 1.21,37.72 2.06,47.02 l 4.21,0.52 c -0.44,-5.09 -1.02,-12.96 -1.41,-22.78 -0.26,-6.25 -0.43,-13.3 -0.45,-20.91 0,-0.43 0,-0.85 0,-1.27 0,-41.16 4.67,-98.49 26.8,-139.02 l -0.03,-0.13 -1.37,-6.47" /><path
         id="path266"
         style="fill:#1d2a30;fill-opacity:1;fill-rule:nonzero;stroke:none"
         d="m 1384.97,2057.51 c 2.44,1.98 5.47,0.62 5.78,7.27 0.3,6.66 -11.06,9.53 -9.99,-7.79 l 4.21,0.52" /><path
         id="path268"
         style="fill:#a5adad;fill-opacity:1;fill-rule:nonzero;stroke:none"
         d="m 1380.76,2056.99 c -0.05,0.79 -0.07,1.53 -0.07,2.23 0,7.89 2.93,10.76 5.63,10.76 2.3,0 4.43,-2.09 4.43,-4.92 0,-0.09 0,-0.19 0,-0.28 -0.31,-6.65 -3.34,-5.29 -5.78,-7.27 v 0 l -4.21,-0.52 v 0" /><path
         id="path270"
         style="fill:#1d2a30;fill-opacity:1;fill-rule:nonzero;stroke:none"
         d="m 1384.45,1927.72 c 4.84,-23.5 12.5,-46.39 24.6,-65.25 12.07,-18.85 28.78,-33.71 51.26,-40.39 7.23,-2.16 14.01,-3.19 20.37,-3.19 18.94,-0.05 33.75,9.33 44.43,23.33 10.76,14 17.91,32.6 22.84,52.28 0.55,2.2 -0.78,4.43 -2.98,4.98 -2.2,0.55 -4.43,-0.79 -4.98,-2.99 -4.75,-19.04 -11.69,-36.7 -21.38,-49.27 -9.77,-12.58 -21.76,-20.07 -37.93,-20.13 -5.47,0 -11.46,0.89 -18.02,2.85 -20.32,6.07 -35.35,19.31 -46.7,36.96 -11.33,17.63 -18.77,39.62 -23.48,62.47 -0.45,2.22 -2.62,3.65 -4.84,3.19 -2.22,-0.45 -3.65,-2.62 -3.19,-4.84" /><path
         id="path272"
         style="fill:#1d2a30;fill-opacity:1;fill-rule:nonzero;stroke:none"
         d="m 1469.18,1823.89 c 0,-0.08 -6.83,-73.6 -6.83,-159.1 0.01,-66.64 4.1,-140.46 19.02,-192.94 6.08,-21.1 22.82,-39.64 37.63,-58.33 14.92,-18.66 27.66,-37.21 27.57,-56.64 0,-4.26 -0.59,-8.6 -1.89,-13.09 -0.63,-2.18 0.62,-4.45 2.79,-5.08 2.18,-0.63 4.46,0.62 5.09,2.79 1.52,5.23 2.21,10.36 2.21,15.38 -0.09,23.13 -14.41,42.88 -29.35,61.75 -15.07,18.85 -31.01,37.07 -36.16,55.46 -14.53,50.97 -18.72,124.45 -18.71,190.7 0,42.54 1.7,82.14 3.4,111.1 0.85,14.48 1.7,26.3 2.34,34.49 0.64,8.2 1.06,12.74 1.06,12.75 0.21,2.25 -1.45,4.25 -3.7,4.46 -2.26,0.21 -4.26,-1.45 -4.47,-3.7" /><path
         id="path274"
         style="fill:#1947a4;fill-opacity:1;fill-rule:nonzero;stroke:none"
         d="m 1533.75,1364.41 32.28,-4.72 c 0,0 -19.53,-101.97 -52.84,-85.7 l 20.56,90.42" /><path
         id="path276"
         style="fill:#b4caec;fill-opacity:1;fill-rule:nonzero;stroke:none"
         d="m 1520.35,1272.23 c -2.31,0 -4.69,0.55 -7.15,1.75 0,0 0,0 -0.01,0.01 l 20.56,90.42 32.28,-4.72 c 0,0 -16.75,-87.46 -45.68,-87.46" /><path
         id="path278"
         style="fill:#1947a4;fill-opacity:1;fill-rule:nonzero;stroke:none"
         d="m 1224.51,1894.41 c -92.76,-37.49 21.35,-417.19 91.72,-427.08 70.37,-9.9 341.67,23.78 341.67,23.78 v 89.7 c 0,0 -279.57,-7.79 -289.46,6.06 -9.89,13.84 -54.75,169.63 -76.14,225.05 -18.13,46.93 -67.79,82.49 -67.79,82.49" /><path
         id="path280"
         style="fill:#b4caec;fill-opacity:1;fill-rule:nonzero;stroke:none"
         d="m 1352.16,1465.51 c -14.6,0 -26.92,0.55 -35.93,1.82 -8.84,1.24 -18.37,8.31 -28.09,19.82 -3.96,4.68 -7.96,10.1 -11.95,16.16 -43.34,65.78 -86.5,206.88 -86.51,301.15 0,45.39 10.01,79.92 34.83,89.95 0,0 49.66,-35.56 67.79,-82.49 21.39,-55.42 66.25,-211.21 76.14,-225.05 4.66,-6.52 68.99,-8.24 135.84,-8.24 75.22,0 153.62,2.18 153.62,2.18 v -89.7 c 0,0 -7.67,-0.95 -20.79,-2.49 -10.68,-1.25 -24.98,-2.9 -41.65,-4.73 v 0 0 c -5.73,-0.63 -11.72,-1.28 -17.96,-1.94 -9.92,-1.06 -20.42,-2.16 -31.31,-3.25 -18.13,-1.83 -37.34,-3.67 -56.71,-5.37 -2.78,-0.24 -5.55,-0.48 -8.33,-0.72 -47.14,-4.02 -94.49,-7.1 -128.99,-7.1" /><path
         id="path282"
         style="fill:#1d2a30;fill-opacity:1;fill-rule:nonzero;stroke:none"
         d="m 2338.48,706.051 h 952.92 c 23.24,0 42.08,18.828 42.08,42.078 v 653.891 c 0,102.09 -82.76,184.85 -184.84,184.85 h -667.39 c -102.09,0 -184.85,-82.76 -184.85,-184.85 V 748.129 c 0,-23.25 18.84,-42.078 42.08,-42.078" /><path
         id="path284"
         style="fill:#758288;fill-opacity:1;fill-rule:nonzero;stroke:none"
         d="m 2940.75,793.43 h -94.27 c 0.2,0.129 0.4,0.25 0.6,0.379 48.15,30.882 76.78,85 93.67,142.179 V 793.43 m -570.9,264.16 c -25.93,1.43 -50.38,2.35 -73.45,2.8 v 46.61 0 0 62.63 c 9.97,6.66 19.27,15.69 27.9,26.26 33.96,41.67 58.33,108.06 72.28,153.95 7.17,4.94 16.71,12.62 27.71,22.08 l 7.68,-7.51 9.22,8.9 c 0.95,-0.41 1.97,-0.62 3,-0.62 1.87,0 3.75,0.7 5.21,2.1 l 50.03,47.76 c 1.57,1.49 2.35,3.5 2.34,5.51 0,1.06 -0.23,2.13 -0.68,3.11 l 4.72,4.57 -1.08,1.23 c 4.59,1.26 9.65,3.47 14.97,6.36 -0.42,-5.82 -0.92,-11.59 -1.53,-17.32 -83.5,-128.2 -83.2,-263.7 -62.79,-322.7 l 5.8,-0.13 -42.6,-43.1 c -17.18,-0.53 -33.42,-1.37 -48.73,-2.49 m -73.45,117.22 v 140.72 c 42.32,11.2 80.38,22.65 94.63,30.78 -8.07,-26 -19.3,-57.75 -33.48,-87.54 -12.35,-25.94 -26.94,-50.38 -43.53,-68.22 -5.66,-6.08 -11.54,-11.39 -17.62,-15.74 m 1037.08,116.95 c -11.96,2.38 -24.33,3.63 -36.98,3.63 h -157.4 c 35.44,14.96 71.53,41.69 87.37,87.85 15.6,45.42 -21.12,126.32 -73.3,203.57 100,-2.4 180.31,-84.21 180.31,-184.79 v -110.26 m -323.34,48.34 c 2.46,21.19 4.45,41.62 6.04,61.31 v 0 c 2.48,30.48 4,59.19 4.79,86.09 l 76.27,-69.17 c -37.43,-25.35 -55.01,-51.63 -61.58,-74.47 l -25.52,-3.76 m -713.11,77.4 c 6.17,74.38 56.38,136.26 124.48,159.5 -4.81,-11.13 -8.47,-21.95 -10.7,-32.17 -0.21,-0.31 -0.4,-0.62 -0.61,-0.93 l -1.97,2.23 -6.46,-8.91 c -0.7,0.2 -1.41,0.3 -2.13,0.3 -2.28,0 -4.56,-1.02 -6.06,-3.04 l -44.74,-60.02 c -1,-1.33 -1.49,-2.9 -1.5,-4.47 -0.01,-1.85 0.65,-3.68 1.95,-5.12 l -8.31,-11.46 8.29,-8.11 c -0.5,-0.89 -0.85,-1.53 -1.04,-1.9 -1.77,-3.5 -22.69,-13.53 -51.2,-25.9" /><path
         id="path286"
         style="fill:#1d2a30;fill-opacity:1;fill-rule:nonzero;stroke:none"
         d="M 1752.26,125.75 H 2296.4 V 1107 c 0,104.05 -84.35,188.39 -188.39,188.39 h -167.37 c -104.04,0 -188.38,-84.34 -188.38,-188.39 V 125.75" /><path
         id="path288"
         style="fill:#758288;fill-opacity:1;fill-rule:nonzero;stroke:none"
         d="m 2131.15,125.75 h -65.9 v 272.961 c 2.14,2.469 4.3,4.969 6.45,7.461 18.22,-9.981 38.24,-17.07 59.45,-20.692 V 125.75 m -65.9,917.41 v 95.74 c 0,81.3 -62,148.12 -141.29,155.76 5.5,0.49 11.06,0.73 16.68,0.73 h 167.37 c 9.34,0 18.52,-0.68 27.5,-1.99 l 3.62,-12.99 c -2.02,3.86 -4.04,7.83 -6.08,11.91 -0.37,0.75 -1.12,1.18 -1.9,1.18 -0.32,0 -0.65,-0.07 -0.95,-0.23 -1.06,-0.52 -1.48,-1.8 -0.96,-2.85 24.23,-48.56 47.08,-81.73 68.63,-102.86 21.54,-21.12 41.91,-30.26 60.9,-30.26 10.08,0.01 19.65,2.57 28.72,7.12 5.78,-18.1 8.91,-37.39 8.91,-57.42 v -46.61 c -11.42,0.22 -22.49,0.33 -33.24,0.33 -31.82,0 -60.77,-0.95 -87.09,-2.71 -43.89,-2.95 -80.42,-8.11 -110.82,-14.85 m 193.55,118.4 c -0.01,0 -0.02,0 -0.03,0 -17.57,0 -36.85,8.4 -57.91,29.04 -18.92,18.54 -39.17,46.94 -60.57,87.59 2.46,0.54 13.59,2.98 29.94,6.68 54.23,-18.96 97.14,-62.03 115.9,-116.36 -8.72,-4.48 -17.84,-6.95 -27.33,-6.95" /><path
         id="path290"
         style="fill:#bec3c3;fill-opacity:1;fill-rule:nonzero;stroke:none"
         d="m 2065.25,125.75 h -312.99 v 131.641 l 12.57,25 -5.67,2.347 c 17.03,16.672 34.51,34.742 52.15,53.801 l -8.51,-50.867 18.38,-7.242 -46.96,-125.711 72.65,-28.25 45.67,87.679 0.04,-0.019 16.51,31.68 31.27,-12.309 24.6,48.891 -5.73,2.371 c 34.26,33.539 70.26,72.679 106.02,113.949 V 125.75 m -231.84,211.109 -17.11,7.09 c 11.32,12.281 22.7,24.942 34.09,37.86 -6.56,-17.18 -12.27,-32.321 -16.98,-44.95" /><path
         id="path292"
         style="fill:#ffffff;fill-opacity:1;fill-rule:nonzero;stroke:none"
         d="m 1757.95,1154.32 c -1.57,0.71 -3.14,1.42 -4.72,2.12 0.41,3.71 0.96,7.38 1.62,11.01 0.9,-4.47 1.93,-8.85 3.1,-13.13 m 2.46,7.67 c -1.25,5.3 -2.29,10.75 -3.14,16.34 17.48,67.34 78.67,117.06 151.49,117.06 5.12,0 10.2,-0.24 15.2,-0.73 -77.53,-6.81 -141.58,-60.56 -163.55,-132.67" /><path
         id="path294"
         style="fill:#8e989b;fill-opacity:1;fill-rule:nonzero;stroke:none"
         d="m 1758.22,1154.2 c -0.09,0.05 -0.17,0.08 -0.27,0.12 -1.17,4.28 -2.2,8.66 -3.1,13.13 0.68,3.67 1.49,7.3 2.42,10.88 0.85,-5.59 1.89,-11.04 3.14,-16.34 -0.78,-2.57 -1.52,-5.17 -2.19,-7.79" /><path
         id="path296"
         style="fill:#a1bce6;fill-opacity:1;fill-rule:nonzero;stroke:none"
         d="m 1758.21,1154.18 c -1.65,0.74 -3.32,1.49 -4.99,2.23 0.01,0.01 0.01,0.02 0.01,0.03 1.58,-0.7 3.15,-1.41 4.72,-2.12 0.1,-0.04 0.18,-0.07 0.27,-0.12 -0.01,-0.01 -0.01,-0.01 -0.01,-0.02" /><path
         id="path298"
         style="fill:#97b1e1;fill-opacity:1;fill-rule:nonzero;stroke:none"
         d="m 1755.16,1140.14 c -0.96,0.45 -1.92,0.89 -2.88,1.33 0.08,5.04 0.4,10.03 0.94,14.94 1.67,-0.74 3.34,-1.49 4.99,-2.23 -1.19,-4.61 -2.21,-9.3 -3.05,-14.04" /><path
         id="path300"
         style="fill:#90a6d8;fill-opacity:1;fill-rule:nonzero;stroke:none"
         d="m 1752.74,1120.68 c -0.16,0.11 -0.32,0.2 -0.48,0.3 v 17.92 c 0,0.86 0,1.71 0.02,2.57 0.96,-0.44 1.92,-0.88 2.88,-1.33 -1.13,-6.38 -1.94,-12.86 -2.42,-19.46" /><path
         id="path302"
         style="fill:#97b1e1;fill-opacity:1;fill-rule:nonzero;stroke:none"
         d="m 1752.26,1107 v 13.98 c 0.16,-0.1 0.32,-0.19 0.48,-0.3 -0.32,-4.51 -0.48,-9.08 -0.48,-13.68" /><path
         id="path304"
         style="fill:#bec3c3;fill-opacity:1;fill-rule:nonzero;stroke:none"
         d="M 1752.26,633.012 V 1107 c 0,98.42 75.47,179.21 171.7,187.66 79.29,-7.64 141.29,-74.46 141.29,-155.76 v -95.74 c -33.53,-7.43 -59.58,-16.77 -79.78,-27.15 -3.59,-1.7 -7.1,-3.6 -10.8,-5.9 -23.29,-13.801 -37.4,-29.001 -45.49,-43.598 -54.7,-68.383 -120.18,-202.813 -176.92,-333.5" /><path
         id="path306"
         style="fill:#1d2a30;fill-opacity:1;fill-rule:nonzero;stroke:none"
         d="M 2131.15,125.75 H 3141.28 V 517.191 H 2131.15 Z" /><path
         id="path308"
         style="fill:#758288;fill-opacity:1;fill-rule:nonzero;stroke:none"
         d="m 2940.75,125.75 h -809.6 v 259.73 c 10.53,-1.789 21.35,-2.718 32.39,-2.718 h 726.19 v 0 h 51.02 V 125.75" /><path
         id="path310"
         style="fill:#1d2a30;fill-opacity:1;fill-rule:nonzero;stroke:none"
         d="m 2163.54,382.762 h 875.75 c 105.78,0 191.53,85.75 191.53,191.527 v 27.621 c 0,105.77 -85.76,191.52 -191.53,191.52 h -875.75 c -105.78,0 -191.53,-85.75 -191.53,-191.52 v -27.621 c 0,-105.777 85.75,-191.527 191.53,-191.527" /><path
         id="path312"
         style="fill:#a5adad;fill-opacity:1;fill-rule:nonzero;stroke:none"
         d="m 2889.73,382.762 h -726.19 c -33.28,0 -64.58,8.48 -91.84,23.41 117.7,136.769 231.17,293.988 267.53,345.187 22.08,-0.98 44.56,-1.55 66.95,-1.55 31.31,0 62.41,1.121 91.92,3.832 34.82,-2.321 71.58,-3.852 108.07,-3.852 74.94,0 148.74,6.441 202.35,25.621 -65.18,-30.558 -110.32,-96.769 -110.32,-173.5 v -27.621 c 0,-105.777 85.75,-191.527 191.53,-191.527 m -62.69,400.168 c 6.96,3.218 13.46,6.711 19.44,10.5 h 94.27 -51.02 c -21.96,0 -43.05,-3.7 -62.69,-10.5" /><path
         id="path314"
         style="fill:#80888b;fill-opacity:1;fill-rule:nonzero;stroke:none"
         d="m 2940.75,382.762 h -51.02 c -105.78,0 -191.53,85.75 -191.53,191.527 v 27.621 c 0,76.731 45.14,142.942 110.32,173.5 6.47,2.309 12.66,4.82 18.52,7.52 19.64,6.8 40.73,10.5 62.69,10.5 h 51.02 V 382.762" /><path
         id="path316"
         style="fill:#1d2a30;fill-opacity:1;fill-rule:nonzero;stroke:none"
         d="m 2406.2,1401.87 c -0.01,-0.01 -0.83,-3.75 -2.47,-10.35 -5.76,-23.08 -21.49,-80.88 -46.18,-132.75 -12.35,-25.94 -26.94,-50.38 -43.53,-68.22 -16.62,-17.86 -35.07,-29 -55.25,-28.99 -17.57,0 -36.85,8.4 -57.91,29.04 -21.04,20.62 -43.72,53.42 -67.81,101.72 -0.52,1.05 -1.8,1.48 -2.85,0.95 -1.06,-0.52 -1.48,-1.8 -0.96,-2.85 24.23,-48.56 47.08,-81.73 68.63,-102.86 21.54,-21.12 41.91,-30.26 60.9,-30.26 24.98,0.02 46.83,15.68 65.53,38.59 56.06,68.79 85.98,204.92 86.06,205.06 0.25,1.15 -0.48,2.28 -1.62,2.54 -1.15,0.25 -2.29,-0.47 -2.54,-1.62" /><path
         id="path318"
         style="fill:#e9802a;fill-opacity:1;fill-rule:nonzero;stroke:none"
         d="m 2601.42,1768.53 c -81.1,-32.26 -247.25,-313.39 -253.19,-325.13 -5.93,-11.75 -227.47,-97.01 -227.47,-97.01 l 19.02,-68.31 c 0,0 213.23,46.35 251.39,68.31 38.17,21.97 192.1,176.91 192.1,176.91 l 18.15,245.23" /><path
         id="path320"
         style="fill:#1947a4;fill-opacity:1;fill-rule:nonzero;stroke:none"
         d="m 2601.38,1768.51 -3.9,-261.7 c 0,0 -19.71,-20.2 -42.81,-39.1 -20.6,-16.7 -43.8,-32.4 -58.4,-31.9 l -87.99,87.5 c 0.09,79.7 120,216.9 193.1,245.2" /><path
         id="path322"
         style="fill:#1947a4;fill-opacity:1;fill-rule:nonzero;stroke:none"
         d="m 2504.73,1436.97 -13.23,14.97 c -2.99,28.52 13.9,70.27 29.54,101.79 0.59,-37.63 1.22,-74.79 -1.34,-110.4 -5.32,-2.89 -10.38,-5.1 -14.97,-6.36" /><path
         id="path324"
         style="fill:#e9802a;fill-opacity:1;fill-rule:nonzero;stroke:none"
         d="m 1646.75,136.469 -72.66,28.25 82.94,222 102.69,-33.348 -112.97,-216.902" /><path
         id="path326"
         style="fill:#cecdcc;fill-opacity:1;fill-rule:nonzero;stroke:none"
         d="m 1692.46,224.141 -0.04,0.007 12.18,23.383 0.04,-0.011 -12.18,-23.379" /><path
         id="path328"
         style="fill:#e75656;fill-opacity:1;fill-rule:nonzero;stroke:none"
         d="m 1692.42,224.148 -84.66,30.692 10.04,26.871 86.8,-34.18 -12.18,-23.383" /><path
         id="path330"
         style="fill:#1d2a30;fill-opacity:1;fill-rule:nonzero;stroke:none"
         d="m 2646.97,793.809 c -52.5,-33.598 -145.69,-44 -240.79,-44 -96.81,0 -195.51,10.703 -255,18.601 0,0 -176,-252.699 -337.41,-427.199 -28.3,-30.699 -56.2,-58.902 -82.59,-82.902 l -113.21,37.101 c 0,0 184.51,512.699 311.21,671.102 8.09,14.597 22.2,29.797 45.49,43.598 3.7,2.3 7.21,4.2 10.8,5.9 38.51,19.8 98.3,35.8 190.6,42 62.9,4.2 140.8,3.8 237.3,-3.2 l 110.6,111.9 239,-9.7 c 0,0 20.8,-275.401 -116,-363.201" /><path
         id="path332"
         style="fill:#182124;fill-opacity:1;fill-rule:nonzero;stroke:none"
         d="m 1816.3,343.949 -2.7,1.11 c -16.23,381.011 190.66,598.64 362.47,712.951 26.32,1.76 55.27,2.71 87.09,2.71 32.47,0 67.93,-0.99 106.69,-3.13 -88.66,-6.46 -146.64,-22.26 -184.28,-41.53 -3.53,-1.71 -7.11,-3.66 -10.77,-5.94 -23.31,-13.811 -37.37,-28.979 -45.53,-43.6 -94.23,-117.829 -220.4,-431.622 -278.88,-584.711 -11.39,-12.918 -22.77,-25.579 -34.09,-37.86" /><path
         id="path334"
         style="fill:#182124;fill-opacity:1;fill-rule:nonzero;stroke:none"
         d="m 2406.18,749.809 c -22.39,0 -44.87,0.57 -66.95,1.55 7.78,10.961 12.03,17.063 12.03,17.063 37.04,-4.922 89.3,-10.942 146.84,-14.781 -29.51,-2.711 -60.61,-3.832 -91.92,-3.832 m 207.35,304.991 c -56.2,4.09 -106.13,5.94 -150.44,5.94 -15.52,0 -30.33,-0.23 -44.51,-0.66 l 42.6,43.1 195.65,-4.58 -43.3,-43.8" /><path
         id="path336"
         style="fill:#1d2a30;fill-opacity:1;fill-rule:nonzero;stroke:none"
         d="m 1590.14,219.809 91.08,-1.438 c 3.41,-0.051 6.21,-2.473 6.73,-5.812 l 11.68,-74.45 c 1.21,-7.718 -5.1,-14.918 -12.96,-14.66 -32.82,1.071 -80.17,3.75 -121.46,4.391 -48.29,0.762 -43.5,-1.219 -100.12,-0.328 -34.24,0.539 -41.51,35.328 -26.97,38.238 66.17,13.262 72.87,13.961 131.5,47.859 6.38,3.692 13.32,6.301 20.52,6.2" /><path
         id="path338"
         style="fill:#1d2a30;fill-opacity:1;fill-rule:nonzero;stroke:none"
         d="m 1612.35,345.531 -9.67,-57.859 137.56,-54.172 24.59,48.891 -152.48,63.14" /><path
         id="path340"
         style="fill:#e9802a;fill-opacity:1;fill-rule:nonzero;stroke:none"
         d="m 1846.87,126.469 -72.65,28.25 82.94,222 102.69,-33.36 -112.98,-216.89" /><path
         id="path342"
         style="fill:#94999b;fill-opacity:1;fill-rule:nonzero;stroke:none"
         d="m 1892.58,214.129 -0.04,0.019 16.51,31.684 0.04,-0.023 -16.51,-31.68" /><path
         id="path344"
         style="fill:#e75656;fill-opacity:1;fill-rule:nonzero;stroke:none"
         d="m 1892.54,214.148 -84.65,30.684 13.3,35.59 87.86,-34.59 -16.51,-31.684" /><path
         id="path346"
         style="fill:#1d2a30;fill-opacity:1;fill-rule:nonzero;stroke:none"
         d="m 1790.26,209.801 91.08,-1.43 c 3.41,-0.062 6.21,-2.473 6.74,-5.82 l 11.68,-74.442 c 1.21,-7.73 -5.1,-14.929 -12.96,-14.66 -32.82,1.071 -80.17,3.742 -121.47,4.391 -48.29,0.75 -43.49,-1.231 -100.12,-0.34 -34.23,0.539 -41.5,35.332 -26.96,38.238 66.16,13.262 72.87,13.961 131.5,47.864 6.37,3.699 13.31,6.296 20.51,6.199" /><path
         id="path348"
         style="fill:#1d2a30;fill-opacity:1;fill-rule:nonzero;stroke:none"
         d="m 1812.48,345.531 -9.68,-57.859 137.56,-54.172 24.6,48.891 -152.48,63.14" /><path
         id="path350"
         style="fill:#1d2a30;fill-opacity:1;fill-rule:nonzero;stroke:none"
         d="m 2963.08,1156.99 -238.96,9.68 -110.59,-111.87 c -238,17.33 -363.16,-5.57 -427.96,-38.74 -3.53,-1.71 -7.11,-3.66 -10.77,-5.94 -23.31,-13.811 -37.37,-28.979 -45.53,-43.6 -126.7,-158.43 -311.15,-671.141 -311.15,-671.141 l 113.19,-37.027 c 176.78,160.957 419.95,510.07 419.95,510.07 117.91,-15.652 389.97,-42.481 495.82,25.387 136.86,87.773 116,363.181 116,363.181" /><path
         id="path352"
         style="fill:#1947a4;fill-opacity:1;fill-rule:nonzero;stroke:none"
         d="m 3021.57,1546.71 c 0.4,-42.7 -0.99,-91.2 -5.39,-145.3 -7.11,-88.3 -22.41,-191.7 -52,-310 l -508.8,11.9 c -20.41,59 -20.71,194.5 62.79,322.7 8.1,76.9 -1.7,162 4.71,244.3 3.89,51.4 53.39,98.7 115.2,109.5 91.79,15.9 186.19,18.8 282.59,12.3 51.4,-3.4 88.71,-34.6 92.1,-77.7 3.01,-39.2 8.3,-95.2 8.8,-167.7" /><path
         id="path354"
         style="fill:#45555c;fill-opacity:1;fill-rule:nonzero;stroke:none"
         d="m 1740.24,233.5 -35.64,14.031 -86.8,34.18 -15.12,5.961 9.67,57.859 152.48,-63.14 -12.57,-25 -12.02,-23.891" /><path
         id="path356"
         style="fill:#45555c;fill-opacity:1;fill-rule:nonzero;stroke:none"
         d="m 1940.36,233.5 -31.31,12.332 -87.86,34.59 -18.39,7.25 9.68,57.859 20.93,-8.672 c -9.77,-26.16 -15.29,-41.48 -15.29,-41.48 l 113.19,-37.027 c 9.14,8.32 18.47,17.16 27.92,26.41 l 5.73,-2.371 -24.6,-48.891" /><path
         id="path358"
         style="fill:#45555c;fill-opacity:1;fill-rule:nonzero;stroke:none"
         d="m 1931.31,258.352 -113.19,37.027 c 0,0 5.52,15.32 15.29,41.48 l 125.82,-52.097 c -9.45,-9.25 -18.78,-18.09 -27.92,-26.41" /><path
         id="path360"
         style="fill:#e9802a;fill-opacity:1;fill-rule:nonzero;stroke:none"
         d="m 2821.97,1938.84 c 0.79,-62.77 4.92,-135.98 47.92,-177.3 -23.53,-40.13 -73.25,-72.23 -139.38,-66.53 -72.67,6.26 -54.47,57.35 -38.78,83.58 34.89,27.27 24.84,64.19 20.45,90.06 l 109.79,70.19" /><path
         id="path362"
         style="fill:#e75656;fill-opacity:1;fill-rule:nonzero;stroke:none"
         d="m 2715.32,1814.68 c 1.69,7.7 1.93,15.49 1.44,23.06 5.2,-0.79 10.45,-1.2 15.73,-1.2 7.3,0 14.64,0.78 21.92,2.4 -12.06,-9.92 -25.56,-18.3 -39.09,-24.26" /><path
         id="path364"
         style="fill:#1d2a30;fill-opacity:1;fill-rule:nonzero;stroke:none"
         d="m 2597.47,1453.41 c 0,0 -16.82,-41.05 -13.85,-51.43 2.97,-10.38 13.85,41.42 13.85,41.42 0,0 -5.94,-43.4 -2.48,-46.86 3.46,-3.45 8.41,42.53 8.41,42.53 0,0 -1.49,-39.93 0,-42.71 1.48,-2.78 8.9,39.38 8.9,39.38 0,0 -7.42,-41.18 -4.95,-44.64 2.48,-3.45 11.38,44.64 11.38,44.64 0,0 -2.97,-46.62 0,-48.59 2.96,-1.98 5.44,45.5 5.44,45.5 0,0 0.99,-44.63 2.96,-45.56 1.99,-0.93 3.96,46.05 3.96,46.05 0,0 -0.99,-47.48 3.96,-49.46 4.95,-1.97 2.96,46.49 2.96,46.49 0,0 2.48,-41.65 6.43,-46.55 3.96,-4.88 3.11,44.08 3.11,44.08 0,0 2.83,-42.84 6.79,-44.42 3.95,-1.57 0,46.4 0,46.4 0,0 7.91,-40.56 12.85,-40.06 4.94,0.5 -4.94,60.33 -4.94,60.33 l -64.78,3.46" /><path
         id="path366"
         style="fill:#4870c0;fill-opacity:1;fill-rule:nonzero;stroke:none"
         d="m 2658.13,1779.79 c 0,0 -48.79,-39.56 -56.71,-157.58 -7.91,-118.03 0,-158.91 -8.57,-167.48 -8.57,-8.57 49.45,-21.77 61.32,-18.47 11.86,3.3 11.21,21.77 11.21,27.71 0,5.92 -7.91,184.6 27.69,235.38 35.61,50.77 -34.94,80.44 -34.94,80.44" /><path
         id="path368"
         style="fill:#8daee0;fill-opacity:1;fill-rule:nonzero;stroke:none"
         d="m 2595.59,1448.66 c -1.55,0.97 -2.65,1.95 -3.19,2.9 0.55,-0.95 1.65,-1.92 3.19,-2.89 v -0.01" /><path
         id="path370"
         style="fill:#758288;fill-opacity:1;fill-rule:nonzero;stroke:none"
         d="m 2614.53,1441.4 c -7.88,2.15 -14.91,4.7 -18.94,7.26 v 0.01 c 4.04,-2.56 11.07,-5.11 18.94,-7.27" /><path
         id="path372"
         style="fill:#8daee0;fill-opacity:1;fill-rule:nonzero;stroke:none"
         d="m 2663.02,1445.12 v 0.01 c 2.61,6.7 2.36,15.17 2.36,18.84 0,4.59 -4.75,112.9 9.67,185.06 0.01,0 0.02,-0.01 0.02,-0.02 -14.4,-72.2 -9.69,-180.4 -9.69,-185 0,-3.72 0.26,-12.2 -2.36,-18.89" /><path
         id="path374"
         style="fill:#758288;fill-opacity:1;fill-rule:nonzero;stroke:none"
         d="m 2661.91,1442.75 c 0.42,0.76 0.78,1.55 1.11,2.38 v -0.01 c -0.32,-0.82 -0.69,-1.62 -1.11,-2.37" /><path
         id="path376"
         style="fill:#8daee0;fill-opacity:1;fill-rule:nonzero;stroke:none"
         d="m 2595.69,1460.86 c 3.68,16.37 -1.04,60.95 5.69,161.35 1.75,25.99 5.49,48.18 10.26,66.97 -4.75,-18.8 -8.48,-40.98 -10.22,-66.97 -6.73,-100.44 -2.01,-145.01 -5.73,-161.35" /><path
         id="path378"
         style="fill:#8daee0;fill-opacity:1;fill-rule:nonzero;stroke:none"
         d="m 2648.85,1435.79 c -8.36,0 -22.32,2.34 -34.32,5.61 -7.87,2.16 -14.9,4.71 -18.94,7.27 -1.54,0.97 -2.64,1.94 -3.19,2.89 -0.62,1.09 -0.52,2.15 0.48,3.15 1.26,1.28 2.17,3.28 2.81,6.15 3.72,16.34 -1,60.91 5.73,161.35 1.74,25.99 5.47,48.17 10.22,66.97 9.12,35.94 21.99,59.48 31.84,73.53 v 0.08 0 -0.08 c -5.71,-34.34 1.39,-83.78 31.57,-113.68 -14.42,-72.16 -9.67,-180.47 -9.67,-185.06 0,-3.67 0.25,-12.14 -2.36,-18.84 -0.33,-0.83 -0.69,-1.62 -1.11,-2.38 -1.66,-3.03 -4.11,-5.44 -7.74,-6.44 -1.28,-0.36 -3.1,-0.52 -5.32,-0.52" /><path
         id="path380"
         style="fill:#799cd8;fill-opacity:1;fill-rule:nonzero;stroke:none"
         d="m 2675.07,1649.01 c 0,0.01 -0.01,0.02 -0.02,0.02 1.4,6.98 2.97,13.61 4.74,19.78 0.01,0 0.02,-0.01 0.02,-0.01 -1.77,-6.17 -3.34,-12.81 -4.74,-19.79 v 0 m -31.59,113.78 v 0.02 c 0.48,0.68 0.96,1.34 1.43,1.98 -0.47,-0.65 -0.95,-1.31 -1.43,-2" /><path
         id="path382"
         style="fill:#799cd8;fill-opacity:1;fill-rule:nonzero;stroke:none"
         d="m 2675.05,1649.03 c -30.18,29.9 -37.28,79.34 -31.57,113.68 v 0.08 c 0.48,0.69 0.96,1.35 1.43,2 0.74,1 1.46,1.94 2.15,2.84 -1.34,-6.24 -2.19,-13.85 -2.19,-22.15 0.01,-25.54 8.11,-57.65 34.92,-76.67 -1.77,-6.17 -3.34,-12.8 -4.74,-19.78" /><path
         id="path384"
         style="fill:#1947a4;fill-opacity:1;fill-rule:nonzero;stroke:none"
         d="m 2710.03,1803.54 c 0,0 -1.8,-63.98 66.95,-37.93 55.47,21.01 63.78,70.93 63.78,70.93 0,0 27.69,7.75 35.61,-20.54 0,0 33.19,-3.58 44.28,-23.85 11.1,-20.27 -102.23,-148.18 -195.89,-138.96 -93.67,9.23 -84.83,113 -72.08,129.01 12.74,16 23.21,4.62 23.21,4.62 0,0 27.39,35.82 34.14,16.72" /><path
         id="path386"
         style="fill:#8daee0;fill-opacity:1;fill-rule:nonzero;stroke:none"
         d="m 2734.58,1652.72 c -3.3,0 -6.57,0.15 -9.82,0.47 -18.89,1.87 -33.61,7.57 -44.97,15.62 -26.81,19.02 -34.91,51.13 -34.92,76.67 0,17.29 3.7,31.56 7.81,36.72 5.26,6.6 10.13,8.54 14.04,8.54 5.56,0 9.17,-3.92 9.17,-3.92 0,0 17.07,22.32 27.58,22.32 2.8,0 5.14,-1.58 6.56,-5.6 0,0 -0.01,-0.17 -0.01,-0.47 0.01,-4.72 1.13,-43.7 37.78,-43.7 7.95,0 17.55,1.83 29.18,6.24 55.47,21.01 63.78,70.93 63.78,70.93 0,0 3.47,0.97 8.3,0.97 8.82,0 22.19,-3.23 27.31,-21.51 0,0 33.19,-3.58 44.28,-23.85 0.52,-0.94 0.76,-2.1 0.76,-3.47 -0.08,-27.3 -99.65,-135.96 -186.83,-135.96" /><path
         id="path388"
         style="fill:#e3e3e2;fill-opacity:1;fill-rule:nonzero;stroke:none"
         d="m 2629.59,1976.35 c 25.66,-14.86 85.26,-13.34 54.51,105.34 -25.94,100.08 -101.77,-77.96 -54.51,-105.34" /><path
         id="path390"
         style="fill:#e9802a;fill-opacity:1;fill-rule:nonzero;stroke:none"
         d="m 2858.26,2033.23 c -10.46,-82.09 -12.41,-130.7 -56.85,-169.93 -66.85,-59 -166.24,-13.66 -180.55,70.12 -12.88,75.41 6.39,196.98 89.31,223.79 81.69,26.41 158.55,-41.89 148.09,-123.98" /><path
         id="path392"
         style="fill:#e75656;fill-opacity:1;fill-rule:nonzero;stroke:none"
         d="m 2757.81,2021.86 c -6.25,0 -10.22,0.64 -10.22,0.64 0,0 9.93,5.13 21.5,5.13 4.21,0 8.64,-0.68 12.88,-2.54 -9.22,-2.58 -17.85,-3.23 -24.16,-3.23" /><path
         id="path394"
         style="fill:#e75656;fill-opacity:1;fill-rule:nonzero;stroke:none"
         d="m 2776.7,2008.78 c -15.88,0 -27.94,5.57 -27.94,5.57 0,0 4.37,1.2 10.28,1.2 6.2,0 14.11,-1.32 20.48,-6.71 -0.95,-0.04 -1.89,-0.06 -2.82,-0.06" /><path
         id="path396"
         style="fill:#e3e3e2;fill-opacity:1;fill-rule:nonzero;stroke:none"
         d="m 2873.95,2077.85 c 4.77,22.54 -44.14,55.1 -72.1,38.12 -27.6,-16.75 11.43,-51.55 18.36,-83.19 6.93,-31.63 -32.5,-61.09 -32.5,-61.09 0,0 16.04,-19.5 47.67,-18.2 71.07,26.87 49.83,115.26 38.57,124.36" /><path
         id="path398"
         style="fill:#e9802a;fill-opacity:1;fill-rule:nonzero;stroke:none"
         d="m 2880.83,1947.6 c -11.75,-18.89 -31.18,-30.52 -49.13,-34.29 -26.98,-5.66 -38.92,18.93 -30.12,43.47 7.93,22.1 31.52,51.67 57.98,46.31 26.07,-5.28 34.7,-33.89 21.27,-55.49" /><path
         id="path400"
         style="fill:#1d2a30;fill-opacity:1;fill-rule:nonzero;stroke:none"
         d="m 2726.8,2016.73 c -0.44,-6.71 -4.36,-11.9 -8.75,-11.57 -4.39,0.33 -7.6,6.04 -7.16,12.75 0.44,6.71 4.35,11.9 8.75,11.57 4.39,-0.33 7.59,-6.04 7.16,-12.75" /><path
         id="path402"
         style="fill:#1d2a30;fill-opacity:1;fill-rule:nonzero;stroke:none"
         d="m 2642.86,2020.37 c -0.44,-6.72 -4.36,-11.9 -8.75,-11.57 -4.39,0.33 -7.6,6.03 -7.16,12.75 0.44,6.71 4.35,11.89 8.75,11.57 4.39,-0.33 7.59,-6.04 7.16,-12.75" /><path
         id="path404"
         style="fill:#f03c51;fill-opacity:1;fill-rule:nonzero;stroke:none"
         d="m 2671.81,2024.75 c 0,0 -20.08,-36.44 -39.15,-52.74 10.41,-12.63 31.13,-10.34 31.13,-10.34 l 8.02,63.08" /><path
         id="path406"
         style="fill:#1d2a30;fill-opacity:1;fill-rule:nonzero;stroke:none"
         d="m 2742.01,2061.41 1.9,0.63 c 1.82,1.18 2.33,3.63 1.12,5.47 -12.03,18.37 -30.28,18.66 -31.06,18.66 -2.18,0.01 -3.94,-1.76 -3.93,-3.94 0.01,-2.18 1.78,-3.95 3.95,-3.97 0.6,-0.01 14.84,-0.38 24.44,-15.05 0.81,-1.24 2.2,-1.88 3.58,-1.8" /><path
         id="path408"
         style="fill:#1d2a30;fill-opacity:1;fill-rule:nonzero;stroke:none"
         d="m 2617.34,2054.57 c 1.26,-0.24 2.6,0.13 3.55,1.12 12.07,12.51 26.1,10.05 26.69,9.94 2.14,-0.4 4.2,1 4.59,3.14 0.39,2.13 -1.01,4.2 -3.14,4.62 -0.78,0.14 -18.72,3.5 -33.84,-12.17 -1.51,-1.57 -1.45,-4.07 0.12,-5.6 l 2.03,-1.05" /><path
         id="path410"
         style="fill:#e3e3e2;fill-opacity:1;fill-rule:nonzero;stroke:none"
         d="m 2614.09,1946.32 c 0,0 13.74,20.23 46.71,0 0,0 12.71,13.49 44.92,11.79 32.22,-1.69 48.7,-11.79 48.7,-11.79 l 38.43,29.66 10.12,-15.69 c 0,0 43.72,-105.42 -15.58,-141.02 -59.3,-35.61 -133.07,-20.44 -154.23,3.3 -21.15,23.73 -10.61,85.71 -10.61,85.71 0,0 -12.34,26.76 -8.46,38.04" /><path
         id="path412"
         style="fill:#e9802a;fill-opacity:1;fill-rule:nonzero;stroke:none"
         d="m 2733.78,1917.88 c -7.12,-2.63 -14.15,-3.68 -20.85,-3.68 -12.72,0 -24.28,3.8 -32.63,7.62 -4.18,1.92 -7.55,3.83 -9.87,5.26 -1.16,0.71 -2.05,1.3 -2.65,1.71 l -0.87,0.62 c -1.07,0.8 -2.58,0.61 -3.43,-0.42 l -0.53,-0.62 c -1.26,-1.43 -4.67,-5.12 -9,-8.36 -4.33,-3.28 -9.59,-5.98 -14.19,-5.95 l -1.65,0.12 c -1.37,0.19 -2.63,-0.77 -2.82,-2.13 -0.19,-1.37 0.76,-2.63 2.13,-2.83 l 2.34,-0.16 c 7.39,0.06 14.1,4.4 19.15,8.49 5.04,4.13 8.37,8.19 8.44,8.27 l -1.93,1.58 -1.5,-2 c 0.21,-0.12 21.57,-16.15 49.01,-16.2 7.22,0 14.86,1.13 22.58,3.99 1.3,0.48 1.96,1.92 1.48,3.22 -0.48,1.29 -1.92,1.95 -3.21,1.47" /><path
         id="path414"
         style="fill:#e9802a;fill-opacity:1;fill-rule:nonzero;stroke:none"
         d="m 2124.21,1346.01 -93.76,2.56 38.83,-93.58 c 0,0 79.21,-1.44 81.92,47.16 l -26.99,43.86" /><path
         id="path416"
         style="fill:#e9802a;fill-opacity:1;fill-rule:nonzero;stroke:none"
         d="m 1985.56,1303.03 10.19,-40.76 c 3.64,-14.55 18.63,-23.18 33.04,-19.01 l 40.49,11.73 -38.83,93.58 -31,-15.42 c -11.12,-5.54 -16.9,-18.07 -13.89,-30.12" /><path
         id="path418"
         style="fill:#e9802a;fill-opacity:1;fill-rule:nonzero;stroke:none"
         d="m 2408.23,1546.13 97.58,-110.39 -73.84,-71.33 -90.99,89 67.25,92.72" /><path
         id="path420"
         style="fill:#e9802a;fill-opacity:1;fill-rule:nonzero;stroke:none"
         d="m 2349.54,1464.61 89.29,-89.69 c 2.9,-2.92 7.6,-2.98 10.57,-0.13 l 50.03,47.76 c 2.99,2.85 3.14,7.58 0.33,10.62 l -94.58,101.94 c -3.21,3.46 -8.78,3.16 -11.6,-0.63 l -44.74,-60.02 c -2.24,-2.99 -1.95,-7.19 0.7,-9.85" /><path
         id="path422"
         style="fill:#45555c;fill-opacity:1;fill-rule:nonzero;stroke:none"
         d="m 2444.19,1372.69 c -1.03,0 -2.05,0.21 -3,0.62 -0.86,0.37 -1.66,0.91 -2.36,1.61 l -89.29,89.69 c -0.08,0.09 -0.17,0.17 -0.25,0.26 -1.3,1.44 -1.96,3.27 -1.95,5.12 0.01,1.57 0.5,3.14 1.5,4.47 l 44.74,60.02 c 1.5,2.02 3.78,3.04 6.06,3.04 2.01,0 4.04,-0.79 5.54,-2.41 l 94.58,-101.94 c 1.34,-1.45 2,-3.28 2.01,-5.11 0.01,-2.01 -0.77,-4.02 -2.34,-5.51 l -50.03,-47.76 c -1.46,-1.4 -3.34,-2.1 -5.21,-2.1" /><path
         id="path424"
         style="fill:#1947a4;fill-opacity:1;fill-rule:nonzero;stroke:none"
         d="m 3016.18,1401.41 c -55.2,49.2 -61.71,179.4 -61.71,179.4 0.01,0 0.02,0 0.03,-0.01 9.62,-30.2 20.77,-51.86 20.77,-51.86 l 45.7,-41.44 c -0.79,-26.9 -2.31,-55.61 -4.79,-86.09 v 0" /><path
         id="path426"
         style="fill:#1947a4;fill-opacity:1;fill-rule:nonzero;stroke:none"
         d="m 2966.94,1779.79 c 83.49,-35.61 293.16,-298.58 259.53,-396.55 -33.62,-97.96 -158.4,-108.43 -174.69,-104.48 -16.29,3.97 -50.15,74.81 45.46,139.57 l -121.97,110.61 c 0,0 -35.42,68.86 -34.52,132.16 0.89,63.31 26.19,118.69 26.19,118.69" /><path
         id="path428"
         style="fill:#e9802a;fill-opacity:1;fill-rule:nonzero;stroke:none"
         d="m 3052.85,1346.39 -92.79,-13.65 54.39,-85.47 c 0,0 78.27,12.24 72.55,60.58 l -34.15,38.54" /><path
         id="path430"
         style="fill:#e9802a;fill-opacity:1;fill-rule:nonzero;stroke:none"
         d="m 2923.7,1280.13 17.07,-38.39 c 6.1,-13.71 22.35,-19.61 35.82,-13.02 l 37.86,18.55 -54.39,85.47 -27.88,-20.55 c -10,-7.37 -13.53,-20.7 -8.48,-32.06" /><path
         id="path432"
         style="fill:#e9802a;fill-opacity:1;fill-rule:nonzero;stroke:none"
         d="m 2940.75,125.75 h 544.13 V 1107 c 0,104.05 -84.34,188.39 -188.38,188.39 h -167.37 c -104.04,0 -188.38,-84.34 -188.38,-188.39 V 125.75" /><path
         id="path434"
         style="fill:#a5adad;fill-opacity:1;fill-rule:nonzero;stroke:none"
         d="M 3448.53,125.75 H 3253.74 V 1138.9 c 0,81.3 -62,148.12 -141.3,155.76 5.5,0.49 11.06,0.73 16.69,0.73 h 167.37 c 104.04,0 188.38,-84.34 188.38,-188.39 V 944.422 h -41.34 c -9.39,0 -17.02,-7.613 -17.02,-17.012 v -15.422 0 c 0,-9.386 7.63,-17.008 17.02,-17.008 h 41.34 v -77.109 l -30.45,-580.98 -5.9,-111.141" /><path
         id="path436"
         style="fill:#8daee0;fill-opacity:1;fill-rule:nonzero;stroke:none"
         d="m 2940.75,1107 v 31.9 c 0,32.29 9.78,62.3 26.54,87.22 3.14,0.28 6.29,1.13 9.3,2.6 l 15.58,7.63 c -31.88,-33.74 -51.42,-79.26 -51.42,-129.35" /><path
         id="path438"
         style="fill:#8daee0;fill-opacity:1;fill-rule:nonzero;stroke:none"
         d="m 3085.13,1290.23 c 0.56,1.55 1.01,3.14 1.36,4.8 3.55,0.24 7.14,0.36 10.75,0.36 5.13,0 10.2,-0.24 15.2,-0.73 -9.31,-0.81 -18.43,-2.31 -27.31,-4.43" /><path
         id="path440"
         style="fill:#f8a6af;fill-opacity:1;fill-rule:nonzero;stroke:none"
         d="m 3010.55,1253.39 -6.94,10.91 c 23.42,17.52 51.92,28.63 82.88,30.73 -0.35,-1.66 -0.8,-3.25 -1.36,-4.8 -27.75,-6.64 -53.12,-19.43 -74.58,-36.84" /><path
         id="path442"
         style="fill:#f8a6af;fill-opacity:1;fill-rule:nonzero;stroke:none"
         d="m 2967.29,1226.12 c 9.87,14.68 22.17,27.6 36.32,38.18 l 6.94,-10.91 c -6.5,-5.27 -12.64,-10.96 -18.38,-17.04 l -15.58,-7.63 c -3.01,-1.47 -6.16,-2.32 -9.3,-2.6" /><path
         id="path444"
         style="fill:#cdd1cf;fill-opacity:1;fill-rule:nonzero;stroke:none"
         d="M 3253.74,125.75 H 2940.75 V 1107 c 0,98.42 75.47,179.21 171.69,187.66 79.3,-7.64 141.3,-74.46 141.3,-155.76 V 125.75" /><path
         id="path446"
         style="fill:#e9802a;fill-opacity:1;fill-rule:nonzero;stroke:none"
         d="m 3696.96,929.02 3.05,-131.739 13.88,-675.929 h 45.77 l 13.79,675.929 3.04,131.739 h -79.53" /><path
         id="path448"
         style="fill:#758288;fill-opacity:1;fill-rule:nonzero;stroke:none"
         d="m 3759.66,121.352 h -45.77 l -13.81,672.289 h 73.29 l -6.97,-342.012 -0.06,-2.5 -6.68,-327.777" /><path
         id="path450"
         style="fill:#cecdcc;fill-opacity:1;fill-rule:nonzero;stroke:none"
         d="m 3773.45,793.641 h -0.08 l 0.08,3.64 2.26,97.699 h 0.02 l -2.28,-101.339 m -73.37,0 h -0.07 l -2.28,101.339 h 0.02 l 2.26,-97.699 0.07,-3.64" /><path
         id="path452"
         style="fill:#59656a;fill-opacity:1;fill-rule:nonzero;stroke:none"
         d="m 3773.37,793.641 h -73.29 l -0.07,3.64 -2.26,97.699 h 77.96 l -2.26,-97.699 -0.08,-3.64" /><path
         id="path454"
         style="fill:#e9802a;fill-opacity:1;fill-rule:nonzero;stroke:none"
         d="m 3448.4,123.461 42.29,796.238 h 69.12 l -59.2,-796.238 h -52.21" /><path
         id="path456"
         style="fill:#ffffff;fill-opacity:1;fill-rule:nonzero;stroke:none"
         d="m 3507.08,210.012 h -0.03 l 2.97,40.027 -2.94,-40.027" /><path
         id="path458"
         style="fill:#fbfcfc;fill-opacity:1;fill-rule:nonzero;stroke:none"
         d="m 3500.73,123.461 h -52.25 52.13 l 6.44,86.551 h 0.03 l -6.35,-86.551" /><path
         id="path460"
         style="fill:#ffffff;fill-opacity:1;fill-rule:nonzero;stroke:none"
         d="m 3484.88,810.379 v 7.492 l 1.97,37.527 2.31,39.582 h 0.06 l -2.37,-42.121 h 0.29 l -2.26,-42.48" /><path
         id="path462"
         style="fill:#cdd1cf;fill-opacity:1;fill-rule:nonzero;stroke:none"
         d="m 3454.43,236.891 30.45,580.98 v -7.492 l -30.45,-573.488" /><path
         id="path464"
         style="fill:#758288;fill-opacity:1;fill-rule:nonzero;stroke:none"
         d="m 3500.61,123.461 h -52.13 l 5.95,113.43 30.45,573.488 2.26,42.48 h 67.12 l -44.24,-602.82 -2.97,-40.027 -6.44,-86.551" /><path
         id="path466"
         style="fill:#182124;fill-opacity:1;fill-rule:nonzero;stroke:none"
         d="m 3554.45,852.859 h -0.19 l 0.19,2.539 3.24,39.582 h 0.08 l -3.32,-42.121" /><path
         id="path468"
         style="fill:#cecdcb;fill-opacity:1;fill-rule:nonzero;stroke:none"
         d="m 3487.14,852.859 h -0.29 l 2.37,42.121 h 0.16 l -2.24,-42.121" /><path
         id="path470"
         style="fill:#59656a;fill-opacity:1;fill-rule:nonzero;stroke:none"
         d="m 3554.26,852.859 h -67.12 l 2.24,42.121 h 68.31 l -3.24,-39.582 -0.19,-2.539" /><path
         id="path472"
         style="fill:#e9802a;fill-opacity:1;fill-rule:nonzero;stroke:none"
         d="m 3972.89,123.461 -59.2,796.238 h 69.12 l 42.28,-796.238 h -52.2" /><path
         id="path474"
         style="fill:#ffffff;fill-opacity:1;fill-rule:nonzero;stroke:none"
         d="m 3968.15,187.199 h -0.06 l -5.01,68.262 5.07,-68.262" /><path
         id="path476"
         style="fill:#fbfcfc;fill-opacity:1;fill-rule:nonzero;stroke:none"
         d="m 4025.02,123.461 h -52.26 l -4.67,63.738 h 0.06 l 4.74,-63.738 h 52.13" /><path
         id="path478"
         style="fill:#ffffff;fill-opacity:1;fill-rule:nonzero;stroke:none"
         d="m 4019.28,232.98 -7.86,148.059 h 0.1 l 7.76,-148.059 m -7.9,150.559 h -0.1 l -3.48,65.59 h 0.15 l 3.43,-65.59 m -3.57,68.09 h -0.14 l -21.31,401.23 h 0.29 l -2.37,42.121 h 0.05 l 2.32,-39.582 21.16,-403.769" /><path
         id="path480"
         style="fill:#f6f7f7;fill-opacity:1;fill-rule:nonzero;stroke:none"
         d="m 4007.95,449.129 h -0.15 l -0.13,2.5 h 0.14 l 0.14,-2.5" /><path
         id="path482"
         style="fill:#f6f7f7;fill-opacity:1;fill-rule:nonzero;stroke:none"
         d="m 4011.52,381.039 h -0.1 l -0.14,2.5 h 0.1 l 0.14,-2.5" /><path
         id="path484"
         style="fill:#758288;fill-opacity:1;fill-rule:nonzero;stroke:none"
         d="m 4025.02,123.461 h -52.13 l -4.74,63.738 -5.07,68.262 -43.85,597.398 h 67.13 l 21.31,-401.23 0.13,-2.5 3.48,-65.59 0.14,-2.5 7.86,-148.059 5.74,-109.519" /><path
         id="path486"
         style="fill:#182124;fill-opacity:1;fill-rule:nonzero;stroke:none"
         d="m 3919.23,852.859 h -0.18 l -3.32,42.121 h 0.08 l 3.24,-39.582 0.18,-2.539" /><path
         id="path488"
         style="fill:#cecdcb;fill-opacity:1;fill-rule:nonzero;stroke:none"
         d="m 3986.65,852.859 h -0.29 l -2.24,42.121 h 0.16 l 2.37,-42.121" /><path
         id="path490"
         style="fill:#59656a;fill-opacity:1;fill-rule:nonzero;stroke:none"
         d="m 3986.36,852.859 h -67.13 l -0.18,2.539 -3.24,39.582 h 68.31 l 2.24,-42.121" /><path
         id="path492"
         style="fill:#1d2a30;fill-opacity:1;fill-rule:nonzero;stroke:none"
         d="m 3443.54,944.422 h 586.42 c 9.39,0 17.01,-7.613 17.01,-17.012 v -15.422 c 0,-9.386 -7.62,-17.008 -17.01,-17.008 h -586.42 c -9.39,0 -17.02,7.622 -17.02,17.008 v 15.422 c 0,9.399 7.63,17.012 17.02,17.012" /><path
         id="path494"
         style="fill:#a5adad;fill-opacity:1;fill-rule:nonzero;stroke:none"
         d="m 4029.96,894.98 h -586.42 c -9.39,0 -17.02,7.622 -17.02,17.008 v 15.422 c 0,9.399 7.63,17.012 17.02,17.012 h 137.22 0.02 v -0.012 h 77.2 v 0.012 h 168.16 34.53 169.29 c 9.39,0 17.01,-7.613 17.01,-17.012 v -15.422 c 0,-4.617 -1.84,-8.808 -4.83,-11.867 -0.92,-0.949 -1.96,-1.789 -3.08,-2.5 -2.63,-1.672 -5.76,-2.641 -9.1,-2.641" /><path
         id="path496"
         style="fill:#e9802a;fill-opacity:1;fill-rule:nonzero;stroke:none"
         d="m 3826.14,944.422 h 34.5313 v 507.887 H 3826.14 Z" /><path
         id="path498"
         style="fill:#1947a4;fill-opacity:1;fill-rule:nonzero;stroke:none"
         d="M 4033.91,1296.83 H 3652.9 l 45.49,310.97 h 290.03 l 45.49,-310.97" /><path
         id="path500"
         style="fill:#e9802a;fill-opacity:1;fill-rule:nonzero;stroke:none"
         d="m 3917.82,972.211 h -148.83 c -15.35,0 -27.78,-12.441 -27.78,-27.789 h 204.39 c 0,15.348 -12.44,27.789 -27.78,27.789" /><path
         id="path502"
         style="fill:#8daee0;fill-opacity:1;fill-rule:nonzero;stroke:none"
         d="M 4033.91,1296.83 H 3652.9 l 45.49,310.97 h 290.03 l 45.49,-310.97" /><path
         id="path504"
         style="fill:#1947a4;fill-opacity:1;fill-rule:nonzero;stroke:none"
         d="m 3657.9,944.422 h -77.14 l -10.88,128.338 h 98.9 L 3657.9,944.422" /><path
         id="path506"
         style="fill:#ffffff;fill-opacity:1;fill-rule:nonzero;stroke:none"
         d="m 3657.98,944.422 h -0.08 l 10.8,127.388 -5.32,-63.2 -5.4,-64.188" /><path
         id="path508"
         style="fill:#e8e9e9;fill-opacity:1;fill-rule:nonzero;stroke:none"
         d="m 3657.98,944.41 h -77.2 v 0.012 h 77.2 v -0.012" /><path
         id="path510"
         style="fill:#ffffff;fill-opacity:1;fill-rule:nonzero;stroke:none"
         d="m 3578.92,966.191 -3.64,42.419 -5.4,64.11 h 0.01 l 9.03,-106.529" /><path
         id="path512"
         style="fill:#c7d9f2;fill-opacity:1;fill-rule:nonzero;stroke:none"
         d="m 3657.9,944.422 h -77.12 l -1.86,21.769 -9.03,106.529 h 98.89 l -0.08,-0.91 -10.8,-127.388 m -79.89,73.378 5.82,-67.948 h 71.12 l 5.71,67.948 h -82.65" /><path
         id="path514"
         style="fill:#f0f6fc;fill-opacity:1;fill-rule:nonzero;stroke:none"
         d="m 3654.95,949.852 h -71.12 l -5.82,67.948 h 82.65 l -5.71,-67.948" /><path
         id="path516"
         style="fill:#1947a4;fill-opacity:1;fill-rule:nonzero;stroke:none"
         d="m 3674.43,1067.32 h -110.2 v 2.22 c 0,6.69 5.43,12.12 12.12,12.12 h 85.96 c 6.7,0 12.12,-5.43 12.12,-12.12 v -2.22" /><path
         id="path518"
         style="fill:#4870c0;fill-opacity:1;fill-rule:nonzero;stroke:none"
         d="m 3624.94,1076.72 h -11.21 v 15.16 h 11.21 v -15.16" /></g></g></svg>