<svg width="156" height="150" viewBox="0 0 156 150" fill="none" xmlns="http://www.w3.org/2000/svg">
<path d="M5.6 138C5.6 136.343 4.3464 135 2.8 135C1.2536 135 0 136.343 0 138C0 139.657 1.2536 141 2.8 141C4.3464 141 5.6 139.657 5.6 138Z" fill="#C4C4C4"/>
<path d="M20.6 138C20.6 136.343 19.3464 135 17.8 135C16.2536 135 15 136.343 15 138C15 139.657 16.2536 141 17.8 141C19.3464 141 20.6 139.657 20.6 138Z" fill="#C4C4C4"/>
<path d="M35.6 138C35.6 136.343 34.3464 135 32.8 135C31.2536 135 30 136.343 30 138C30 139.657 31.2536 141 32.8 141C34.3464 141 35.6 139.657 35.6 138Z" fill="#C4C4C4"/>
<path d="M50.6 138C50.6 136.343 49.3464 135 47.8 135C46.2536 135 45 136.343 45 138C45 139.657 46.2536 141 47.8 141C49.3464 141 50.6 139.657 50.6 138Z" fill="#C4C4C4"/>
<path d="M65.6 138C65.6 136.343 64.3464 135 62.8 135C61.2536 135 60 136.343 60 138C60 139.657 61.2536 141 62.8 141C64.3464 141 65.6 139.657 65.6 138Z" fill="#C4C4C4"/>
<path d="M80.6 138C80.6 136.343 79.3464 135 77.8 135C76.2536 135 75 136.343 75 138C75 139.657 76.2536 141 77.8 141C79.3464 141 80.6 139.657 80.6 138Z" fill="#C4C4C4"/>
<path d="M95.6 138C95.6 136.343 94.3464 135 92.8 135C91.2536 135 90 136.343 90 138C90 139.657 91.2536 141 92.8 141C94.3464 141 95.6 139.657 95.6 138Z" fill="#C4C4C4"/>
<path d="M110.6 138C110.6 136.343 109.346 135 107.8 135C106.254 135 105 136.343 105 138C105 139.657 106.254 141 107.8 141C109.346 141 110.6 139.657 110.6 138Z" fill="#C4C4C4"/>
<path d="M125.6 138C125.6 136.343 124.346 135 122.8 135C121.254 135 120 136.343 120 138C120 139.657 121.254 141 122.8 141C124.346 141 125.6 139.657 125.6 138Z" fill="#C4C4C4"/>
<path d="M140.6 138C140.6 136.343 139.346 135 137.8 135C136.254 135 135 136.343 135 138C135 139.657 136.254 141 137.8 141C139.346 141 140.6 139.657 140.6 138Z" fill="#C4C4C4"/>
<path d="M155.6 138C155.6 136.343 154.346 135 152.8 135C151.254 135 150 136.343 150 138C150 139.657 151.254 141 152.8 141C154.346 141 155.6 139.657 155.6 138Z" fill="#C4C4C4"/>
<path d="M5.6 123C5.6 121.343 4.3464 120 2.8 120C1.2536 120 0 121.343 0 123C0 124.657 1.2536 126 2.8 126C4.3464 126 5.6 124.657 5.6 123Z" fill="#C4C4C4"/>
<path d="M20.6 123C20.6 121.343 19.3464 120 17.8 120C16.2536 120 15 121.343 15 123C15 124.657 16.2536 126 17.8 126C19.3464 126 20.6 124.657 20.6 123Z" fill="#C4C4C4"/>
<path d="M35.6 123C35.6 121.343 34.3464 120 32.8 120C31.2536 120 30 121.343 30 123C30 124.657 31.2536 126 32.8 126C34.3464 126 35.6 124.657 35.6 123Z" fill="#C4C4C4"/>
<path d="M50.6 123C50.6 121.343 49.3464 120 47.8 120C46.2536 120 45 121.343 45 123C45 124.657 46.2536 126 47.8 126C49.3464 126 50.6 124.657 50.6 123Z" fill="#C4C4C4"/>
<path d="M65.6 123C65.6 121.343 64.3464 120 62.8 120C61.2536 120 60 121.343 60 123C60 124.657 61.2536 126 62.8 126C64.3464 126 65.6 124.657 65.6 123Z" fill="#C4C4C4"/>
<path d="M80.6 123C80.6 121.343 79.3464 120 77.8 120C76.2536 120 75 121.343 75 123C75 124.657 76.2536 126 77.8 126C79.3464 126 80.6 124.657 80.6 123Z" fill="#C4C4C4"/>
<path d="M95.6 123C95.6 121.343 94.3464 120 92.8 120C91.2536 120 90 121.343 90 123C90 124.657 91.2536 126 92.8 126C94.3464 126 95.6 124.657 95.6 123Z" fill="#C4C4C4"/>
<path d="M110.6 123C110.6 121.343 109.346 120 107.8 120C106.254 120 105 121.343 105 123C105 124.657 106.254 126 107.8 126C109.346 126 110.6 124.657 110.6 123Z" fill="#C4C4C4"/>
<path d="M125.6 123C125.6 121.343 124.346 120 122.8 120C121.254 120 120 121.343 120 123C120 124.657 121.254 126 122.8 126C124.346 126 125.6 124.657 125.6 123Z" fill="#C4C4C4"/>
<path d="M140.6 123C140.6 121.343 139.346 120 137.8 120C136.254 120 135 121.343 135 123C135 124.657 136.254 126 137.8 126C139.346 126 140.6 124.657 140.6 123Z" fill="#C4C4C4"/>
<path d="M155.6 123C155.6 121.343 154.346 120 152.8 120C151.254 120 150 121.343 150 123C150 124.657 151.254 126 152.8 126C154.346 126 155.6 124.657 155.6 123Z" fill="#C4C4C4"/>
<path d="M5.6 108C5.6 106.343 4.3464 105 2.8 105C1.2536 105 0 106.343 0 108C0 109.657 1.2536 111 2.8 111C4.3464 111 5.6 109.657 5.6 108Z" fill="#C4C4C4"/>
<path d="M20.6 108C20.6 106.343 19.3464 105 17.8 105C16.2536 105 15 106.343 15 108C15 109.657 16.2536 111 17.8 111C19.3464 111 20.6 109.657 20.6 108Z" fill="#C4C4C4"/>
<path d="M35.6 108C35.6 106.343 34.3464 105 32.8 105C31.2536 105 30 106.343 30 108C30 109.657 31.2536 111 32.8 111C34.3464 111 35.6 109.657 35.6 108Z" fill="#C4C4C4"/>
<path d="M50.6 108C50.6 106.343 49.3464 105 47.8 105C46.2536 105 45 106.343 45 108C45 109.657 46.2536 111 47.8 111C49.3464 111 50.6 109.657 50.6 108Z" fill="#C4C4C4"/>
<path d="M65.6 108C65.6 106.343 64.3464 105 62.8 105C61.2536 105 60 106.343 60 108C60 109.657 61.2536 111 62.8 111C64.3464 111 65.6 109.657 65.6 108Z" fill="#C4C4C4"/>
<path d="M80.6 108C80.6 106.343 79.3464 105 77.8 105C76.2536 105 75 106.343 75 108C75 109.657 76.2536 111 77.8 111C79.3464 111 80.6 109.657 80.6 108Z" fill="#C4C4C4"/>
<path d="M95.6 108C95.6 106.343 94.3464 105 92.8 105C91.2536 105 90 106.343 90 108C90 109.657 91.2536 111 92.8 111C94.3464 111 95.6 109.657 95.6 108Z" fill="#C4C4C4"/>
<path d="M110.6 108C110.6 106.343 109.346 105 107.8 105C106.254 105 105 106.343 105 108C105 109.657 106.254 111 107.8 111C109.346 111 110.6 109.657 110.6 108Z" fill="#C4C4C4"/>
<path d="M125.6 108C125.6 106.343 124.346 105 122.8 105C121.254 105 120 106.343 120 108C120 109.657 121.254 111 122.8 111C124.346 111 125.6 109.657 125.6 108Z" fill="#C4C4C4"/>
<path d="M140.6 108C140.6 106.343 139.346 105 137.8 105C136.254 105 135 106.343 135 108C135 109.657 136.254 111 137.8 111C139.346 111 140.6 109.657 140.6 108Z" fill="#C4C4C4"/>
<path d="M155.6 108C155.6 106.343 154.346 105 152.8 105C151.254 105 150 106.343 150 108C150 109.657 151.254 111 152.8 111C154.346 111 155.6 109.657 155.6 108Z" fill="#C4C4C4"/>
<path d="M5.6 93C5.6 91.3431 4.3464 90 2.8 90C1.2536 90 0 91.3431 0 93C0 94.6569 1.2536 96 2.8 96C4.3464 96 5.6 94.6569 5.6 93Z" fill="#C4C4C4"/>
<path d="M20.6 93C20.6 91.3431 19.3464 90 17.8 90C16.2536 90 15 91.3431 15 93C15 94.6569 16.2536 96 17.8 96C19.3464 96 20.6 94.6569 20.6 93Z" fill="#C4C4C4"/>
<path d="M35.6 93C35.6 91.3431 34.3464 90 32.8 90C31.2536 90 30 91.3431 30 93C30 94.6569 31.2536 96 32.8 96C34.3464 96 35.6 94.6569 35.6 93Z" fill="#C4C4C4"/>
<path d="M50.6 93C50.6 91.3431 49.3464 90 47.8 90C46.2536 90 45 91.3431 45 93C45 94.6569 46.2536 96 47.8 96C49.3464 96 50.6 94.6569 50.6 93Z" fill="#C4C4C4"/>
<path d="M65.6 93C65.6 91.3431 64.3464 90 62.8 90C61.2536 90 60 91.3431 60 93C60 94.6569 61.2536 96 62.8 96C64.3464 96 65.6 94.6569 65.6 93Z" fill="#C4C4C4"/>
<path d="M80.6 93C80.6 91.3431 79.3464 90 77.8 90C76.2536 90 75 91.3431 75 93C75 94.6569 76.2536 96 77.8 96C79.3464 96 80.6 94.6569 80.6 93Z" fill="#C4C4C4"/>
<path d="M95.6 93C95.6 91.3431 94.3464 90 92.8 90C91.2536 90 90 91.3431 90 93C90 94.6569 91.2536 96 92.8 96C94.3464 96 95.6 94.6569 95.6 93Z" fill="#C4C4C4"/>
<path d="M110.6 93C110.6 91.3431 109.346 90 107.8 90C106.254 90 105 91.3431 105 93C105 94.6569 106.254 96 107.8 96C109.346 96 110.6 94.6569 110.6 93Z" fill="#C4C4C4"/>
<path d="M125.6 93C125.6 91.3431 124.346 90 122.8 90C121.254 90 120 91.3431 120 93C120 94.6569 121.254 96 122.8 96C124.346 96 125.6 94.6569 125.6 93Z" fill="#C4C4C4"/>
<path d="M140.6 93C140.6 91.3431 139.346 90 137.8 90C136.254 90 135 91.3431 135 93C135 94.6569 136.254 96 137.8 96C139.346 96 140.6 94.6569 140.6 93Z" fill="#C4C4C4"/>
<path d="M155.6 93C155.6 91.3431 154.346 90 152.8 90C151.254 90 150 91.3431 150 93C150 94.6569 151.254 96 152.8 96C154.346 96 155.6 94.6569 155.6 93Z" fill="#C4C4C4"/>
<path d="M5.6 78C5.6 76.3431 4.3464 75 2.8 75C1.2536 75 0 76.3431 0 78C0 79.6569 1.2536 81 2.8 81C4.3464 81 5.6 79.6569 5.6 78Z" fill="#C4C4C4"/>
<path d="M20.6 78C20.6 76.3431 19.3464 75 17.8 75C16.2536 75 15 76.3431 15 78C15 79.6569 16.2536 81 17.8 81C19.3464 81 20.6 79.6569 20.6 78Z" fill="#C4C4C4"/>
<path d="M35.6 78C35.6 76.3431 34.3464 75 32.8 75C31.2536 75 30 76.3431 30 78C30 79.6569 31.2536 81 32.8 81C34.3464 81 35.6 79.6569 35.6 78Z" fill="#C4C4C4"/>
<path d="M50.6 78C50.6 76.3431 49.3464 75 47.8 75C46.2536 75 45 76.3431 45 78C45 79.6569 46.2536 81 47.8 81C49.3464 81 50.6 79.6569 50.6 78Z" fill="#C4C4C4"/>
<path d="M65.6 78C65.6 76.3431 64.3464 75 62.8 75C61.2536 75 60 76.3431 60 78C60 79.6569 61.2536 81 62.8 81C64.3464 81 65.6 79.6569 65.6 78Z" fill="#C4C4C4"/>
<path d="M80.6 78C80.6 76.3431 79.3464 75 77.8 75C76.2536 75 75 76.3431 75 78C75 79.6569 76.2536 81 77.8 81C79.3464 81 80.6 79.6569 80.6 78Z" fill="#C4C4C4"/>
<path d="M95.6 78C95.6 76.3431 94.3464 75 92.8 75C91.2536 75 90 76.3431 90 78C90 79.6569 91.2536 81 92.8 81C94.3464 81 95.6 79.6569 95.6 78Z" fill="#C4C4C4"/>
<path d="M110.6 78C110.6 76.3431 109.346 75 107.8 75C106.254 75 105 76.3431 105 78C105 79.6569 106.254 81 107.8 81C109.346 81 110.6 79.6569 110.6 78Z" fill="#C4C4C4"/>
<path d="M125.6 78C125.6 76.3431 124.346 75 122.8 75C121.254 75 120 76.3431 120 78C120 79.6569 121.254 81 122.8 81C124.346 81 125.6 79.6569 125.6 78Z" fill="#C4C4C4"/>
<path d="M140.6 78C140.6 76.3431 139.346 75 137.8 75C136.254 75 135 76.3431 135 78C135 79.6569 136.254 81 137.8 81C139.346 81 140.6 79.6569 140.6 78Z" fill="#C4C4C4"/>
<path d="M155.6 78C155.6 76.3431 154.346 75 152.8 75C151.254 75 150 76.3431 150 78C150 79.6569 151.254 81 152.8 81C154.346 81 155.6 79.6569 155.6 78Z" fill="#C4C4C4"/>
<path d="M5.6 63C5.6 61.3431 4.3464 60 2.8 60C1.2536 60 0 61.3431 0 63C0 64.6569 1.2536 66 2.8 66C4.3464 66 5.6 64.6569 5.6 63Z" fill="#C4C4C4"/>
<path d="M20.6 63C20.6 61.3431 19.3464 60 17.8 60C16.2536 60 15 61.3431 15 63C15 64.6569 16.2536 66 17.8 66C19.3464 66 20.6 64.6569 20.6 63Z" fill="#C4C4C4"/>
<path d="M35.6 63C35.6 61.3431 34.3464 60 32.8 60C31.2536 60 30 61.3431 30 63C30 64.6569 31.2536 66 32.8 66C34.3464 66 35.6 64.6569 35.6 63Z" fill="#C4C4C4"/>
<path d="M50.6 63C50.6 61.3431 49.3464 60 47.8 60C46.2536 60 45 61.3431 45 63C45 64.6569 46.2536 66 47.8 66C49.3464 66 50.6 64.6569 50.6 63Z" fill="#C4C4C4"/>
<path d="M65.6 63C65.6 61.3431 64.3464 60 62.8 60C61.2536 60 60 61.3431 60 63C60 64.6569 61.2536 66 62.8 66C64.3464 66 65.6 64.6569 65.6 63Z" fill="#C4C4C4"/>
<path d="M80.6 63C80.6 61.3431 79.3464 60 77.8 60C76.2536 60 75 61.3431 75 63C75 64.6569 76.2536 66 77.8 66C79.3464 66 80.6 64.6569 80.6 63Z" fill="#C4C4C4"/>
<path d="M95.6 63C95.6 61.3431 94.3464 60 92.8 60C91.2536 60 90 61.3431 90 63C90 64.6569 91.2536 66 92.8 66C94.3464 66 95.6 64.6569 95.6 63Z" fill="#C4C4C4"/>
<path d="M110.6 63C110.6 61.3431 109.346 60 107.8 60C106.254 60 105 61.3431 105 63C105 64.6569 106.254 66 107.8 66C109.346 66 110.6 64.6569 110.6 63Z" fill="#C4C4C4"/>
<path d="M125.6 63C125.6 61.3431 124.346 60 122.8 60C121.254 60 120 61.3431 120 63C120 64.6569 121.254 66 122.8 66C124.346 66 125.6 64.6569 125.6 63Z" fill="#C4C4C4"/>
<path d="M140.6 63C140.6 61.3431 139.346 60 137.8 60C136.254 60 135 61.3431 135 63C135 64.6569 136.254 66 137.8 66C139.346 66 140.6 64.6569 140.6 63Z" fill="#C4C4C4"/>
<path d="M155.6 63C155.6 61.3431 154.346 60 152.8 60C151.254 60 150 61.3431 150 63C150 64.6569 151.254 66 152.8 66C154.346 66 155.6 64.6569 155.6 63Z" fill="#C4C4C4"/>
<path d="M5.6 48C5.6 46.3431 4.3464 45 2.8 45C1.2536 45 0 46.3431 0 48C0 49.6569 1.2536 51 2.8 51C4.3464 51 5.6 49.6569 5.6 48Z" fill="#C4C4C4"/>
<path d="M20.6 48C20.6 46.3431 19.3464 45 17.8 45C16.2536 45 15 46.3431 15 48C15 49.6569 16.2536 51 17.8 51C19.3464 51 20.6 49.6569 20.6 48Z" fill="#C4C4C4"/>
<path d="M35.6 48C35.6 46.3431 34.3464 45 32.8 45C31.2536 45 30 46.3431 30 48C30 49.6569 31.2536 51 32.8 51C34.3464 51 35.6 49.6569 35.6 48Z" fill="#C4C4C4"/>
<path d="M50.6 48C50.6 46.3431 49.3464 45 47.8 45C46.2536 45 45 46.3431 45 48C45 49.6569 46.2536 51 47.8 51C49.3464 51 50.6 49.6569 50.6 48Z" fill="#C4C4C4"/>
<path d="M65.6 48C65.6 46.3431 64.3464 45 62.8 45C61.2536 45 60 46.3431 60 48C60 49.6569 61.2536 51 62.8 51C64.3464 51 65.6 49.6569 65.6 48Z" fill="#C4C4C4"/>
<path d="M80.6 48C80.6 46.3431 79.3464 45 77.8 45C76.2536 45 75 46.3431 75 48C75 49.6569 76.2536 51 77.8 51C79.3464 51 80.6 49.6569 80.6 48Z" fill="#C4C4C4"/>
<path d="M95.6 48C95.6 46.3431 94.3464 45 92.8 45C91.2536 45 90 46.3431 90 48C90 49.6569 91.2536 51 92.8 51C94.3464 51 95.6 49.6569 95.6 48Z" fill="#C4C4C4"/>
<path d="M110.6 48C110.6 46.3431 109.346 45 107.8 45C106.254 45 105 46.3431 105 48C105 49.6569 106.254 51 107.8 51C109.346 51 110.6 49.6569 110.6 48Z" fill="#C4C4C4"/>
<path d="M125.6 48C125.6 46.3431 124.346 45 122.8 45C121.254 45 120 46.3431 120 48C120 49.6569 121.254 51 122.8 51C124.346 51 125.6 49.6569 125.6 48Z" fill="#C4C4C4"/>
<path d="M140.6 48C140.6 46.3431 139.346 45 137.8 45C136.254 45 135 46.3431 135 48C135 49.6569 136.254 51 137.8 51C139.346 51 140.6 49.6569 140.6 48Z" fill="#C4C4C4"/>
<path d="M155.6 48C155.6 46.3431 154.346 45 152.8 45C151.254 45 150 46.3431 150 48C150 49.6569 151.254 51 152.8 51C154.346 51 155.6 49.6569 155.6 48Z" fill="#C4C4C4"/>
<path d="M5.6 33C5.6 31.3431 4.3464 30 2.8 30C1.2536 30 0 31.3431 0 33C0 34.6569 1.2536 36 2.8 36C4.3464 36 5.6 34.6569 5.6 33Z" fill="#C4C4C4"/>
<path d="M20.6 33C20.6 31.3431 19.3464 30 17.8 30C16.2536 30 15 31.3431 15 33C15 34.6569 16.2536 36 17.8 36C19.3464 36 20.6 34.6569 20.6 33Z" fill="#C4C4C4"/>
<path d="M35.6 33C35.6 31.3431 34.3464 30 32.8 30C31.2536 30 30 31.3431 30 33C30 34.6569 31.2536 36 32.8 36C34.3464 36 35.6 34.6569 35.6 33Z" fill="#C4C4C4"/>
<path d="M50.6 33C50.6 31.3431 49.3464 30 47.8 30C46.2536 30 45 31.3431 45 33C45 34.6569 46.2536 36 47.8 36C49.3464 36 50.6 34.6569 50.6 33Z" fill="#C4C4C4"/>
<path d="M65.6 33C65.6 31.3431 64.3464 30 62.8 30C61.2536 30 60 31.3431 60 33C60 34.6569 61.2536 36 62.8 36C64.3464 36 65.6 34.6569 65.6 33Z" fill="#C4C4C4"/>
<path d="M80.6 33C80.6 31.3431 79.3464 30 77.8 30C76.2536 30 75 31.3431 75 33C75 34.6569 76.2536 36 77.8 36C79.3464 36 80.6 34.6569 80.6 33Z" fill="#C4C4C4"/>
<path d="M95.6 33C95.6 31.3431 94.3464 30 92.8 30C91.2536 30 90 31.3431 90 33C90 34.6569 91.2536 36 92.8 36C94.3464 36 95.6 34.6569 95.6 33Z" fill="#C4C4C4"/>
<path d="M110.6 33C110.6 31.3431 109.346 30 107.8 30C106.254 30 105 31.3431 105 33C105 34.6569 106.254 36 107.8 36C109.346 36 110.6 34.6569 110.6 33Z" fill="#C4C4C4"/>
<path d="M125.6 33C125.6 31.3431 124.346 30 122.8 30C121.254 30 120 31.3431 120 33C120 34.6569 121.254 36 122.8 36C124.346 36 125.6 34.6569 125.6 33Z" fill="#C4C4C4"/>
<path d="M140.6 33C140.6 31.3431 139.346 30 137.8 30C136.254 30 135 31.3431 135 33C135 34.6569 136.254 36 137.8 36C139.346 36 140.6 34.6569 140.6 33Z" fill="#C4C4C4"/>
<path d="M155.6 33C155.6 31.3431 154.346 30 152.8 30C151.254 30 150 31.3431 150 33C150 34.6569 151.254 36 152.8 36C154.346 36 155.6 34.6569 155.6 33Z" fill="#C4C4C4"/>
<path d="M5.6 18C5.6 16.3431 4.3464 15 2.8 15C1.2536 15 0 16.3431 0 18C0 19.6569 1.2536 21 2.8 21C4.3464 21 5.6 19.6569 5.6 18Z" fill="#C4C4C4"/>
<path d="M20.6 18C20.6 16.3431 19.3464 15 17.8 15C16.2536 15 15 16.3431 15 18C15 19.6569 16.2536 21 17.8 21C19.3464 21 20.6 19.6569 20.6 18Z" fill="#C4C4C4"/>
<path d="M35.6 18C35.6 16.3431 34.3464 15 32.8 15C31.2536 15 30 16.3431 30 18C30 19.6569 31.2536 21 32.8 21C34.3464 21 35.6 19.6569 35.6 18Z" fill="#C4C4C4"/>
<path d="M50.6 18C50.6 16.3431 49.3464 15 47.8 15C46.2536 15 45 16.3431 45 18C45 19.6569 46.2536 21 47.8 21C49.3464 21 50.6 19.6569 50.6 18Z" fill="#C4C4C4"/>
<path d="M65.6 18C65.6 16.3431 64.3464 15 62.8 15C61.2536 15 60 16.3431 60 18C60 19.6569 61.2536 21 62.8 21C64.3464 21 65.6 19.6569 65.6 18Z" fill="#C4C4C4"/>
<path d="M80.6 18C80.6 16.3431 79.3464 15 77.8 15C76.2536 15 75 16.3431 75 18C75 19.6569 76.2536 21 77.8 21C79.3464 21 80.6 19.6569 80.6 18Z" fill="#C4C4C4"/>
<path d="M95.6 18C95.6 16.3431 94.3464 15 92.8 15C91.2536 15 90 16.3431 90 18C90 19.6569 91.2536 21 92.8 21C94.3464 21 95.6 19.6569 95.6 18Z" fill="#C4C4C4"/>
<path d="M110.6 18C110.6 16.3431 109.346 15 107.8 15C106.254 15 105 16.3431 105 18C105 19.6569 106.254 21 107.8 21C109.346 21 110.6 19.6569 110.6 18Z" fill="#C4C4C4"/>
<path d="M125.6 18C125.6 16.3431 124.346 15 122.8 15C121.254 15 120 16.3431 120 18C120 19.6569 121.254 21 122.8 21C124.346 21 125.6 19.6569 125.6 18Z" fill="#C4C4C4"/>
<path d="M140.6 18C140.6 16.3431 139.346 15 137.8 15C136.254 15 135 16.3431 135 18C135 19.6569 136.254 21 137.8 21C139.346 21 140.6 19.6569 140.6 18Z" fill="#C4C4C4"/>
<path d="M155.6 18C155.6 16.3431 154.346 15 152.8 15C151.254 15 150 16.3431 150 18C150 19.6569 151.254 21 152.8 21C154.346 21 155.6 19.6569 155.6 18Z" fill="#C4C4C4"/>
<path d="M5.6 3C5.6 1.34315 4.3464 0 2.8 0C1.2536 0 0 1.34315 0 3C0 4.65685 1.2536 6 2.8 6C4.3464 6 5.6 4.65685 5.6 3Z" fill="#C4C4C4"/>
<path d="M20.6 3C20.6 1.34315 19.3464 0 17.8 0C16.2536 0 15 1.34315 15 3C15 4.65685 16.2536 6 17.8 6C19.3464 6 20.6 4.65685 20.6 3Z" fill="#C4C4C4"/>
<path d="M35.6 3C35.6 1.34315 34.3464 0 32.8 0C31.2536 0 30 1.34315 30 3C30 4.65685 31.2536 6 32.8 6C34.3464 6 35.6 4.65685 35.6 3Z" fill="#C4C4C4"/>
<path d="M50.6 3C50.6 1.34315 49.3464 0 47.8 0C46.2536 0 45 1.34315 45 3C45 4.65685 46.2536 6 47.8 6C49.3464 6 50.6 4.65685 50.6 3Z" fill="#C4C4C4"/>
<path d="M65.6 3C65.6 1.34315 64.3464 0 62.8 0C61.2536 0 60 1.34315 60 3C60 4.65685 61.2536 6 62.8 6C64.3464 6 65.6 4.65685 65.6 3Z" fill="#C4C4C4"/>
<path d="M80.6 3C80.6 1.34315 79.3464 0 77.8 0C76.2536 0 75 1.34315 75 3C75 4.65685 76.2536 6 77.8 6C79.3464 6 80.6 4.65685 80.6 3Z" fill="#C4C4C4"/>
<path d="M95.6 3C95.6 1.34315 94.3464 0 92.8 0C91.2536 0 90 1.34315 90 3C90 4.65685 91.2536 6 92.8 6C94.3464 6 95.6 4.65685 95.6 3Z" fill="#C4C4C4"/>
<path d="M110.6 3C110.6 1.34315 109.346 0 107.8 0C106.254 0 105 1.34315 105 3C105 4.65685 106.254 6 107.8 6C109.346 6 110.6 4.65685 110.6 3Z" fill="#C4C4C4"/>
<path d="M125.6 3C125.6 1.34315 124.346 0 122.8 0C121.254 0 120 1.34315 120 3C120 4.65685 121.254 6 122.8 6C124.346 6 125.6 4.65685 125.6 3Z" fill="#C4C4C4"/>
<path d="M140.6 3C140.6 1.34315 139.346 0 137.8 0C136.254 0 135 1.34315 135 3C135 4.65685 136.254 6 137.8 6C139.346 6 140.6 4.65685 140.6 3Z" fill="#C4C4C4"/>
<path d="M155.6 3C155.6 1.34315 154.346 0 152.8 0C151.254 0 150 1.34315 150 3C150 4.65685 151.254 6 152.8 6C154.346 6 155.6 4.65685 155.6 3Z" fill="#C4C4C4"/>
</svg>
